<?xml version="1.0" standalone="no"?>
<!DOCTYPE svg PUBLIC "-//W3C//DTD SVG 1.1//EN" "http://www.w3.org/Graphics/SVG/1.1/DTD/svg11.dtd" >
<svg xmlns="http://www.w3.org/2000/svg" xmlns:xlink="http://www.w3.org/1999/xlink" version="1.1">
<metadata>
Created by FontForge 20190801 at Mon Feb 19 12:58:00 2018
 By www-data
Copyright (c) 2018 by TypeType. Designers Ivan Gladkikh, Pavel Emelyanov. Technical designers Marina Khodak, Vika Usmanova, Nadyr Rakhimov. All rights reserved.
</metadata>
<defs>
<font id="TTCommonsRegular" horiz-adv-x="490" >
  <font-face 
    font-family="TTCommonsRegular"
    font-weight="400"
    font-stretch="normal"
    units-per-em="1000"
    panose-1="2 0 5 6 3 0 0 2 0 4"
    ascent="700"
    descent="-300"
    x-height="450"
    cap-height="630"
    bbox="-170 -255 1438 850"
    underline-thickness="50"
    underline-position="-100"
    unicode-range="U+000D-FB06"
  />
<missing-glyph horiz-adv-x="0" 
 />
    <glyph glyph-name="ff" unicode="ff" horiz-adv-x="530" 
d="M510 380h-100v-380h-75v380h-180v-380h-75v380h-55v70h55v15q0 34 10.5 61.5t28.5 47t41.5 30.5t49.5 11q11 0 19.5 -1.5t14.5 -3.5q6 -3 11 -5v-65q-3 1 -7 2q-3 1 -8 2t-10 1q-34 0 -54.5 -21t-20.5 -59v-15h180v35q0 34 10.5 61.5t28.5 47t41.5 30.5t49.5 11
q11 0 19.5 -1.5t14.5 -3.5q6 -3 11 -5v-65q-3 1 -7 2q-3 1 -8 2t-10 1q-34 0 -54.5 -21t-20.5 -59v-35h100v-70z" />
    <glyph glyph-name="uniFB01" unicode="fi" horiz-adv-x="475" 
d="M410 0h-75v380h-180v-380h-75v380h-55v70h55v35q0 34 10.5 61.5t28.5 47t41.5 30.5t49.5 11q11 0 19.5 -1.5t14.5 -3.5q6 -3 11 -5v-65q-3 1 -7 2q-3 1 -8 2t-10 1q-34 0 -54.5 -21t-20.5 -59v-35h255v-450zM325 577q0 21 13.5 34.5t33.5 13.5q21 0 34.5 -13.5
t13.5 -34.5q0 -20 -13.5 -33.5t-34.5 -13.5q-20 0 -33.5 13.5t-13.5 33.5z" />
    <glyph glyph-name="uniFB02" unicode="fl" horiz-adv-x="485" 
d="M415 0h-75v550q-9 6 -21 10q-11 4 -25.5 7t-33.5 3q-49 0 -77 -27.5t-28 -72.5v-20h100v-70h-100v-380h-75v380h-55v70h55v20q0 36 13.5 67t37.5 54t57 36t72 13q19 0 33.5 -2.5t25.5 -5.5l21 -7h75v-625z" />
    <glyph glyph-name="ffi" unicode="ffi" horiz-adv-x="730" 
d="M665 0h-75v380h-180v-380h-75v380h-180v-380h-75v380h-55v70h55v15q0 34 10.5 61.5t28.5 47t41.5 30.5t49.5 11q11 0 19.5 -1.5t14.5 -3.5q6 -3 11 -5v-65q-3 1 -7 2q-3 1 -8 2t-10 1q-34 0 -54.5 -21t-20.5 -59v-15h180v35q0 34 10.5 61.5t28.5 47t41.5 30.5t49.5 11
q11 0 19.5 -1.5t14.5 -3.5q6 -3 11 -5v-65q-3 1 -7 2q-3 1 -8 2t-10 1q-34 0 -54.5 -21t-20.5 -59v-35h255v-450zM580 577q0 21 13.5 34.5t33.5 13.5q21 0 34.5 -13.5t13.5 -34.5q0 -20 -13.5 -33.5t-34.5 -13.5q-20 0 -33.5 13.5t-13.5 33.5z" />
    <glyph glyph-name="ffl" unicode="ffl" horiz-adv-x="740" 
d="M670 0h-75v550q-9 6 -21 10q-11 4 -25.5 7t-33.5 3q-49 0 -77 -27.5t-28 -72.5v-20h100v-70h-100v-380h-75v380h-180v-380h-75v380h-55v70h55v15q0 34 10.5 61.5t28.5 47t41.5 30.5t49.5 11q11 0 19.5 -1.5t14.5 -3.5q6 -3 11 -5v-65q-3 1 -7 2q-3 1 -8 2t-10 1
q-34 0 -54.5 -21t-20.5 -59v-15h180v20q0 36 13.5 67t37.5 54t57 36t72 13q19 0 33.5 -2.5t25.5 -5.5l21 -7h75v-625z" />
    <glyph glyph-name="f_f_j" unicode="ffj" horiz-adv-x="730" 
d="M590 380h-180v-380h-75v380h-180v-380h-75v380h-55v70h55v15q0 34 10.5 61.5t28.5 47t41.5 30.5t49.5 11q11 0 19.5 -1.5t14.5 -3.5q6 -3 11 -5v-65q-3 1 -7 2q-3 1 -8 2t-10 1q-34 0 -54.5 -21t-20.5 -59v-15h180v35q0 34 10.5 61.5t28.5 47t41.5 30.5t49.5 11
q11 0 19.5 -1.5t14.5 -3.5q6 -3 11 -5v-65q-3 1 -7 2q-3 1 -8 2t-10 1q-34 0 -54.5 -21t-20.5 -59v-35h255v-465q0 -34 -10.5 -61.5t-28.5 -47t-41.5 -30.5t-49.5 -11q-22 0 -34 5q-7 2 -11 5v65q3 -2 7 -3q8 -2 18 -2q34 0 54.5 21t20.5 59v395zM580 577q0 21 13.5 34.5
t33.5 13.5q21 0 34.5 -13.5t13.5 -34.5q0 -20 -13.5 -33.5t-34.5 -13.5q-20 0 -33.5 13.5t-13.5 33.5z" />
    <glyph glyph-name="f_j" unicode="fj" horiz-adv-x="475" 
d="M335 380h-180v-380h-75v380h-55v70h55v15q0 34 10.5 61.5t28.5 47t41.5 30.5t49.5 11q11 0 19.5 -1.5t14.5 -3.5q6 -3 11 -5v-65q-3 1 -7 2q-3 1 -8 2t-10 1q-34 0 -54.5 -21t-20.5 -59v-15h255v-465q0 -34 -10.5 -61.5t-28.5 -47t-41.5 -30.5t-49.5 -11q-22 0 -34 5
q-7 2 -11 5v65q3 -2 7 -3q8 -2 18 -2q34 0 54.5 21t20.5 59v395zM325 577q0 21 13.5 34.5t33.5 13.5q21 0 34.5 -13.5t13.5 -34.5q0 -20 -13.5 -33.5t-34.5 -13.5q-20 0 -33.5 13.5t-13.5 33.5z" />
    <glyph glyph-name="f_t" unicode="ft" horiz-adv-x="565" 
d="M355 570h65v-120h100v-70h-100v-235q0 -38 20.5 -59t54.5 -21q10 0 18 2q4 1 7 3v-65q-5 -3 -11 -5q-13 -5 -34 -5q-26 0 -49.5 11t-41.5 30.5t-28.5 47t-10.5 61.5v235h-190v-380h-75v380h-55v70h55v35q0 34 10.5 61.5t28.5 47t41.5 30.5t49.5 11q11 0 19.5 -1.5
t14.5 -3.5q6 -3 11 -5v-65q-3 1 -7 2q-3 1 -8 2t-10 1q-34 0 -54.5 -21t-20.5 -59v-35h145q55 0 55 55v65z" />
    <glyph glyph-name="f_h" unicode="fh" horiz-adv-x="780" 
d="M545 455q36 0 67.5 -14.5t55.5 -40t38 -61.5t14 -79v-260h-75v260q0 28 -9 51t-24 39.5t-35 25.5t-42 9q-53 0 -86.5 -34t-33.5 -91v-260h-75v550q-9 6 -21 10q-11 4 -25.5 7t-33.5 3q-49 0 -77 -27.5t-28 -72.5v-20h100v-70h-100v-380h-75v380h-55v70h55v20
q0 36 13.5 67t37.5 54t57 36t72 13q19 0 33.5 -2.5t25.5 -5.5l21 -7h75v-230q15 17 35 30q17 11 41 20.5t54 9.5z" />
    <glyph glyph-name="f_k" unicode="fk" horiz-adv-x="690" 
d="M415 0h-75v550q-9 6 -21 10q-11 4 -25.5 7t-33.5 3q-49 0 -77 -27.5t-28 -72.5v-20h100v-70h-100v-380h-75v380h-55v70h55v20q0 36 13.5 67t37.5 54t57 36t72 13q19 0 33.5 -2.5t25.5 -5.5l21 -7h75v-625zM605 0l-190 235l170 215h85l-170 -210l195 -240h-90z" />
    <glyph glyph-name="f_b" unicode="fb" horiz-adv-x="795" 
d="M395 0h-55v550q-9 6 -21 10q-11 4 -25.5 7t-33.5 3q-49 0 -77 -27.5t-28 -72.5v-20h100v-70h-100v-380h-75v380h-55v70h55v20q0 36 13.5 67t37.5 54t57 36t72 13q19 0 33.5 -2.5t25.5 -5.5l21 -7h75v-230q14 17 34 30q17 11 42 20.5t59 9.5q43 0 81.5 -17t67 -47.5
t45 -72.5t16.5 -93t-16.5 -93t-45 -72.5t-67 -47.5t-81.5 -17q-34 0 -59 8t-42 19q-20 12 -34 28zM405 225q0 -36 11.5 -65.5t30.5 -50.5t44.5 -32.5t53.5 -11.5t53.5 11.5t44.5 32.5t30.5 50.5t11.5 65.5t-11.5 65.5t-30.5 50.5t-44.5 32.5t-53.5 11.5t-53.5 -11.5
t-44.5 -32.5t-30.5 -50.5t-11.5 -65.5z" />
    <glyph glyph-name="f_f_h" unicode="ffh" horiz-adv-x="1035" 
d="M800 455q36 0 67.5 -14.5t55.5 -40t38 -61.5t14 -79v-260h-75v260q0 28 -9 51t-24 39.5t-35 25.5t-42 9q-53 0 -86.5 -34t-33.5 -91v-260h-75v550q-9 6 -21 10q-11 4 -25.5 7t-33.5 3q-49 0 -77 -27.5t-28 -72.5v-20h100v-70h-100v-380h-75v380h-180v-380h-75v380h-55v70
h55v15q0 34 10.5 61.5t28.5 47t41.5 30.5t49.5 11q11 0 19.5 -1.5t14.5 -3.5q6 -3 11 -5v-65q-3 1 -7 2q-3 1 -8 2t-10 1q-34 0 -54.5 -21t-20.5 -59v-15h180v20q0 36 13.5 67t37.5 54t57 36t72 13q19 0 33.5 -2.5t25.5 -5.5l21 -7h75v-230q14 17 33 30q17 11 41 20.5
t56 9.5z" />
    <glyph glyph-name="f_f_k" unicode="ffk" horiz-adv-x="945" 
d="M670 0h-75v550q-9 6 -21 10q-11 4 -25.5 7t-33.5 3q-49 0 -77 -27.5t-28 -72.5v-20h100v-70h-100v-380h-75v380h-180v-380h-75v380h-55v70h55v15q0 34 10.5 61.5t28.5 47t41.5 30.5t49.5 11q11 0 19.5 -1.5t14.5 -3.5q6 -3 11 -5v-65q-3 1 -7 2q-3 1 -8 2t-10 1
q-34 0 -54.5 -21t-20.5 -59v-15h180v20q0 36 13.5 67t37.5 54t57 36t72 13q19 0 33.5 -2.5t25.5 -5.5l21 -7h75v-625zM860 0l-190 235l170 215h85l-170 -210l195 -240h-90z" />
    <glyph glyph-name="f_f_b" unicode="ffb" horiz-adv-x="1050" 
d="M670 395q14 17 34 30q17 11 42 20.5t59 9.5q43 0 81.5 -17t67 -47.5t45 -72.5t16.5 -93t-16.5 -93t-45 -72.5t-67 -47.5t-81.5 -17q-34 0 -59 8t-42 19q-20 12 -34 28l-20 -50h-55v550q-9 6 -21 10q-11 4 -25.5 7t-33.5 3q-49 0 -77 -27.5t-28 -72.5v-20h100v-70h-100
v-380h-75v380h-180v-380h-75v380h-55v70h55v15q0 34 10.5 61.5t28.5 47t41.5 30.5t49.5 11q11 0 19.5 -1.5t14.5 -3.5q6 -3 11 -5v-65q-3 1 -7 2q-3 1 -8 2t-10 1q-34 0 -54.5 -21t-20.5 -59v-15h180v20q0 36 13.5 67t37.5 54t57 36t72 13q19 0 33.5 -2.5t25.5 -5.5l21 -7
h75v-230zM660 225q0 -36 11.5 -65.5t30.5 -50.5t44.5 -32.5t53.5 -11.5t53.5 11.5t44.5 32.5t30.5 50.5t11.5 65.5t-11.5 65.5t-30.5 50.5t-44.5 32.5t-53.5 11.5t-53.5 -11.5t-44.5 -32.5t-30.5 -50.5t-11.5 -65.5z" />
    <glyph glyph-name=".notdef" horiz-adv-x="0" 
 />
    <glyph glyph-name=".null" horiz-adv-x="0" 
 />
    <glyph glyph-name=".null" horiz-adv-x="0" 
 />
    <glyph glyph-name="nonmarkingreturn" unicode="&#xd;" horiz-adv-x="0" 
 />
    <glyph glyph-name="space" unicode=" " horiz-adv-x="215" 
 />
    <glyph glyph-name="exclam" unicode="!" horiz-adv-x="260" 
d="M160 150h-60l-20 480h100zM80 45q0 23 13.5 36.5t36.5 13.5t36.5 -13.5t13.5 -36.5t-13.5 -36.5t-36.5 -13.5t-36.5 13.5t-13.5 36.5z" />
    <glyph glyph-name="quotedbl" unicode="&#x22;" horiz-adv-x="305" 
d="M50 630h70v-185h-70v185zM185 630h70v-185h-70v185z" />
    <glyph glyph-name="numbersign" unicode="#" horiz-adv-x="600" 
d="M35 240h115l30 150h-120l15 60h115l35 180h60l-35 -180h150l35 180h60l-35 -180h120l-15 -60h-115l-30 -150h120l-15 -60h-115l-35 -180h-60l35 180h-150l-35 -180h-60l35 180h-120zM210 240h150l30 150h-150z" />
    <glyph glyph-name="dollar" unicode="$" horiz-adv-x="495" 
d="M215 -3q-41 5 -73.5 21t-55 40.5t-34.5 56.5t-12 70h80q0 -57 33 -88.5t97 -31.5t97 29t33 71q0 39 -25 60.5t-62 36t-80.5 27t-80.5 33t-62 54t-25 89.5q0 28 12 56t34.5 51t54 39t69.5 21v88h70v-88q34 -6 63.5 -23t51 -41.5t33.5 -56t12 -66.5h-80q0 53 -33 86.5
t-82 33.5q-28 0 -51 -8.5t-39.5 -22.5t-25.5 -32t-9 -37q0 -39 25 -60.5t62 -36t80.5 -27t80.5 -33t62 -54t25 -89.5q0 -31 -12 -59t-34.5 -50.5t-55 -38t-73.5 -20.5v-87h-70v87z" />
    <glyph glyph-name="percent" unicode="%" horiz-adv-x="600" 
d="M80 0l385 630h55l-385 -630h-55zM80 505q0 -34 22.5 -57t52.5 -23t52.5 23t22.5 57t-22.5 57t-52.5 23t-52.5 -23t-22.5 -57zM280 505q0 -26 -9.5 -49t-26.5 -40t-40 -26.5t-49 -9.5t-49 9.5t-40 26.5t-26.5 40t-9.5 49t9.5 49t26.5 40t40 26.5t49 9.5t49 -9.5t40 -26.5
t26.5 -40t9.5 -49zM370 125q0 -34 22.5 -57t52.5 -23t52.5 23t22.5 57t-22.5 57t-52.5 23t-52.5 -23t-22.5 -57zM570 125q0 -26 -9.5 -49t-26.5 -40t-40 -26.5t-49 -9.5t-49 9.5t-40 26.5t-26.5 40t-9.5 49t9.5 49t26.5 40t40 26.5t49 9.5t49 -9.5t40 -26.5t26.5 -40
t9.5 -49z" />
    <glyph glyph-name="ampersand" unicode="&#x26;" horiz-adv-x="530" 
d="M465 0l-85 85q-18 -26 -44 -45q-22 -17 -53 -31t-73 -14q-38 0 -68 11.5t-52 31.5t-33.5 47.5t-11.5 59.5q0 39 17 71.5t38 55.5q24 27 55 48l-45 50q-14 13 -25 31q-10 15 -17.5 36.5t-7.5 47.5q0 28 12 54t33 46.5t48 32.5t57 12t56.5 -11.5t46 -31t31 -46t11.5 -56.5
q0 -26 -10.5 -49t-22.5 -40q-14 -20 -32 -36l-44 -40l129 -130l60 100h85l-95 -150l135 -140h-95zM205 365l40 35q11 11 20 24q8 11 14 26.5t6 34.5q0 30 -20.5 52.5t-54.5 22.5t-57 -22.5t-23 -52.5q0 -17 6 -32t14 -27q9 -14 20 -26zM210 60q27 0 51 10.5t41 24.5
q20 15 38 35l-135 140q-25 -15 -43 -34q-16 -17 -29 -40t-13 -51q0 -34 24 -59.5t66 -25.5z" />
    <glyph glyph-name="quotesingle" unicode="'" horiz-adv-x="170" 
d="M50 630h70v-185h-70v185z" />
    <glyph glyph-name="parenleft" unicode="(" horiz-adv-x="265" 
d="M125 225q0 -78 18.5 -146.5t41.5 -122.5q26 -62 60 -116l-50 -35q-39 53 -70 118q-26 56 -48 132.5t-22 169.5q0 92 22 169t48 133q31 65 70 118l50 -35q-34 -54 -60 -116q-23 -54 -41.5 -123t-18.5 -146z" />
    <glyph glyph-name="parenright" unicode=")" horiz-adv-x="265" 
d="M140 225q0 77 -18.5 146t-41.5 123q-26 62 -60 116l50 35q39 -53 70 -118q26 -56 48 -133t22 -169q0 -93 -22 -169.5t-48 -132.5q-31 -65 -70 -118l-50 35q34 54 60 116q23 54 41.5 122.5t18.5 146.5z" />
    <glyph glyph-name="asterisk" unicode="*" horiz-adv-x="330" 
d="M115 355l-55 35l70 85l-105 25l20 55l95 -35l-5 110h60l-5 -110l95 35l20 -55l-105 -25l70 -85l-55 -35l-50 91z" />
    <glyph glyph-name="plus" unicode="+" horiz-adv-x="440" 
d="M185 60v165h-155v65h155v165h70v-165h155v-65h-155v-165h-70z" />
    <glyph glyph-name="comma" unicode="," horiz-adv-x="170" 
d="M85 -5q-23 0 -36.5 13.5t-13.5 36.5t13.5 36.5t36.5 13.5t36.5 -13.5t13.5 -36.5q0 -36 -12.5 -62.5t-27.5 -43.5q-18 -20 -40 -34l-10 15q10 10 18 21q7 10 13.5 23.5t8.5 30.5z" />
    <glyph glyph-name="hyphen" unicode="-" horiz-adv-x="345" 
d="M310 225h-275v65h275v-65z" />
    <glyph glyph-name="period" unicode="." horiz-adv-x="170" 
d="M35 45q0 23 13.5 36.5t36.5 13.5t36.5 -13.5t13.5 -36.5t-13.5 -36.5t-36.5 -13.5t-36.5 13.5t-13.5 36.5z" />
    <glyph glyph-name="slash" unicode="/" horiz-adv-x="330" 
d="M70 -180h-70l260 810h70z" />
    <glyph glyph-name="zero" unicode="0" horiz-adv-x="560" 
d="M115 315q0 -64 14 -111t37 -78t52.5 -46t61.5 -15t61.5 15t52.5 46t37 78t14 111t-14 111t-37 78t-52.5 46t-61.5 15t-61.5 -15t-52.5 -46t-37 -78t-14 -111zM525 315q0 -77 -20 -136.5t-54 -100.5t-78 -62t-93 -21t-93.5 21t-78 62t-53.5 100.5t-20 136.5t20 136.5
t53.5 100.5t78 62t93.5 21t93 -21t78 -62t54 -100.5t20 -136.5z" />
    <glyph glyph-name="one" unicode="1" horiz-adv-x="310" 
d="M230 630v-630h-80v520l-90 -60l-35 60l155 110h50z" />
    <glyph glyph-name="two" unicode="2" horiz-adv-x="480" 
d="M435 70v-70h-390v60l250 275q17 18 30 38q11 17 20.5 39.5t9.5 47.5q0 45 -31 75t-84 30t-86.5 -33.5t-33.5 -86.5h-80q0 39 15 74t42 60.5t63.5 40.5t79.5 15t79 -14t61.5 -38t40 -55.5t14.5 -67.5q0 -34 -13.5 -65t-29.5 -54q-18 -27 -42 -51l-200 -220h285z" />
    <glyph glyph-name="three" unicode="3" horiz-adv-x="485" 
d="M35 470q4 34 19.5 64t40.5 52.5t59.5 35.5t75.5 13q43 0 79 -14t61.5 -38t40 -55.5t14.5 -67.5q0 -34 -14 -58.5t-31 -40.5q-20 -18 -45 -31q30 -13 55 -34q20 -18 37.5 -48t17.5 -73q0 -36 -15 -68.5t-43 -57t-66.5 -39.5t-85.5 -15q-43 0 -78.5 13t-61.5 35.5
t-42.5 52.5t-22.5 64h80q8 -38 40 -66.5t85 -28.5q60 0 95 32.5t35 77.5q0 46 -35 78t-95 32h-35v70h30q53 0 84 30t31 75t-31 75t-84 30q-24 0 -44.5 -8t-35.5 -21t-24 -30t-11 -36h-80z" />
    <glyph glyph-name="four" unicode="4" horiz-adv-x="480" 
d="M455 135h-70v-135h-80v135h-280v65l265 430h95v-425h70v-70zM305 205v310l-190 -310h190z" />
    <glyph glyph-name="five" unicode="5" horiz-adv-x="500" 
d="M260 415q41 0 77.5 -16t63.5 -44t43 -66.5t16 -83.5t-16 -83.5t-44 -66.5t-66.5 -44t-83.5 -16q-43 0 -78.5 13t-61.5 35.5t-42.5 52.5t-22.5 64h80q8 -38 40 -66.5t85 -28.5q28 0 51.5 10t41 28t27.5 44t10 58q0 64 -36.5 102t-93.5 38q-34 0 -57 -12t-37 -26
q-17 -17 -26 -37h-70l40 360h320v-75h-250l-20 -180q12 11 29 20q14 8 34.5 14t46.5 6z" />
    <glyph glyph-name="six" unicode="6" horiz-adv-x="495" 
d="M250 -5q-45 0 -84 16.5t-68.5 46t-46 68.5t-16.5 84q0 30 8 57t19 48q12 24 28 45l180 270h85l-140 -210l10 2t11 2t14 1q45 0 84 -16.5t68.5 -46t46 -68.5t16.5 -84t-16.5 -84t-46 -68.5t-68.5 -46t-84 -16.5zM115 210q0 -32 10.5 -58.5t29 -45.5t43 -30t52.5 -11
t52.5 10.5t43 30t29 46t10.5 58.5q0 30 -10.5 55.5t-29 44.5t-43 29.5t-52.5 10.5t-52.5 -10.5t-43 -29.5t-29 -44.5t-10.5 -55.5z" />
    <glyph glyph-name="seven" unicode="7" horiz-adv-x="440" 
d="M415 630v-55l-265 -575h-85l260 560h-290v70h380z" />
    <glyph glyph-name="eight" unicode="8" 
d="M245 -5q-47 0 -85.5 15t-66.5 40t-43 58.5t-15 71.5q0 45 17 75.5t38 49.5q24 22 55 35q-25 9 -43 27q-16 15 -29 40t-13 63q0 32 14 61.5t39 52.5t59 37t73 14t73 -14t59 -37t39 -52.5t14 -61.5q0 -38 -13.5 -63t-29.5 -40q-18 -18 -42 -27q30 -13 55 -35
q20 -19 37.5 -49.5t17.5 -75.5q0 -38 -15 -71.5t-43 -58.5t-66.5 -40t-85.5 -15zM245 300q-60 0 -95 -33t-35 -82q0 -53 35 -86.5t95 -33.5t95 33.5t35 86.5q0 49 -35 82t-95 33zM245 370q22 0 41.5 8t33.5 21t22 30t8 36q0 21 -8 39t-22 31.5t-33.5 21.5t-41.5 8
q-23 0 -42 -8t-33 -21.5t-22 -31.5t-8 -39q0 -19 8 -36t22 -30t33 -21t42 -8z" />
    <glyph glyph-name="nine" unicode="9" horiz-adv-x="495" 
d="M245 635q45 0 84 -16.5t68.5 -46t46 -68.5t16.5 -84q0 -30 -8.5 -57.5t-19.5 -47.5q-12 -25 -27 -45l-180 -270h-85l140 210q-5 -2 -10 -3t-11 -1.5t-14 -0.5q-45 0 -84 16.5t-68.5 46t-46 68.5t-16.5 84t16.5 84t46 68.5t68.5 46t84 16.5zM380 420q0 31 -10.5 58t-29 46
t-43 30t-52.5 11t-52.5 -10.5t-43 -30t-29 -46t-10.5 -58.5q0 -30 10.5 -55.5t29 -44.5t43 -29.5t52.5 -10.5t52.5 10.5t43 29.5t29 44.5t10.5 55.5z" />
    <glyph glyph-name="colon" unicode=":" horiz-adv-x="170" 
d="M35 45q0 23 13.5 36.5t36.5 13.5t36.5 -13.5t13.5 -36.5t-13.5 -36.5t-36.5 -13.5t-36.5 13.5t-13.5 36.5zM35 400q0 23 13.5 36.5t36.5 13.5t36.5 -13.5t13.5 -36.5t-13.5 -36.5t-36.5 -13.5t-36.5 13.5t-13.5 36.5z" />
    <glyph glyph-name="semicolon" unicode=";" horiz-adv-x="170" 
d="M35 400q0 23 13.5 36.5t36.5 13.5t36.5 -13.5t13.5 -36.5t-13.5 -36.5t-36.5 -13.5t-36.5 13.5t-13.5 36.5zM85 -5q-23 0 -36.5 13.5t-13.5 36.5t13.5 36.5t36.5 13.5t36.5 -13.5t13.5 -36.5q0 -36 -12.5 -62.5t-27.5 -43.5q-18 -20 -40 -34l-10 15q10 10 18 21
q7 10 13.5 23.5t8.5 30.5z" />
    <glyph glyph-name="less" unicode="&#x3c;" horiz-adv-x="440" 
d="M395 80v-75l-350 190v50l350 190v-75l-265 -140z" />
    <glyph glyph-name="equal" unicode="=" horiz-adv-x="435" 
d="M405 385v-70h-375v70h375zM30 200h375v-70h-375v70z" />
    <glyph glyph-name="greater" unicode="&#x3e;" horiz-adv-x="440" 
d="M310 220l-265 140v75l350 -190v-50l-350 -190v75z" />
    <glyph glyph-name="question" unicode="?" horiz-adv-x="430" 
d="M395 469q0 -40 -10.5 -66.5t-27 -46.5t-35 -36.5t-35 -36.5t-27 -46.5t-10.5 -66.5v-5h-80v5q0 47 10.5 79t27 54.5t35 39t35 34t27 39t10.5 53.5q0 42 -26.5 69t-68.5 27q-49 0 -77 -30.5t-28 -94.5v-10h-80v10q0 94 51 144.5t134 50.5q37 0 69.5 -12.5t55.5 -34.5
t36.5 -52.5t13.5 -66.5zM160 45q0 23 13.5 36.5t36.5 13.5t36.5 -13.5t13.5 -36.5t-13.5 -36.5t-36.5 -13.5t-36.5 13.5t-13.5 36.5z" />
    <glyph glyph-name="at" unicode="@" horiz-adv-x="740" 
d="M470 116q-12 -18 -29 -31q-14 -11 -36 -20.5t-50 -9.5q-30 0 -57 12.5t-48 35t-33 53.5t-12 69q0 37 12 68.5t33 54t48 35t57 12.5q26 0 45.5 -8.5t33.5 -19.5q15 -12 26 -27l15 50h45v-197q0 -44 16 -63.5t39 -19.5q15 0 28 6.5t22 21t14.5 38.5t5.5 59q0 54 -22 103
t-59 86t-86 59t-103 22t-103 -22t-86 -60t-59 -89t-22 -109t22 -109t59 -89t86 -60t103 -22q30 0 55.5 7t44.5 15q22 10 40 23l30 -50q-24 -14 -51 -25q-23 -10 -54 -17.5t-65 -7.5q-69 0 -130 26.5t-106.5 72t-72 106.5t-26.5 130t26.5 130t72 106.5t106.5 72t130 26.5
t130 -26t106.5 -70.5t72 -103.5t26.5 -125q0 -45 -10.5 -78.5t-29 -56t-43 -34t-52.5 -11.5q-29 0 -48.5 9.5t-32.5 20.5q-15 13 -24 31zM265 225q0 -49 29 -79.5t71 -30.5q44 0 72 29t28 81t-28 81t-72 29q-42 0 -71 -30.5t-29 -79.5z" />
    <glyph glyph-name="A" unicode="A" horiz-adv-x="550" 
d="M405 155h-260l-60 -155h-85l240 630h70l240 -630h-85zM170 225h210l-105 275z" />
    <glyph glyph-name="B" unicode="B" horiz-adv-x="560" 
d="M425 335q26 -13 47 -34q18 -18 33 -48t15 -73q0 -35 -15 -67.5t-42 -57.5t-63.5 -40t-79.5 -15h-240v630h235q39 0 72 -13t57 -36t37.5 -54t13.5 -67q0 -34 -11 -57.5t-24 -38.5q-16 -18 -35 -29zM160 365h155q22 0 41.5 8t33.5 21t22 30t8 36q0 21 -8 39t-22 31.5
t-33.5 21.5t-41.5 8h-155v-195zM320 70q53 0 86.5 33t33.5 82q0 22 -9 42t-25 35t-38 24t-48 9h-160v-225h160z" />
    <glyph glyph-name="C" unicode="C" horiz-adv-x="630" 
d="M330 565q-41 0 -80 -18.5t-69 -52t-48 -79.5t-18 -100t18 -100t48 -79.5t69 -52t80 -18.5q37 0 68 11.5t54.5 31t39 46t23.5 56.5h85q-13 -45 -37 -84t-58.5 -68.5t-78.5 -46t-96 -16.5q-58 0 -111.5 24.5t-94 68t-65 101.5t-24.5 126q0 67 24.5 125.5t65 102t94 68
t111.5 24.5q51 0 93.5 -16.5t76.5 -46t58 -68.5t37 -84h-85q-8 30 -23.5 56.5t-38.5 46t-52.5 31t-65.5 11.5z" />
    <glyph glyph-name="D" unicode="D" horiz-adv-x="595" 
d="M255 70q43 0 83 18.5t70.5 51.5t48.5 77.5t18 97.5q0 52 -18 97t-48.5 78t-70.5 51.5t-83 18.5h-95v-490h95zM555 315q0 -68 -23.5 -125.5t-64.5 -99.5t-95.5 -66t-116.5 -24h-175v630h175q62 0 116.5 -24t95.5 -66t64.5 -100t23.5 -125z" />
    <glyph glyph-name="E" unicode="E" horiz-adv-x="540" 
d="M490 70v-70h-410v630h400v-70h-320v-200h295v-70h-295v-220h330z" />
    <glyph glyph-name="F" unicode="F" horiz-adv-x="500" 
d="M160 560v-210h250v-70h-250v-280h-80v630h385v-70h-305z" />
    <glyph glyph-name="G" unicode="G" horiz-adv-x="675" 
d="M335 565q-41 0 -80 -18.5t-69 -52t-48 -79.5t-18 -100t18 -100t48 -79.5t69 -52t80 -18.5q37 0 71.5 15.5t61 41t42 57.5t15.5 66h-185v70h265v-315h-60l-20 75q-22 -22 -50 -40q-25 -15 -60 -27.5t-80 -12.5q-58 0 -111.5 24.5t-94 68t-65 101.5t-24.5 126
q0 67 24.5 125.5t65 102t94 68t111.5 24.5q52 0 94.5 -15t75.5 -42.5t56.5 -65t38.5 -82.5h-85q-19 60 -62 97.5t-118 37.5z" />
    <glyph glyph-name="H" unicode="H" horiz-adv-x="625" 
d="M545 630v-630h-80v285h-305v-285h-80v630h80v-275h305v275h80z" />
    <glyph glyph-name="I" unicode="I" horiz-adv-x="240" 
d="M160 0h-80v630h80v-630z" />
    <glyph glyph-name="J" unicode="J" horiz-adv-x="460" 
d="M390 631v-461q0 -36 -14 -67.5t-39.5 -55.5t-60.5 -38t-76 -14t-76 14t-60.5 38t-39.5 55.5t-14 67.5h80q4 -45 34.5 -75t75.5 -30q49 0 79.5 30t30.5 75v461h80z" />
    <glyph glyph-name="K" unicode="K" horiz-adv-x="515" 
d="M160 0h-80v630h80v-630zM160 320l245 310h95l-250 -310l270 -320h-95z" />
    <glyph glyph-name="L" unicode="L" horiz-adv-x="470" 
d="M460 70v-70h-380v630h80v-560h300z" />
    <glyph glyph-name="M" unicode="M" horiz-adv-x="760" 
d="M615 630h65v-630h-80v425l-195 -425h-50l-195 425v-425h-80v630h65l235 -505z" />
    <glyph glyph-name="N" unicode="N" horiz-adv-x="625" 
d="M545 630v-630h-70l-315 475v-475h-80v630h70l315 -475v475h80z" />
    <glyph glyph-name="O" unicode="O" horiz-adv-x="660" 
d="M115 315q0 -54 18 -100t48 -79.5t69 -52t80 -18.5t80 18.5t69 52t48 79.5t18 100t-18 100t-48 79.5t-69 52t-80 18.5t-80 -18.5t-69 -52t-48 -79.5t-18 -100zM625 315q0 -68 -24.5 -126t-65 -101.5t-94 -68t-111.5 -24.5t-111.5 24.5t-94 68t-65 101.5t-24.5 126
q0 67 24.5 125.5t65 102t94 68t111.5 24.5t111.5 -24.5t94 -68t65 -102t24.5 -125.5z" />
    <glyph glyph-name="P" unicode="P" horiz-adv-x="535" 
d="M295 630q41 0 77.5 -15.5t63.5 -42.5t43 -62.5t16 -74.5t-16 -74.5t-43 -62.5t-63.5 -42.5t-77.5 -15.5h-135v-240h-80v630h215zM295 310q24 0 46 9.5t38.5 26.5t26 40t9.5 49t-9.5 49t-26 40t-38.5 26.5t-46 9.5h-135v-250h135z" />
    <glyph glyph-name="Q" unicode="Q" horiz-adv-x="670" 
d="M490 50q-19 -16 -44 -28q-21 -11 -51 -19t-65 -8q-58 0 -111.5 24.5t-94 68t-65 101.5t-24.5 126q0 67 24.5 125.5t65 102t94 68t111.5 24.5t111.5 -24.5t94 -68t65 -102t24.5 -125.5q0 -51 -12.5 -90.5t-27.5 -67.5q-18 -33 -40 -57l70 -70l-50 -55zM115 315
q0 -54 18 -100t48 -79.5t69 -52t80 -18.5q24 0 44.5 5t34.5 12q17 8 31 18l-65 65l50 55l70 -70q14 18 25 43q9 21 17 51.5t8 70.5q0 54 -18 100t-48 79.5t-69 52t-80 18.5t-80 -18.5t-69 -52t-48 -79.5t-18 -100z" />
    <glyph glyph-name="R" unicode="R" horiz-adv-x="555" 
d="M280 260h-120v-260h-80v630h235q39 0 74 -15t60.5 -40t40.5 -59t15 -71q0 -55 -22 -89.5t-48 -54.5q-31 -24 -69 -36l154 -265h-90zM160 330h155q22 0 42 9t35 24.5t24 36.5t9 45t-9 45t-24 36.5t-35 24.5t-42 9h-155v-230z" />
    <glyph glyph-name="S" unicode="S" horiz-adv-x="495" 
d="M45 465q0 32 15 62.5t42.5 54.5t65 38.5t82.5 14.5q41 0 76.5 -15t62 -40.5t41.5 -60.5t15 -74h-80q0 53 -33 86.5t-82 33.5q-28 0 -51 -8.5t-39.5 -22.5t-25.5 -32t-9 -37q0 -39 25 -60.5t62 -36t80.5 -27t80.5 -33t62 -54t25 -89.5q0 -34 -14.5 -64.5t-41.5 -54
t-66 -37.5t-88 -14t-88 14t-66 39.5t-41.5 60.5t-14.5 76h80q0 -57 33 -88.5t97 -31.5t97 29t33 71q0 39 -25 60.5t-62 36t-80.5 27t-80.5 33t-62 54t-25 89.5z" />
    <glyph glyph-name="T" unicode="T" 
d="M475 560h-190v-560h-80v560h-190v70h460v-70z" />
    <glyph glyph-name="U" unicode="U" horiz-adv-x="600" 
d="M300 -5q-51 0 -93 17t-72.5 47t-47.5 71t-17 90v410h80v-410q0 -72 41 -113.5t109 -41.5t109 41.5t41 113.5v410h80v-410q0 -49 -17 -90t-47.5 -71t-72.5 -47t-93 -17z" />
    <glyph glyph-name="V" unicode="V" horiz-adv-x="560" 
d="M320 0h-80l-230 630h85l185 -515l185 515h85z" />
    <glyph glyph-name="W" unicode="W" horiz-adv-x="780" 
d="M390 455l-130 -455h-55l-195 630h85l140 -455l130 455h50l130 -455l140 455h85l-195 -630h-55z" />
    <glyph glyph-name="X" unicode="X" horiz-adv-x="520" 
d="M215 320l-195 310h90l150 -240l150 240h90l-195 -310l205 -320h-95l-155 250l-155 -250h-95z" />
    <glyph glyph-name="Y" unicode="Y" horiz-adv-x="500" 
d="M10 630h85l155 -300l155 300h85l-200 -385v-245h-80v245z" />
    <glyph glyph-name="Z" unicode="Z" horiz-adv-x="485" 
d="M130 70h325v-70h-425v50l310 510h-300v70h400v-50z" />
    <glyph glyph-name="bracketleft" unicode="[" horiz-adv-x="285" 
d="M150 -115h115v-65h-185v810h185v-65h-115v-680z" />
    <glyph glyph-name="backslash" unicode="\" horiz-adv-x="330" 
d="M0 630h70l260 -810h-70z" />
    <glyph glyph-name="bracketright" unicode="]" horiz-adv-x="285" 
d="M135 565h-115v65h185v-810h-185v65h115v680z" />
    <glyph glyph-name="asciicircum" unicode="^" horiz-adv-x="380" 
d="M280 345l-90 190l-90 -190h-60l135 285h30l135 -285h-60z" />
    <glyph glyph-name="underscore" unicode="_" horiz-adv-x="260" 
d="M280 -165h-300v60h300v-60z" />
    <glyph glyph-name="grave" unicode="`" horiz-adv-x="195" 
d="M165 510h-50l-85 120h75z" />
    <glyph glyph-name="a" unicode="a" horiz-adv-x="465" 
d="M235 455q37 0 68.5 -12.5t54 -33.5t35 -49t12.5 -60v-300h-55l-20 50q-15 -16 -34 -28q-17 -11 -42 -19t-59 -8t-61.5 10.5t-47 29t-30.5 43t-11 52.5q0 32 13 58.5t45 46t87.5 30t139.5 10.5v25q0 34 -26.5 59.5t-68.5 25.5t-62 -17.5t-28 -47.5h-80q4 28 17 52.5
t34.5 43t51 29t67.5 10.5zM195 65q30 0 55 9.5t42.5 24.5t27.5 33.5t10 37.5v35q-68 0 -109 -5.5t-63.5 -16t-30 -25t-7.5 -33.5q0 -23 20.5 -41.5t54.5 -18.5z" />
    <glyph glyph-name="b" unicode="b" horiz-adv-x="525" 
d="M135 225q0 -36 11.5 -65.5t30.5 -50.5t44.5 -32.5t53.5 -11.5t53.5 11.5t44.5 32.5t30.5 50.5t11.5 65.5t-11.5 65.5t-30.5 50.5t-44.5 32.5t-53.5 11.5t-53.5 -11.5t-44.5 -32.5t-30.5 -50.5t-11.5 -65.5zM125 0h-55v630h75v-235q14 17 34 30q17 11 42 20.5t59 9.5
q43 0 81.5 -17t67 -47.5t45 -72.5t16.5 -93t-16.5 -93t-45 -72.5t-67 -47.5t-81.5 -17q-34 0 -59 8t-42 19q-20 12 -34 28z" />
    <glyph glyph-name="c" unicode="c" horiz-adv-x="470" 
d="M245 385q-26 0 -50.5 -11.5t-43.5 -32.5t-30 -50.5t-11 -65.5t11 -65.5t30 -50.5t43.5 -32.5t50.5 -11.5q22 0 41.5 8t35 21t26.5 30t17 36h75q-8 -34 -25 -64t-42.5 -52.5t-58 -35.5t-69.5 -13q-43 0 -81.5 17t-67 47.5t-45 72.5t-16.5 93t16.5 93t45 72.5t67 47.5
t81.5 17q37 0 69.5 -13t58 -35.5t42.5 -52.5t25 -64h-75q-6 19 -17 36t-26.5 30t-35 21t-41.5 8z" />
    <glyph glyph-name="d" unicode="d" horiz-adv-x="525" 
d="M390 225q0 36 -11.5 65.5t-30.5 50.5t-44.5 32.5t-53.5 11.5t-53.5 -11.5t-44.5 -32.5t-30.5 -50.5t-11.5 -65.5t11.5 -65.5t30.5 -50.5t44.5 -32.5t53.5 -11.5t53.5 11.5t44.5 32.5t30.5 50.5t11.5 65.5zM380 50q-15 -16 -34 -28q-17 -11 -42 -19t-59 -8q-43 0 -81.5 17
t-67 47.5t-45 72.5t-16.5 93t16.5 93t45 72.5t67 47.5t81.5 17q34 0 59 -9.5t42 -20.5q19 -13 34 -30v235h75v-630h-55z" />
    <glyph glyph-name="e" unicode="e" horiz-adv-x="475" 
d="M430 120q-11 -24 -28 -47t-40 -40t-52 -27.5t-65 -10.5q-43 0 -81.5 17t-67 47.5t-45 72.5t-16.5 93t16.5 93t44.5 72.5t65.5 47.5t78.5 17t77.5 -16t63.5 -45.5t43 -71t16 -92.5q0 -10 -1 -17t-2 -12q-1 -6 -2 -11h-320q2 -24 13.5 -47t29 -40t40.5 -27.5t47 -10.5
q21 0 37.5 6t30 14t22.5 17.5t15 17.5h80zM240 385q-23 0 -43.5 -10t-37.5 -27t-28.5 -41t-15.5 -52h245q-8 60 -41.5 95t-78.5 35z" />
    <glyph glyph-name="f" unicode="f" horiz-adv-x="275" 
d="M255 380h-100v-380h-75v380h-55v70h55v35q0 34 10.5 61.5t28.5 47t41.5 30.5t49.5 11q11 0 19.5 -1.5t14.5 -3.5q6 -3 11 -5v-65q-3 1 -7 2q-3 1 -8 2t-10 1q-34 0 -54.5 -21t-20.5 -59v-35h100v-70z" />
    <glyph glyph-name="g" unicode="g" horiz-adv-x="505" 
d="M370 75q-13 -17 -31 -30q-16 -11 -40.5 -20.5t-58.5 -9.5q-43 0 -80.5 16t-65 45t-43.5 69.5t-16 89.5t16 89.5t43.5 69.5t65 45t80.5 16q34 0 58.5 -8.5t40.5 -19.5q18 -12 31 -27l20 50h55v-435q0 -39 -14.5 -73t-40.5 -59t-63 -39t-82 -14q-39 0 -70 10.5t-54 29
t-38.5 43t-22.5 52.5h75q11 -26 36 -45.5t74 -19.5q57 0 91 33t34 82v60zM110 235q0 -34 10.5 -61.5t29 -47t43 -30.5t52.5 -11t52.5 11t43 30.5t29 47t10.5 61.5t-10.5 61.5t-29 47t-43 30.5t-52.5 11t-52.5 -11t-43 -30.5t-29 -47t-10.5 -61.5z" />
    <glyph glyph-name="h" unicode="h" horiz-adv-x="510" 
d="M275 455q36 0 67.5 -14.5t55.5 -40t38 -61.5t14 -79v-260h-75v260q0 28 -9 51t-24 39.5t-35 25.5t-42 9q-53 0 -86.5 -34t-33.5 -91v-260h-75v630h75v-235q14 17 33 30q17 11 41 20.5t56 9.5z" />
    <glyph glyph-name="i" unicode="i" horiz-adv-x="205" 
d="M140 0h-75v450h75v-450zM55 577q0 21 13.5 34.5t33.5 13.5q21 0 34.5 -13.5t13.5 -34.5q0 -20 -13.5 -33.5t-34.5 -13.5q-20 0 -33.5 13.5t-13.5 33.5z" />
    <glyph glyph-name="j" unicode="j" horiz-adv-x="205" 
d="M65 450h75v-465q0 -34 -10.5 -61.5t-28.5 -47t-41.5 -30.5t-49.5 -11q-22 0 -34 5q-7 2 -11 5v65q3 -2 7 -3q8 -2 18 -2q34 0 54.5 21t20.5 59v465zM55 577q0 21 13.5 34.5t33.5 13.5q21 0 34.5 -13.5t13.5 -34.5q0 -20 -13.5 -33.5t-34.5 -13.5q-20 0 -33.5 13.5
t-13.5 33.5z" />
    <glyph glyph-name="k" unicode="k" horiz-adv-x="420" 
d="M145 0h-75v630h75v-630zM335 0l-190 235l170 215h85l-170 -210l195 -240h-90z" />
    <glyph glyph-name="l" unicode="l" horiz-adv-x="215" 
d="M145 0h-75v630h75v-630z" />
    <glyph glyph-name="m" unicode="m" horiz-adv-x="720" 
d="M510 455q30 0 57 -12.5t48 -36.5t33 -58.5t12 -77.5v-270h-75v270q0 57 -26 86t-64 29t-66.5 -31t-28.5 -84v-270h-75v270q0 57 -26 86t-64 29q-18 0 -35.5 -8.5t-30.5 -24t-21 -36.5t-8 -46v-270h-75v450h55l20 -50q11 15 27 27q14 11 34 19.5t49 8.5q34 0 57.5 -12.5
t38.5 -27.5q18 -18 29 -40q13 22 32 40q17 15 42 27.5t61 12.5z" />
    <glyph glyph-name="n" unicode="n" horiz-adv-x="505" 
d="M270 455q36 0 67.5 -14.5t55.5 -40t38 -61.5t14 -79v-260h-75v260q0 28 -9 51t-24 39.5t-35 25.5t-42 9q-53 0 -86.5 -34t-33.5 -91v-260h-75v450h55l20 -50q14 15 33 27q17 11 41 19.5t56 8.5z" />
    <glyph glyph-name="o" unicode="o" 
d="M110 225q0 -36 11 -65.5t30 -50.5t43.5 -32.5t50.5 -11.5t50.5 11.5t43 32.5t30 50.5t11.5 65.5t-11.5 65.5t-30 50.5t-43 32.5t-50.5 11.5t-50.5 -11.5t-43.5 -32.5t-30 -50.5t-11 -65.5zM455 225q0 -51 -16.5 -93t-45 -72.5t-67 -47.5t-81.5 -17t-81.5 17t-67 47.5
t-45 72.5t-16.5 93t16.5 93t45 72.5t67 47.5t81.5 17t81.5 -17t67 -47.5t45 -72.5t16.5 -93z" />
    <glyph glyph-name="p" unicode="p" horiz-adv-x="520" 
d="M130 225q0 -36 11.5 -65.5t30.5 -50.5t44.5 -32.5t53.5 -11.5t53.5 11.5t44.5 32.5t30.5 50.5t11.5 65.5t-11.5 65.5t-30.5 50.5t-44.5 32.5t-53.5 11.5t-53.5 -11.5t-44.5 -32.5t-30.5 -50.5t-11.5 -65.5zM140 400q14 15 34 27q17 11 42 19.5t59 8.5q43 0 81.5 -17
t67 -47.5t45 -72.5t16.5 -93t-16.5 -93t-45 -72.5t-67 -47.5t-81.5 -17q-34 0 -59 9.5t-42 20.5q-20 13 -34 30v-215h-75v610h55z" />
    <glyph glyph-name="q" unicode="q" horiz-adv-x="520" 
d="M390 225q0 36 -11.5 65.5t-30.5 50.5t-44.5 32.5t-53.5 11.5t-53.5 -11.5t-44.5 -32.5t-30.5 -50.5t-11.5 -65.5t11.5 -65.5t30.5 -50.5t44.5 -32.5t53.5 -11.5t53.5 11.5t44.5 32.5t30.5 50.5t11.5 65.5zM400 450h55v-610h-75v215q-15 -17 -34 -30q-17 -11 -42 -20.5
t-59 -9.5q-43 0 -81.5 17t-67 47.5t-45 72.5t-16.5 93t16.5 93t45 72.5t67 47.5t81.5 17q34 0 59 -8.5t42 -19.5q19 -12 34 -27z" />
    <glyph glyph-name="r" unicode="r" horiz-adv-x="300" 
d="M280 380h-20q-53 0 -86.5 -34t-33.5 -91v-255h-75v450h55l20 -50q14 15 33 27q17 11 41 19.5t56 8.5h10v-75z" />
    <glyph glyph-name="s" unicode="s" horiz-adv-x="395" 
d="M360 130q0 -28 -11 -52.5t-31 -43t-48.5 -29t-64.5 -10.5q-75 0 -118 40t-47 100h75q4 -30 26 -50t64 -20q38 0 59 19.5t21 45.5q0 25 -17.5 37.5t-43.5 20t-56.5 14t-56.5 19.5t-43.5 37t-17.5 67q0 26 11 49.5t30.5 41.5t47 28.5t61.5 10.5q72 0 111.5 -37.5
t43.5 -97.5h-75q-4 30 -23 47.5t-57 17.5q-34 0 -54.5 -18.5t-20.5 -41.5q0 -25 17.5 -37.5t43.5 -20t56.5 -14t56.5 -19.5t43.5 -37.5t17.5 -66.5z" />
    <glyph glyph-name="t" unicode="t" horiz-adv-x="320" 
d="M110 570h65v-120h100v-70h-100v-235q0 -38 20.5 -59t54.5 -21q10 0 18 2q4 1 7 3v-65q-5 -3 -11 -5q-13 -5 -34 -5q-26 0 -49.5 11t-41.5 30.5t-28.5 47t-10.5 61.5v235h-80v70h35q55 0 55 55v65z" />
    <glyph glyph-name="u" unicode="u" horiz-adv-x="510" 
d="M240 -5q-36 0 -67.5 14.5t-55.5 40t-38 61.5t-14 79v260h75v-260q0 -28 8.5 -51t23.5 -39.5t35 -25.5t43 -9q53 0 86.5 34t33.5 91v260h75v-450h-55l-20 50q-14 -16 -33 -28q-17 -11 -41 -19t-56 -8z" />
    <glyph glyph-name="v" unicode="v" horiz-adv-x="450" 
d="M440 450l-180 -450h-70l-180 450h80l135 -345l135 345h80z" />
    <glyph glyph-name="w" unicode="w" horiz-adv-x="640" 
d="M220 0h-60l-150 450h80l105 -320l100 320h50l100 -320l105 320h80l-150 -450h-60l-100 320z" />
    <glyph glyph-name="x" unicode="x" horiz-adv-x="410" 
d="M250 230l160 -230h-85l-120 175l-120 -175h-85l160 230l-150 220h85l110 -165l110 165h85z" />
    <glyph glyph-name="y" unicode="y" horiz-adv-x="450" 
d="M10 450h80l135 -345l135 345h80l-195 -490q-27 -68 -56.5 -96.5t-73.5 -28.5q-6 0 -11 0.5t-10 1.5t-9 3v60q34 0 51 15t29 45l20 50z" />
    <glyph glyph-name="z" unicode="z" horiz-adv-x="380" 
d="M250 380h-220v70h310v-65l-220 -315h230v-70h-320v65z" />
    <glyph glyph-name="braceleft" unicode="{" horiz-adv-x="300" 
d="M45 255q55 0 55 55v195q0 60 33 92.5t97 32.5h50v-65h-52q-25 0 -41.5 -17t-16.5 -43v-195q0 -26 -9.5 -43t-20.5 -26q-13 -11 -30 -16q17 -5 30 -16q11 -10 20.5 -26.5t9.5 -42.5v-195q0 -26 16.5 -43t41.5 -17h52v-65h-50q-64 0 -97 32.5t-33 92.5v195q0 55 -55 55v60z
" />
    <glyph glyph-name="bar" unicode="|" horiz-adv-x="310" 
d="M190 -160h-70v790h70v-790z" />
    <glyph glyph-name="braceright" unicode="}" horiz-adv-x="300" 
d="M255 195q-55 0 -55 -55v-195q0 -60 -33 -92.5t-97 -32.5h-50v65h52q25 0 41.5 17t16.5 43v195q0 26 9.5 42.5t20.5 26.5q13 11 30 16q-17 5 -30 16q-11 9 -20.5 26t-9.5 43v195q0 26 -16.5 43t-41.5 17h-52v65h50q64 0 97 -32.5t33 -92.5v-195q0 -55 55 -55v-60z" />
    <glyph glyph-name="asciitilde" unicode="~" horiz-adv-x="440" 
d="M115 270q-23 0 -39 -17.5t-16 -47.5h-60q0 64 31 97t84 33q26 0 55 -11t57 -24t52 -24t41 -11q26 0 43 17.5t17 47.5h60q0 -64 -31.5 -97t-88.5 -33q-24 0 -52 11t-56 24t-53 24t-44 11z" />
    <glyph glyph-name="nonbreakingspace" unicode="&#xa0;" horiz-adv-x="215" 
 />
    <glyph glyph-name="exclamdown" unicode="&#xa1;" horiz-adv-x="260" 
d="M180 -160h-100l20 460h60zM80 405q0 23 13.5 36.5t36.5 13.5t36.5 -13.5t13.5 -36.5t-13.5 -36.5t-36.5 -13.5t-36.5 13.5t-13.5 36.5z" />
    <glyph glyph-name="cent" unicode="&#xa2;" horiz-adv-x="470" 
d="M245 385q-26 0 -50.5 -11.5t-43.5 -32.5t-30 -50.5t-11 -65.5t11 -65.5t30 -50.5t43.5 -32.5t50.5 -11.5q22 0 41.5 8t35 21t26.5 30t17 36h75q-15 -64 -55 -104.5t-100 -55.5v-90h-75v90q-36 6 -67.5 23.5t-55.5 46t-38 67.5t-14 88t14 88t38 67.5t55.5 46t67.5 23.5v90
h75v-90q60 -15 100 -55.5t55 -104.5h-75q-6 19 -17 36t-26.5 30t-35 21t-41.5 8z" />
    <glyph glyph-name="sterling" unicode="&#xa3;" horiz-adv-x="525" 
d="M190 140q0 -19 -6 -32.5t-14 -21.5q-9 -10 -20 -16h335v-70h-435v70q23 0 41.5 20t18.5 50v110h-55v70h55v130q0 37 15 71t41 59t61.5 40t77.5 15q37 0 71 -14.5t59.5 -39t41.5 -56t18 -65.5h-80q-4 45 -34.5 75t-75.5 30q-24 0 -45 -9t-36.5 -24.5t-24.5 -36.5t-9 -45
v-130h170v-70h-170v-110z" />
    <glyph glyph-name="currency" unicode="&#xa4;" horiz-adv-x="550" 
d="M25 320h75v310h210q43 0 79.5 -15t63.5 -40.5t42 -60.5t15 -74t-15 -74t-42 -60.5t-63.5 -40.5t-79.5 -15h-130v-80h190v-70h-190v-100h-80v100h-75v70h75v80h-75v70zM310 320q53 0 86.5 33.5t33.5 86.5t-33 86.5t-87 33.5h-130v-240h130z" />
    <glyph glyph-name="yen" unicode="&#xa5;" horiz-adv-x="510" 
d="M295 240v-65h134v-70h-134v-105h-80v105h-135v70h135v65h-135v70h100l-165 320h85l155 -300l155 300h85l-165 -320h100v-70h-135z" />
    <glyph glyph-name="brokenbar" unicode="&#xa6;" horiz-adv-x="320" 
d="M190 630v-310h-70v310h70zM120 150h80v-310h-80v310z" />
    <glyph glyph-name="section" unicode="&#xa7;" horiz-adv-x="470" 
d="M425 245q0 -36 -16.5 -60.5t-36.5 -40.5q-23 -18 -52 -29q20 -7 37 -20q14 -11 26 -30.5t12 -49.5q0 -26 -11.5 -50.5t-32 -43.5t-49 -30t-62.5 -11q-68 0 -110 40t-50 100h70q4 -30 28 -52.5t62 -22.5q42 0 63.5 20t21.5 50q0 28 -20.5 44t-52 28.5t-67.5 24.5
t-67.5 30.5t-52 47.5t-20.5 75q0 35 16 60.5t36 42.5q23 19 53 32q-19 7 -33 21q-12 12 -22 32t-10 52q0 24 11.5 47.5t31 42t46 29.5t56.5 11q68 0 107.5 -36.5t47.5 -93.5h-70q-4 26 -25.5 45.5t-59.5 19.5q-34 0 -54.5 -19.5t-20.5 -45.5q0 -29 20 -46.5t50 -31t65 -26.5
t65 -32t50 -48.5t20 -75.5zM120 265q0 -21 6 -36.5t21 -28t40 -23.5t63 -22q28 6 50 17q19 10 34.5 27t15.5 46q0 21 -6.5 37t-21.5 29.5t-40 25.5t-62 23q-28 -7 -50 -19q-19 -11 -34.5 -29.5t-15.5 -46.5z" />
    <glyph glyph-name="dieresis" unicode="&#xa8;" horiz-adv-x="300" 
d="M75 535q-19 0 -32 13t-13 32t13 32t32 13t32 -13t13 -32t-13 -32t-32 -13zM225 535q-19 0 -32 13t-13 32t13 32t32 13t32 -13t13 -32t-13 -32t-32 -13z" />
    <glyph glyph-name="copyright" unicode="&#xa9;" horiz-adv-x="690" 
d="M100 315q0 -56 20 -104.5t53.5 -84t78 -56t93.5 -20.5t93 20.5t78 56t54 84t20 104.5t-20 104.5t-54 84t-78 56t-93 20.5t-93.5 -20.5t-78 -56t-53.5 -84t-20 -104.5zM250 315q0 -26 8 -47t21.5 -36t30.5 -23.5t35 -8.5q38 0 57.5 17t27.5 43h60q-6 -23 -18.5 -43.5
t-31 -36.5t-41.5 -25.5t-49 -9.5q-30 0 -58 13t-49.5 36t-34.5 54t-13 67t13 67t34.5 54t49.5 36t58 13q26 0 49 -9.5t41.5 -25.5t31 -37t18.5 -43h-60q-8 26 -27.5 43t-57.5 17q-18 0 -35 -8.5t-30.5 -23.5t-21.5 -36t-8 -47zM650 315q0 -68 -24.5 -126t-66 -101.5t-97 -68
t-117.5 -24.5t-117.5 24.5t-97 68t-66 101.5t-24.5 126q0 67 24.5 125.5t66 102t97 68t117.5 24.5t117.5 -24.5t97 -68t66 -102t24.5 -125.5z" />
    <glyph glyph-name="ordfeminine" unicode="&#xaa;" horiz-adv-x="280" 
d="M145 635q22 0 41.5 -8t33.5 -21t22 -30t8 -36v-160h-40l-10 30q-8 -10 -19 -18q-10 -7 -23.5 -12t-32.5 -5q-41 0 -65.5 20.5t-24.5 49.5q0 21 7.5 37.5t25.5 28t49 18t78 6.5v5q0 19 -13.5 32t-36.5 13t-34.5 -9.5t-15.5 -20.5h-50q0 30 27.5 55t72.5 25zM195 495
q-34 0 -55.5 -3.5t-33.5 -9t-16.5 -13t-4.5 -14.5q0 -15 12 -25t38 -10t43 17t17 43v15z" />
    <glyph glyph-name="guillemotleft" unicode="&#xab;" horiz-adv-x="440" 
d="M220 65h-75l-110 160l110 160h75l-110 -160zM405 65h-75l-110 160l110 160h75l-110 -160z" />
    <glyph glyph-name="logicalnot" unicode="&#xac;" horiz-adv-x="440" 
d="M425 380v-200h-70v135h-340v65h410z" />
    <glyph glyph-name="uni00AD" unicode="&#xad;" horiz-adv-x="345" 
d="M310 225h-275v65h275v-65z" />
    <glyph glyph-name="registered" unicode="&#xae;" horiz-adv-x="690" 
d="M465 375q0 -29 -12 -47t-26 -29q-17 -12 -37 -19l85 -130h-60l-80 120h-40v-120h-55v330h115q22 0 42 -8.5t35 -23t24 -33.5t9 -40zM355 320q23 0 39 16t16 39t-16 39t-39 16h-60v-110h60zM100 315q0 -56 20 -104.5t53.5 -84t78 -56t93.5 -20.5t93 20.5t78 56t54 84
t20 104.5t-20 104.5t-54 84t-78 56t-93 20.5t-93.5 -20.5t-78 -56t-53.5 -84t-20 -104.5zM650 315q0 -68 -24.5 -126t-66 -101.5t-97 -68t-117.5 -24.5t-117.5 24.5t-97 68t-66 101.5t-24.5 126q0 67 24.5 125.5t66 102t97 68t117.5 24.5t117.5 -24.5t97 -68t66 -102
t24.5 -125.5z" />
    <glyph glyph-name="macron" unicode="&#xaf;" horiz-adv-x="300" 
d="M270 540h-240v60h240v-60z" />
    <glyph glyph-name="degree" unicode="&#xb0;" horiz-adv-x="310" 
d="M95 515q0 -13 5 -25t13.5 -21t19.5 -14t22 -5t22 5t19.5 14t13.5 21t5 25t-5 25t-13.5 21t-19.5 14t-22 5t-22 -5t-19.5 -14t-13.5 -21t-5 -25zM275 515q0 -24 -9.5 -46t-26 -38.5t-38.5 -26t-46 -9.5t-46 9.5t-38.5 26t-26 38.5t-9.5 46t9.5 46t26 38.5t38.5 26t46 9.5
t46 -9.5t38.5 -26t26 -38.5t9.5 -46z" />
    <glyph glyph-name="plusminus" unicode="&#xb1;" horiz-adv-x="440" 
d="M30 30v65h155v170h-155v65h155v165h70v-165h155v-65h-155v-170h155v-65h-380z" />
    <glyph glyph-name="twosuperior" unicode="&#xb2;" horiz-adv-x="255" 
d="M107 480h118v-50h-195v40l110 115q11 11 20.5 23.5t9.5 26.5q0 40 -45 40t-45 -45h-50q0 42 26.5 68.5t68.5 26.5q45 0 72.5 -26t27.5 -64q0 -23 -11 -37.5t-19 -22.5z" />
    <glyph glyph-name="threesuperior" unicode="&#xb3;" horiz-adv-x="265" 
d="M195 585q11 -4 20 -14q8 -8 14 -22t6 -34q0 -38 -27.5 -64t-72.5 -26q-49 0 -77 26.5t-28 68.5h50q0 -18 13.5 -31.5t36.5 -13.5t36.5 12.5t13.5 27.5q0 19 -13.5 32t-36.5 13h-26v45h26q19 0 29.5 10t10.5 25t-10.5 25t-29.5 10q-45 0 -45 -40h-50q0 38 26.5 64t68.5 26
t68.5 -25.5t26.5 -59.5q0 -15 -5 -25.5t-10 -17.5q-7 -8 -15 -12z" />
    <glyph glyph-name="acute" unicode="&#xb4;" horiz-adv-x="195" 
d="M90 630h75l-85 -120h-50z" />
    <glyph glyph-name="mu" unicode="&#xb5;" horiz-adv-x="510" 
d="M240 -5q-26 0 -45.5 6.5t-32.5 14t-20 14l-7 6.5v-196h-70v610h75v-260q0 -28 8.5 -51t23.5 -39.5t35 -25.5t43 -9q53 0 86.5 34t33.5 91v260h75v-450h-55l-20 50q-14 -16 -33 -28q-17 -11 -41 -19t-56 -8z" />
    <glyph glyph-name="paragraph" unicode="&#xb6;" horiz-adv-x="500" 
d="M425 630v-720h-65v653h-105v-653h-65v430q-30 0 -57 12t-48 32t-33 46t-12 54q0 29 12 55.5t33 46.5t48 32t57 12h235z" />
    <glyph glyph-name="periodcentered" unicode="&#xb7;" horiz-adv-x="215" 
d="M60 315q0 23 13.5 36.5t36.5 13.5t36.5 -13.5t13.5 -36.5t-13.5 -36.5t-36.5 -13.5t-36.5 13.5t-13.5 36.5z" />
    <glyph glyph-name="cedilla" unicode="&#xb8;" horiz-adv-x="195" 
d="M100 -40q30 -4 47.5 -21.5t17.5 -43.5t-22.5 -45.5t-67.5 -19.5q-10 0 -18 0.5t-14 1.5q-7 1 -13 3v40q5 -2 12 -3q5 -1 12.5 -1.5t15.5 -0.5q23 0 34 9.5t11 20.5t-11 20.5t-34 9.5q-6 0 -10.5 -1t-7.5 -2q-4 -1 -7 -2l31 75h44z" />
    <glyph glyph-name="onesuperior" unicode="&#xb9;" horiz-adv-x="205" 
d="M100 720h40v-290h-55v220l-40 -20l-25 40z" />
    <glyph glyph-name="ordmasculine" unicode="&#xba;" horiz-adv-x="310" 
d="M85 505q0 -15 6 -28.5t16 -24t22.5 -16.5t25.5 -6t25.5 6t22.5 16.5t16 24t6 28.5t-6 28.5t-16 24t-22.5 16.5t-25.5 6t-25.5 -6t-22.5 -16.5t-16 -24t-6 -28.5zM280 505q0 -26 -10.5 -49.5t-27.5 -41.5t-40 -28.5t-47 -10.5t-47 10.5t-40 28.5t-27.5 41.5t-10.5 49.5
t10.5 49.5t27.5 41.5t40 28.5t47 10.5t47 -10.5t40 -28.5t27.5 -41.5t10.5 -49.5z" />
    <glyph glyph-name="guillemotright" unicode="&#xbb;" horiz-adv-x="440" 
d="M330 225l-110 160h75l110 -160l-110 -160h-75zM145 225l-110 160h75l110 -160l-110 -160h-75z" />
    <glyph glyph-name="onequarter" unicode="&#xbc;" horiz-adv-x="555" 
d="M100 630h40v-290h-55v220l-40 -20l-25 40zM490 105h35v-50h-35v-55h-55v55h-125v40l120 195h60v-185zM435 105v105l-65 -105h65zM45 0l385 630h65l-385 -630h-65z" />
    <glyph glyph-name="onehalf" unicode="&#xbd;" horiz-adv-x="575" 
d="M100 630h40v-290h-55v220l-40 -20l-25 40zM427 50h118v-50h-195v40l110 115q11 11 20.5 23.5t9.5 26.5q0 40 -45 40t-45 -45h-50q0 42 26.5 68.5t68.5 26.5q45 0 72.5 -26t27.5 -64q0 -23 -11 -37.5t-19 -22.5zM45 0l385 630h65l-385 -630h-65z" />
    <glyph glyph-name="threequarters" unicode="&#xbe;" horiz-adv-x="615" 
d="M195 495q11 -4 20 -14q8 -8 14 -22t6 -34q0 -38 -27.5 -64t-72.5 -26q-49 0 -77 26.5t-28 68.5h50q0 -18 13.5 -31.5t36.5 -13.5t36.5 12.5t13.5 27.5q0 19 -13.5 32t-36.5 13h-26v45h26q19 0 29.5 10t10.5 25t-10.5 25t-29.5 10q-45 0 -45 -40h-50q0 38 26.5 64t68.5 26
t68.5 -25.5t26.5 -59.5q0 -15 -5 -25.5t-10 -17.5q-7 -8 -15 -12zM550 105h35v-50h-35v-55h-55v55h-125v40l120 195h60v-185zM495 105v105l-65 -105h65zM105 0l385 630h65l-385 -630h-65z" />
    <glyph glyph-name="questiondown" unicode="&#xbf;" horiz-adv-x="430" 
d="M40 1q0 40 10.5 65.5t27 44.5t35 34t35 34t27 45t10.5 66v5h80v-5q0 -47 -10.5 -78t-27 -52.5t-35 -37t-35 -31.5t-27 -37t-10.5 -53q0 -19 6.5 -36.5t18.5 -30.5t29.5 -21t40.5 -8q49 0 77 30.5t28 94.5v10h80v-10q0 -94 -51 -144.5t-134 -50.5q-39 0 -71.5 13
t-55.5 35.5t-35.5 53t-12.5 64.5zM275 405q0 -23 -13.5 -36.5t-36.5 -13.5t-36.5 13.5t-13.5 36.5t13.5 36.5t36.5 13.5t36.5 -13.5t13.5 -36.5z" />
    <glyph glyph-name="Agrave" unicode="&#xc0;" horiz-adv-x="550" 
d="M405 155h-260l-60 -155h-85l240 630h70l240 -630h-85zM170 225h210l-105 275zM290 705h-50l-85 120h75z" />
    <glyph glyph-name="Aacute" unicode="&#xc1;" horiz-adv-x="550" 
d="M405 155h-260l-60 -155h-85l240 630h70l240 -630h-85zM170 225h210l-105 275zM315 825h75l-85 -120h-50z" />
    <glyph glyph-name="Acircumflex" unicode="&#xc2;" horiz-adv-x="550" 
d="M405 155h-260l-60 -155h-85l240 630h70l240 -630h-85zM170 225h210l-105 275zM400 700h-75l-50 70l-50 -70h-75l90 120h70z" />
    <glyph glyph-name="Atilde" unicode="&#xc3;" horiz-adv-x="550" 
d="M405 155h-260l-60 -155h-85l240 630h70l240 -630h-85zM170 225h210l-105 275zM330 745q15 0 27.5 15t12.5 45h45q0 -57 -25.5 -86t-59.5 -29q-23 0 -38 10t-26.5 22.5t-22 22.5t-23.5 10q-15 0 -27.5 -15t-12.5 -45h-45q0 57 25.5 86t59.5 29q22 0 37.5 -10t27 -22.5
t22 -22.5t23.5 -10z" />
    <glyph glyph-name="Adieresis" unicode="&#xc4;" horiz-adv-x="550" 
d="M405 155h-260l-60 -155h-85l240 630h70l240 -630h-85zM170 225h210l-105 275zM200 715q-19 0 -32 13t-13 32t13 32t32 13t32 -13t13 -32t-13 -32t-32 -13zM350 715q-19 0 -32 13t-13 32t13 32t32 13t32 -13t13 -32t-13 -32t-32 -13z" />
    <glyph glyph-name="Aring" unicode="&#xc5;" horiz-adv-x="550" 
d="M405 155h-260l-60 -155h-85l240 630h70l240 -630h-85zM170 225h210l-105 275zM240 765q0 -15 10 -25t25 -10t25 10t10 25t-10 25t-25 10t-25 -10t-10 -25zM355 765q0 -34 -23 -57t-57 -23t-57 23t-23 57t23 57t57 23t57 -23t23 -57z" />
    <glyph glyph-name="AE" unicode="&#xc6;" horiz-adv-x="805" 
d="M755 70v-70h-370v160h-235l-90 -160h-90l355 630h420v-70h-280v-200h255v-70h-255v-220h290zM190 230h195v330h-10z" />
    <glyph glyph-name="Ccedilla" unicode="&#xc7;" horiz-adv-x="635" 
d="M335 565q-41 0 -80 -18.5t-69 -52t-48 -79.5t-18 -100t18 -100t48 -79.5t69 -52t80 -18.5q37 0 68 11.5t54.5 31t39 46t23.5 56.5h85q-13 -45 -36.5 -83.5t-55.5 -67t-73 -45.5t-90 -19l-15 -35q30 -4 47.5 -21.5t17.5 -43.5t-22.5 -45.5t-67.5 -19.5q-10 0 -18 0.5
t-14 1.5q-7 1 -13 3v40q5 -2 12 -3q5 -1 12.5 -1.5t15.5 -0.5q23 0 34 9.5t11 20.5t-11 20.5t-34 9.5q-6 0 -10.5 -1t-7.5 -2q-4 -1 -7 -2l30 70q-53 6 -101.5 32t-86 68t-60 98t-22.5 122q0 67 24.5 125.5t65 102t94 68t111.5 24.5q51 0 93.5 -16.5t76.5 -46t58 -68.5
t37 -84h-85q-8 30 -23.5 56.5t-38.5 46t-52.5 31t-65.5 11.5z" />
    <glyph glyph-name="Egrave" unicode="&#xc8;" horiz-adv-x="540" 
d="M490 70v-70h-410v630h400v-70h-320v-200h295v-70h-295v-220h330zM320 705h-50l-85 120h75z" />
    <glyph glyph-name="Eacute" unicode="&#xc9;" horiz-adv-x="540" 
d="M490 70v-70h-410v630h400v-70h-320v-200h295v-70h-295v-220h330zM310 825h75l-85 -120h-50z" />
    <glyph glyph-name="Ecircumflex" unicode="&#xca;" horiz-adv-x="540" 
d="M490 70v-70h-410v630h400v-70h-320v-200h295v-70h-295v-220h330zM405 700h-75l-50 70l-50 -70h-75l90 120h70z" />
    <glyph glyph-name="Edieresis" unicode="&#xcb;" horiz-adv-x="540" 
d="M490 70v-70h-410v630h400v-70h-320v-200h295v-70h-295v-220h330zM205 715q-19 0 -32 13t-13 32t13 32t32 13t32 -13t13 -32t-13 -32t-32 -13zM355 715q-19 0 -32 13t-13 32t13 32t32 13t32 -13t13 -32t-13 -32t-32 -13z" />
    <glyph glyph-name="Igrave" unicode="&#xcc;" horiz-adv-x="240" 
d="M160 0h-80v630h80v-630zM140 705h-50l-85 120h75z" />
    <glyph glyph-name="Iacute" unicode="&#xcd;" horiz-adv-x="240" 
d="M160 0h-80v630h80v-630zM155 825h75l-85 -120h-50z" />
    <glyph glyph-name="Icircumflex" unicode="&#xce;" horiz-adv-x="240" 
d="M160 0h-80v630h80v-630zM245 700h-75l-50 70l-50 -70h-75l90 120h70z" />
    <glyph glyph-name="Idieresis" unicode="&#xcf;" horiz-adv-x="240" 
d="M160 0h-80v630h80v-630zM50 715q-19 0 -32 13t-13 32t13 32t32 13t32 -13t13 -32t-13 -32t-32 -13zM200 715q-19 0 -32 13t-13 32t13 32t32 13t32 -13t13 -32t-13 -32t-32 -13z" />
    <glyph glyph-name="Eth" unicode="&#xd0;" horiz-adv-x="620" 
d="M580 315q0 -68 -23.5 -125.5t-64.5 -99.5t-95.5 -66t-116.5 -24h-175v275h-90v70h90v285h175q62 0 116.5 -24t95.5 -66t64.5 -100t23.5 -125zM280 70q43 0 83 18.5t70.5 51.5t48.5 77.5t18 97.5q0 52 -18 97t-48.5 78t-70.5 51.5t-83 18.5h-95v-215h120v-70h-120v-205h95
z" />
    <glyph glyph-name="Ntilde" unicode="&#xd1;" horiz-adv-x="625" 
d="M545 630v-630h-70l-315 475v-475h-80v630h70l315 -475v475h80zM370 755q15 0 27.5 15t12.5 45h45q0 -57 -25.5 -86t-59.5 -29q-23 0 -38 10t-26.5 22.5t-22 22.5t-23.5 10q-15 0 -27.5 -15t-12.5 -45h-45q0 57 25.5 86t59.5 29q22 0 37.5 -10t27 -22.5t22 -22.5t23.5 -10
z" />
    <glyph glyph-name="Ograve" unicode="&#xd2;" horiz-adv-x="660" 
d="M115 315q0 -54 18 -100t48 -79.5t69 -52t80 -18.5t80 18.5t69 52t48 79.5t18 100t-18 100t-48 79.5t-69 52t-80 18.5t-80 -18.5t-69 -52t-48 -79.5t-18 -100zM625 315q0 -68 -24.5 -126t-65 -101.5t-94 -68t-111.5 -24.5t-111.5 24.5t-94 68t-65 101.5t-24.5 126
q0 67 24.5 125.5t65 102t94 68t111.5 24.5t111.5 -24.5t94 -68t65 -102t24.5 -125.5zM355 705h-50l-85 120h75z" />
    <glyph glyph-name="Oacute" unicode="&#xd3;" horiz-adv-x="660" 
d="M115 315q0 -54 18 -100t48 -79.5t69 -52t80 -18.5t80 18.5t69 52t48 79.5t18 100t-18 100t-48 79.5t-69 52t-80 18.5t-80 -18.5t-69 -52t-48 -79.5t-18 -100zM625 315q0 -68 -24.5 -126t-65 -101.5t-94 -68t-111.5 -24.5t-111.5 24.5t-94 68t-65 101.5t-24.5 126
q0 67 24.5 125.5t65 102t94 68t111.5 24.5t111.5 -24.5t94 -68t65 -102t24.5 -125.5zM365 825h75l-85 -120h-50z" />
    <glyph glyph-name="Ocircumflex" unicode="&#xd4;" horiz-adv-x="660" 
d="M115 315q0 -54 18 -100t48 -79.5t69 -52t80 -18.5t80 18.5t69 52t48 79.5t18 100t-18 100t-48 79.5t-69 52t-80 18.5t-80 -18.5t-69 -52t-48 -79.5t-18 -100zM625 315q0 -68 -24.5 -126t-65 -101.5t-94 -68t-111.5 -24.5t-111.5 24.5t-94 68t-65 101.5t-24.5 126
q0 67 24.5 125.5t65 102t94 68t111.5 24.5t111.5 -24.5t94 -68t65 -102t24.5 -125.5zM455 700h-75l-50 70l-50 -70h-75l90 120h70z" />
    <glyph glyph-name="Otilde" unicode="&#xd5;" horiz-adv-x="660" 
d="M115 315q0 -54 18 -100t48 -79.5t69 -52t80 -18.5t80 18.5t69 52t48 79.5t18 100t-18 100t-48 79.5t-69 52t-80 18.5t-80 -18.5t-69 -52t-48 -79.5t-18 -100zM625 315q0 -68 -24.5 -126t-65 -101.5t-94 -68t-111.5 -24.5t-111.5 24.5t-94 68t-65 101.5t-24.5 126
q0 67 24.5 125.5t65 102t94 68t111.5 24.5t111.5 -24.5t94 -68t65 -102t24.5 -125.5zM385 755q15 0 27.5 15t12.5 45h45q0 -57 -25.5 -86t-59.5 -29q-23 0 -38 10t-26.5 22.5t-22 22.5t-23.5 10q-15 0 -27.5 -15t-12.5 -45h-45q0 57 25.5 86t59.5 29q22 0 37.5 -10t27 -22.5
t22 -22.5t23.5 -10z" />
    <glyph glyph-name="Odieresis" unicode="&#xd6;" horiz-adv-x="660" 
d="M115 315q0 -54 18 -100t48 -79.5t69 -52t80 -18.5t80 18.5t69 52t48 79.5t18 100t-18 100t-48 79.5t-69 52t-80 18.5t-80 -18.5t-69 -52t-48 -79.5t-18 -100zM625 315q0 -68 -24.5 -126t-65 -101.5t-94 -68t-111.5 -24.5t-111.5 24.5t-94 68t-65 101.5t-24.5 126
q0 67 24.5 125.5t65 102t94 68t111.5 24.5t111.5 -24.5t94 -68t65 -102t24.5 -125.5zM255 715q-19 0 -32 13t-13 32t13 32t32 13t32 -13t13 -32t-13 -32t-32 -13zM405 715q-19 0 -32 13t-13 32t13 32t32 13t32 -13t13 -32t-13 -32t-32 -13z" />
    <glyph glyph-name="multiply" unicode="&#xd7;" horiz-adv-x="440" 
d="M380 139l-45 -45l-115 115l-115 -115l-45 45l115 115l-115 115l45 45l115 -115l115 115l45 -45l-115 -115z" />
    <glyph glyph-name="Oslash" unicode="&#xd8;" horiz-adv-x="670" 
d="M475 505q-15 17 -36 30q-18 11 -44 20.5t-60 9.5q-41 0 -80 -18.5t-69 -52t-48 -79.5t-18 -100q0 -30 4.5 -54t10.5 -41q6 -20 15 -35zM630 315q0 -68 -24.5 -126t-65 -101.5t-94 -68t-111.5 -24.5q-48 0 -83.5 12.5t-60.5 27.5q-29 18 -51 40l-70 -65l-50 50l75 70
q-16 22 -28 51q-11 24 -19 58t-8 76q0 67 24.5 125.5t65 102t94 68t111.5 24.5q47 0 83 -12.5t61 -27.5q29 -18 51 -40l70 65l50 -50l-75 -70q15 -23 27 -51q11 -25 19.5 -58.5t8.5 -75.5zM195 125q15 -17 36 -30q18 -11 44 -20.5t60 -9.5q41 0 80 18.5t69 52t48 79.5
t18 100q0 30 -5 54t-10 41q-7 19 -15 35z" />
    <glyph glyph-name="Ugrave" unicode="&#xd9;" horiz-adv-x="600" 
d="M300 -5q-51 0 -93 17t-72.5 47t-47.5 71t-17 90v410h80v-410q0 -72 41 -113.5t109 -41.5t109 41.5t41 113.5v410h80v-410q0 -49 -17 -90t-47.5 -71t-72.5 -47t-93 -17zM335 705h-50l-85 120h75z" />
    <glyph glyph-name="Uacute" unicode="&#xda;" horiz-adv-x="600" 
d="M300 -5q-51 0 -93 17t-72.5 47t-47.5 71t-17 90v410h80v-410q0 -72 41 -113.5t109 -41.5t109 41.5t41 113.5v410h80v-410q0 -49 -17 -90t-47.5 -71t-72.5 -47t-93 -17zM325 825h75l-85 -120h-50z" />
    <glyph glyph-name="Ucircumflex" unicode="&#xdb;" horiz-adv-x="600" 
d="M300 -5q-51 0 -93 17t-72.5 47t-47.5 71t-17 90v410h80v-410q0 -72 41 -113.5t109 -41.5t109 41.5t41 113.5v410h80v-410q0 -49 -17 -90t-47.5 -71t-72.5 -47t-93 -17zM420 700h-75l-50 70l-50 -70h-75l90 120h70z" />
    <glyph glyph-name="Udieresis" unicode="&#xdc;" horiz-adv-x="600" 
d="M300 -5q-51 0 -93 17t-72.5 47t-47.5 71t-17 90v410h80v-410q0 -72 41 -113.5t109 -41.5t109 41.5t41 113.5v410h80v-410q0 -49 -17 -90t-47.5 -71t-72.5 -47t-93 -17zM225 715q-19 0 -32 13t-13 32t13 32t32 13t32 -13t13 -32t-13 -32t-32 -13zM375 715q-19 0 -32 13
t-13 32t13 32t32 13t32 -13t13 -32t-13 -32t-32 -13z" />
    <glyph glyph-name="Yacute" unicode="&#xdd;" horiz-adv-x="500" 
d="M10 630h85l155 -300l155 300h85l-200 -385v-245h-80v245zM290 825h75l-85 -120h-50z" />
    <glyph glyph-name="Thorn" unicode="&#xde;" horiz-adv-x="585" 
d="M160 630v-110h180q41 0 77.5 -15.5t63.5 -42t43 -61t16 -71.5q0 -38 -16 -72t-43 -60.5t-63.5 -42t-77.5 -15.5h-180v-140h-80v630h80zM340 210q24 0 46 9.5t38.5 26t26 38.5t9.5 46t-9.5 46t-26 38.5t-38.5 26t-46 9.5h-180v-240h180z" />
    <glyph glyph-name="germandbls" unicode="&#xdf;" horiz-adv-x="510" 
d="M365 335q29 -12 52 -33q20 -18 36.5 -49t16.5 -78q0 -38 -13 -70t-36 -55t-54 -36.5t-67 -13.5h-50v65h50q41 0 68 30.5t27 79.5q0 53 -26.5 81.5t-68.5 28.5h-50v65q42 0 71 30.5t29 79.5t-29 79.5t-71 30.5q-21 0 -40 -8.5t-33.5 -23t-23 -33.5t-8.5 -40v-465h-75v465
q0 34 14 64.5t38.5 54t57 37.5t70.5 14q37 0 69.5 -13.5t55.5 -36.5t36.5 -55.5t13.5 -69.5q0 -34 -9.5 -57.5t-20.5 -38.5q-13 -18 -30 -29z" />
    <glyph glyph-name="agrave" unicode="&#xe0;" horiz-adv-x="465" 
d="M235 455q37 0 68.5 -12.5t54 -33.5t35 -49t12.5 -60v-300h-55l-20 50q-15 -16 -34 -28q-17 -11 -42 -19t-59 -8t-61.5 10.5t-47 29t-30.5 43t-11 52.5q0 32 13 58.5t45 46t87.5 30t139.5 10.5v25q0 34 -26.5 59.5t-68.5 25.5t-62 -17.5t-28 -47.5h-80q4 28 17 52.5
t34.5 43t51 29t67.5 10.5zM195 65q30 0 55 9.5t42.5 24.5t27.5 33.5t10 37.5v35q-68 0 -109 -5.5t-63.5 -16t-30 -25t-7.5 -33.5q0 -23 20.5 -41.5t54.5 -18.5zM265 524h-50l-85 120h75z" />
    <glyph glyph-name="aacute" unicode="&#xe1;" horiz-adv-x="465" 
d="M235 455q37 0 68.5 -12.5t54 -33.5t35 -49t12.5 -60v-300h-55l-20 50q-15 -16 -34 -28q-17 -11 -42 -19t-59 -8t-61.5 10.5t-47 29t-30.5 43t-11 52.5q0 32 13 58.5t45 46t87.5 30t139.5 10.5v25q0 34 -26.5 59.5t-68.5 25.5t-62 -17.5t-28 -47.5h-80q4 28 17 52.5
t34.5 43t51 29t67.5 10.5zM195 65q30 0 55 9.5t42.5 24.5t27.5 33.5t10 37.5v35q-68 0 -109 -5.5t-63.5 -16t-30 -25t-7.5 -33.5q0 -23 20.5 -41.5t54.5 -18.5zM275 644h75l-85 -120h-50z" />
    <glyph glyph-name="acircumflex" unicode="&#xe2;" horiz-adv-x="465" 
d="M235 455q37 0 68.5 -12.5t54 -33.5t35 -49t12.5 -60v-300h-55l-20 50q-15 -16 -34 -28q-17 -11 -42 -19t-59 -8t-61.5 10.5t-47 29t-30.5 43t-11 52.5q0 32 13 58.5t45 46t87.5 30t139.5 10.5v25q0 34 -26.5 59.5t-68.5 25.5t-62 -17.5t-28 -47.5h-80q4 28 17 52.5
t34.5 43t51 29t67.5 10.5zM195 65q30 0 55 9.5t42.5 24.5t27.5 33.5t10 37.5v35q-68 0 -109 -5.5t-63.5 -16t-30 -25t-7.5 -33.5q0 -23 20.5 -41.5t54.5 -18.5zM365 520h-75l-50 70l-50 -70h-75l90 120h70z" />
    <glyph glyph-name="atilde" unicode="&#xe3;" horiz-adv-x="465" 
d="M235 455q37 0 68.5 -12.5t54 -33.5t35 -49t12.5 -60v-300h-55l-20 50q-15 -16 -34 -28q-17 -11 -42 -19t-59 -8t-61.5 10.5t-47 29t-30.5 43t-11 52.5q0 32 13 58.5t45 46t87.5 30t139.5 10.5v25q0 34 -26.5 59.5t-68.5 25.5t-62 -17.5t-28 -47.5h-80q4 28 17 52.5
t34.5 43t51 29t67.5 10.5zM195 65q30 0 55 9.5t42.5 24.5t27.5 33.5t10 37.5v35q-68 0 -109 -5.5t-63.5 -16t-30 -25t-7.5 -33.5q0 -23 20.5 -41.5t54.5 -18.5zM295 565q15 0 27.5 15t12.5 45h45q0 -57 -25.5 -86t-59.5 -29q-23 0 -38 10t-26.5 22.5t-22 22.5t-23.5 10
q-15 0 -27.5 -15t-12.5 -45h-45q0 57 25.5 86t59.5 29q22 0 37.5 -10t27 -22.5t22 -22.5t23.5 -10z" />
    <glyph glyph-name="adieresis" unicode="&#xe4;" horiz-adv-x="465" 
d="M235 455q37 0 68.5 -12.5t54 -33.5t35 -49t12.5 -60v-300h-55l-20 50q-15 -16 -34 -28q-17 -11 -42 -19t-59 -8t-61.5 10.5t-47 29t-30.5 43t-11 52.5q0 32 13 58.5t45 46t87.5 30t139.5 10.5v25q0 34 -26.5 59.5t-68.5 25.5t-62 -17.5t-28 -47.5h-80q4 28 17 52.5
t34.5 43t51 29t67.5 10.5zM195 65q30 0 55 9.5t42.5 24.5t27.5 33.5t10 37.5v35q-68 0 -109 -5.5t-63.5 -16t-30 -25t-7.5 -33.5q0 -23 20.5 -41.5t54.5 -18.5zM160 535q-19 0 -32 13t-13 32t13 32t32 13t32 -13t13 -32t-13 -32t-32 -13zM310 535q-19 0 -32 13t-13 32t13 32
t32 13t32 -13t13 -32t-13 -32t-32 -13z" />
    <glyph glyph-name="aring" unicode="&#xe5;" horiz-adv-x="465" 
d="M235 455q37 0 68.5 -12.5t54 -33.5t35 -49t12.5 -60v-300h-55l-20 50q-15 -16 -34 -28q-17 -11 -42 -19t-59 -8t-61.5 10.5t-47 29t-30.5 43t-11 52.5q0 32 13 58.5t45 46t87.5 30t139.5 10.5v25q0 34 -26.5 59.5t-68.5 25.5t-62 -17.5t-28 -47.5h-80q4 28 17 52.5
t34.5 43t51 29t67.5 10.5zM195 65q30 0 55 9.5t42.5 24.5t27.5 33.5t10 37.5v35q-68 0 -109 -5.5t-63.5 -16t-30 -25t-7.5 -33.5q0 -23 20.5 -41.5t54.5 -18.5zM205 590q0 -15 10 -25t25 -10t25 10t10 25t-10 25t-25 10t-25 -10t-10 -25zM320 590q0 -34 -23 -57t-57 -23
t-57 23t-23 57t23 57t57 23t57 -23t23 -57z" />
    <glyph glyph-name="ae" unicode="&#xe6;" horiz-adv-x="740" 
d="M695 120q-9 -24 -25 -47t-38 -40t-50 -27.5t-62 -10.5q-40 0 -68.5 14t-48.5 31q-23 19 -38 45q-17 -26 -42 -45q-21 -17 -53 -31t-75 -14q-34 0 -61.5 10.5t-47 27.5t-30.5 40t-11 47q0 32 12.5 58.5t44 46t84.5 30t134 10.5v35q0 34 -26 59.5t-64 25.5t-57.5 -17.5
t-27.5 -47.5h-80q4 28 17 52.5t34 43t49.5 29t64.5 10.5q35 0 62 -11t44 -24q20 -16 34 -35q16 19 37 35q18 13 45 24t63 11q39 0 74 -15.5t60.5 -44t40.5 -69t15 -91.5q0 -10 -1 -17t-2 -12q-1 -6 -2 -11h-300q2 -28 12.5 -52t27 -41t37 -27t43.5 -10q38 0 61 18t34 37h80z
M515 385q-21 0 -40.5 -9.5t-35.5 -26.5t-26.5 -40t-12.5 -49h225q-4 57 -36 91t-74 34zM195 65q28 0 51 8.5t39.5 23t25.5 33.5t9 40v25q-64 0 -103 -5.5t-60.5 -15t-29 -23.5t-7.5 -31q0 -19 20.5 -37t54.5 -18z" />
    <glyph glyph-name="ccedilla" unicode="&#xe7;" horiz-adv-x="470" 
d="M245 385q-26 0 -50.5 -11.5t-43.5 -32.5t-30 -50.5t-11 -65.5t11 -65.5t30 -50.5t43.5 -32.5t50.5 -11.5q22 0 41.5 8t35 21t26.5 30t17 36h75q-8 -34 -24 -63t-39 -51t-51.5 -35.5t-60.5 -15.5l-20 -35q30 -4 47.5 -21.5t17.5 -43.5t-22.5 -45.5t-67.5 -19.5
q-10 0 -18 0.5t-14 1.5q-7 1 -13 3v40q5 -2 12 -3q5 -1 12.5 -1.5t15.5 -0.5q23 0 34 9.5t11 20.5t-11 20.5t-34 9.5q-6 0 -10.5 -1t-7.5 -2q-4 -1 -7 -2l30 70q-38 6 -71.5 24t-58.5 47.5t-40 69.5t-15 89q0 51 16.5 93t45 72.5t67 47.5t81.5 17q37 0 69.5 -13t58 -35.5
t42.5 -52.5t25 -64h-75q-6 19 -17 36t-26.5 30t-35 21t-41.5 8z" />
    <glyph glyph-name="egrave" unicode="&#xe8;" horiz-adv-x="475" 
d="M430 120q-11 -24 -28 -47t-40 -40t-52 -27.5t-65 -10.5q-43 0 -81.5 17t-67 47.5t-45 72.5t-16.5 93t16.5 93t44.5 72.5t65.5 47.5t78.5 17t77.5 -16t63.5 -45.5t43 -71t16 -92.5q0 -10 -1 -17t-2 -12q-1 -6 -2 -11h-320q2 -24 13.5 -47t29 -40t40.5 -27.5t47 -10.5
q21 0 37.5 6t30 14t22.5 17.5t15 17.5h80zM240 385q-23 0 -43.5 -10t-37.5 -27t-28.5 -41t-15.5 -52h245q-8 60 -41.5 95t-78.5 35zM265 524h-50l-85 120h75z" />
    <glyph glyph-name="eacute" unicode="&#xe9;" horiz-adv-x="475" 
d="M430 120q-11 -24 -28 -47t-40 -40t-52 -27.5t-65 -10.5q-43 0 -81.5 17t-67 47.5t-45 72.5t-16.5 93t16.5 93t44.5 72.5t65.5 47.5t78.5 17t77.5 -16t63.5 -45.5t43 -71t16 -92.5q0 -10 -1 -17t-2 -12q-1 -6 -2 -11h-320q2 -24 13.5 -47t29 -40t40.5 -27.5t47 -10.5
q21 0 37.5 6t30 14t22.5 17.5t15 17.5h80zM240 385q-23 0 -43.5 -10t-37.5 -27t-28.5 -41t-15.5 -52h245q-8 60 -41.5 95t-78.5 35zM275 644h75l-85 -120h-50z" />
    <glyph glyph-name="ecircumflex" unicode="&#xea;" horiz-adv-x="475" 
d="M430 120q-11 -24 -28 -47t-40 -40t-52 -27.5t-65 -10.5q-43 0 -81.5 17t-67 47.5t-45 72.5t-16.5 93t16.5 93t44.5 72.5t65.5 47.5t78.5 17t77.5 -16t63.5 -45.5t43 -71t16 -92.5q0 -10 -1 -17t-2 -12q-1 -6 -2 -11h-320q2 -24 13.5 -47t29 -40t40.5 -27.5t47 -10.5
q21 0 37.5 6t30 14t22.5 17.5t15 17.5h80zM240 385q-23 0 -43.5 -10t-37.5 -27t-28.5 -41t-15.5 -52h245q-8 60 -41.5 95t-78.5 35zM365 520h-75l-50 70l-50 -70h-75l90 120h70z" />
    <glyph glyph-name="edieresis" unicode="&#xeb;" horiz-adv-x="475" 
d="M430 120q-11 -24 -28 -47t-40 -40t-52 -27.5t-65 -10.5q-43 0 -81.5 17t-67 47.5t-45 72.5t-16.5 93t16.5 93t44.5 72.5t65.5 47.5t78.5 17t77.5 -16t63.5 -45.5t43 -71t16 -92.5q0 -10 -1 -17t-2 -12q-1 -6 -2 -11h-320q2 -24 13.5 -47t29 -40t40.5 -27.5t47 -10.5
q21 0 37.5 6t30 14t22.5 17.5t15 17.5h80zM240 385q-23 0 -43.5 -10t-37.5 -27t-28.5 -41t-15.5 -52h245q-8 60 -41.5 95t-78.5 35zM165 535q-19 0 -32 13t-13 32t13 32t32 13t32 -13t13 -32t-13 -32t-32 -13zM315 535q-19 0 -32 13t-13 32t13 32t32 13t32 -13t13 -32
t-13 -32t-32 -13z" />
    <glyph glyph-name="igrave" unicode="&#xec;" horiz-adv-x="205" 
d="M140 0h-75v450h75v-450zM130 520h-50l-85 120h75z" />
    <glyph glyph-name="iacute" unicode="&#xed;" horiz-adv-x="205" 
d="M140 0h-75v450h75v-450zM135 640h75l-85 -120h-50z" />
    <glyph glyph-name="icircumflex" unicode="&#xee;" horiz-adv-x="205" 
d="M140 0h-75v450h75v-450zM225 520h-75l-50 70l-50 -70h-75l90 120h70z" />
    <glyph glyph-name="idieresis" unicode="&#xef;" horiz-adv-x="205" 
d="M140 0h-75v450h75v-450zM25 535q-19 0 -32 13t-13 32t13 32t32 13t32 -13t13 -32t-13 -32t-32 -13zM175 535q-19 0 -32 13t-13 32t13 32t32 13t32 -13t13 -32t-13 -32t-32 -13z" />
    <glyph glyph-name="eth" unicode="&#xf0;" horiz-adv-x="510" 
d="M340 585q35 -33 62 -81q23 -42 43 -104.5t20 -149.5q0 -60 -16 -107.5t-44.5 -80t-68 -50t-86.5 -17.5q-45 0 -84 17t-68.5 46.5t-46 69.5t-16.5 87t16.5 87t44.5 69.5t65.5 46.5t78.5 17q38 0 65 -9.5t45 -20.5q21 -13 35 -30q-8 39 -23.5 70.5t-31.5 53.5
q-18 26 -40 46l-90 -60l-35 50l75 50q-17 11 -35 19.5t-34 14.5q-18 6 -36 11l25 60q24 -8 49 -19q20 -9 43.5 -20.5t42.5 -25.5l80 55l35 -50zM250 65q28 0 53.5 11.5t44.5 31.5t30.5 47.5t11.5 59.5t-11.5 59.5t-30.5 47.5t-44.5 31.5t-53.5 11.5t-53.5 -11.5t-44.5 -31.5
t-30.5 -47.5t-11.5 -59.5t11.5 -59.5t30.5 -47.5t44.5 -31.5t53.5 -11.5z" />
    <glyph glyph-name="ntilde" unicode="&#xf1;" horiz-adv-x="505" 
d="M270 455q36 0 67.5 -14.5t55.5 -40t38 -61.5t14 -79v-260h-75v260q0 28 -9 51t-24 39.5t-35 25.5t-42 9q-53 0 -86.5 -34t-33.5 -91v-260h-75v450h55l20 -50q14 15 33 27q17 11 41 19.5t56 8.5zM315 575q15 0 27.5 15t12.5 45h45q0 -57 -25.5 -86t-59.5 -29q-23 0 -38 10
t-26.5 22.5t-22 22.5t-23.5 10q-15 0 -27.5 -15t-12.5 -45h-45q0 57 25.5 86t59.5 29q22 0 37.5 -10t27 -22.5t22 -22.5t23.5 -10z" />
    <glyph glyph-name="ograve" unicode="&#xf2;" 
d="M110 225q0 -36 11 -65.5t30 -50.5t43.5 -32.5t50.5 -11.5t50.5 11.5t43 32.5t30 50.5t11.5 65.5t-11.5 65.5t-30 50.5t-43 32.5t-50.5 11.5t-50.5 -11.5t-43.5 -32.5t-30 -50.5t-11 -65.5zM455 225q0 -51 -16.5 -93t-45 -72.5t-67 -47.5t-81.5 -17t-81.5 17t-67 47.5
t-45 72.5t-16.5 93t16.5 93t45 72.5t67 47.5t81.5 17t81.5 -17t67 -47.5t45 -72.5t16.5 -93zM275 520h-50l-85 120h75z" />
    <glyph glyph-name="oacute" unicode="&#xf3;" 
d="M110 225q0 -36 11 -65.5t30 -50.5t43.5 -32.5t50.5 -11.5t50.5 11.5t43 32.5t30 50.5t11.5 65.5t-11.5 65.5t-30 50.5t-43 32.5t-50.5 11.5t-50.5 -11.5t-43.5 -32.5t-30 -50.5t-11 -65.5zM455 225q0 -51 -16.5 -93t-45 -72.5t-67 -47.5t-81.5 -17t-81.5 17t-67 47.5
t-45 72.5t-16.5 93t16.5 93t45 72.5t67 47.5t81.5 17t81.5 -17t67 -47.5t45 -72.5t16.5 -93zM285 640h75l-85 -120h-50z" />
    <glyph glyph-name="ocircumflex" unicode="&#xf4;" 
d="M110 225q0 -36 11 -65.5t30 -50.5t43.5 -32.5t50.5 -11.5t50.5 11.5t43 32.5t30 50.5t11.5 65.5t-11.5 65.5t-30 50.5t-43 32.5t-50.5 11.5t-50.5 -11.5t-43.5 -32.5t-30 -50.5t-11 -65.5zM455 225q0 -51 -16.5 -93t-45 -72.5t-67 -47.5t-81.5 -17t-81.5 17t-67 47.5
t-45 72.5t-16.5 93t16.5 93t45 72.5t67 47.5t81.5 17t81.5 -17t67 -47.5t45 -72.5t16.5 -93zM370 520h-75l-50 70l-50 -70h-75l90 120h70z" />
    <glyph glyph-name="otilde" unicode="&#xf5;" 
d="M110 225q0 -36 11 -65.5t30 -50.5t43.5 -32.5t50.5 -11.5t50.5 11.5t43 32.5t30 50.5t11.5 65.5t-11.5 65.5t-30 50.5t-43 32.5t-50.5 11.5t-50.5 -11.5t-43.5 -32.5t-30 -50.5t-11 -65.5zM455 225q0 -51 -16.5 -93t-45 -72.5t-67 -47.5t-81.5 -17t-81.5 17t-67 47.5
t-45 72.5t-16.5 93t16.5 93t45 72.5t67 47.5t81.5 17t81.5 -17t67 -47.5t45 -72.5t16.5 -93zM300 565q15 0 27.5 15t12.5 45h45q0 -57 -25.5 -86t-59.5 -29q-23 0 -38 10t-26.5 22.5t-22 22.5t-23.5 10q-15 0 -27.5 -15t-12.5 -45h-45q0 57 25.5 86t59.5 29q22 0 37.5 -10
t27 -22.5t22 -22.5t23.5 -10z" />
    <glyph glyph-name="odieresis" unicode="&#xf6;" 
d="M110 225q0 -36 11 -65.5t30 -50.5t43.5 -32.5t50.5 -11.5t50.5 11.5t43 32.5t30 50.5t11.5 65.5t-11.5 65.5t-30 50.5t-43 32.5t-50.5 11.5t-50.5 -11.5t-43.5 -32.5t-30 -50.5t-11 -65.5zM455 225q0 -51 -16.5 -93t-45 -72.5t-67 -47.5t-81.5 -17t-81.5 17t-67 47.5
t-45 72.5t-16.5 93t16.5 93t45 72.5t67 47.5t81.5 17t81.5 -17t67 -47.5t45 -72.5t16.5 -93zM170 535q-19 0 -32 13t-13 32t13 32t32 13t32 -13t13 -32t-13 -32t-32 -13zM320 535q-19 0 -32 13t-13 32t13 32t32 13t32 -13t13 -32t-13 -32t-32 -13z" />
    <glyph glyph-name="divide" unicode="&#xf7;" horiz-adv-x="440" 
d="M405 225h-370v65h370v-65zM220 370q-23 0 -36.5 13.5t-13.5 36.5t13.5 36.5t36.5 13.5t36.5 -13.5t13.5 -36.5t-13.5 -36.5t-36.5 -13.5zM220 145q23 0 36.5 -13.5t13.5 -36.5t-13.5 -36.5t-36.5 -13.5t-36.5 13.5t-13.5 36.5t13.5 36.5t36.5 13.5z" />
    <glyph glyph-name="oslash" unicode="&#xf8;" horiz-adv-x="510" 
d="M340 350q-11 9 -24 17q-11 7 -26.5 12.5t-34.5 5.5q-26 0 -50.5 -11.5t-43.5 -32.5t-30 -50.5t-11 -65.5q0 -14 2 -26t5 -22l8 -22zM465 225q0 -51 -16.5 -93t-45 -72.5t-67 -47.5t-81.5 -17q-34 0 -60 8t-44 19q-21 12 -36 28l-50 -50l-45 50l55 50q-9 15 -15 34
q-6 17 -10.5 39.5t-4.5 51.5q0 51 16.5 93t45 72.5t67 47.5t81.5 17q34 0 60 -8.5t44 -19.5q21 -12 36 -27l50 50l45 -50l-55 -50q8 -15 15 -34q5 -17 10 -40t5 -51zM170 100q11 -10 24 -18q11 -7 26.5 -12t34.5 -5q26 0 50.5 11.5t43 32.5t30 50.5t11.5 65.5
q0 13 -2.5 25.5t-5.5 22.5q-4 11 -7 22z" />
    <glyph glyph-name="ugrave" unicode="&#xf9;" horiz-adv-x="505" 
d="M240 -5q-36 0 -67.5 14.5t-55.5 40t-38 61.5t-14 79v260h75v-260q0 -28 8.5 -51t23.5 -39.5t35 -25.5t43 -9q53 0 86.5 34t33.5 91v260h75v-450h-55l-20 50q-14 -16 -33 -28q-17 -11 -41 -19t-56 -8zM295 524h-50l-85 120h75z" />
    <glyph glyph-name="uacute" unicode="&#xfa;" horiz-adv-x="505" 
d="M240 -5q-36 0 -67.5 14.5t-55.5 40t-38 61.5t-14 79v260h75v-260q0 -28 8.5 -51t23.5 -39.5t35 -25.5t43 -9q53 0 86.5 34t33.5 91v260h75v-450h-55l-20 50q-14 -16 -33 -28q-17 -11 -41 -19t-56 -8zM285 645h75l-85 -120h-50z" />
    <glyph glyph-name="ucircumflex" unicode="&#xfb;" horiz-adv-x="505" 
d="M240 -5q-36 0 -67.5 14.5t-55.5 40t-38 61.5t-14 79v260h75v-260q0 -28 8.5 -51t23.5 -39.5t35 -25.5t43 -9q53 0 86.5 34t33.5 91v260h75v-450h-55l-20 50q-14 -16 -33 -28q-17 -11 -41 -19t-56 -8zM375 520h-75l-50 70l-50 -70h-75l90 120h70z" />
    <glyph glyph-name="udieresis" unicode="&#xfc;" horiz-adv-x="505" 
d="M240 -5q-36 0 -67.5 14.5t-55.5 40t-38 61.5t-14 79v260h75v-260q0 -28 8.5 -51t23.5 -39.5t35 -25.5t43 -9q53 0 86.5 34t33.5 91v260h75v-450h-55l-20 50q-14 -16 -33 -28q-17 -11 -41 -19t-56 -8zM175 535q-19 0 -32 13t-13 32t13 32t32 13t32 -13t13 -32t-13 -32
t-32 -13zM325 535q-19 0 -32 13t-13 32t13 32t32 13t32 -13t13 -32t-13 -32t-32 -13z" />
    <glyph glyph-name="yacute" unicode="&#xfd;" horiz-adv-x="450" 
d="M10 450h80l135 -345l135 345h80l-195 -490q-27 -68 -56.5 -96.5t-73.5 -28.5q-6 0 -11 0.5t-10 1.5t-9 3v60q34 0 51 15t29 45l20 50zM260 644h75l-85 -120h-50z" />
    <glyph glyph-name="thorn" unicode="&#xfe;" horiz-adv-x="530" 
d="M135 225q0 -36 11.5 -65.5t30.5 -50.5t44.5 -32.5t53.5 -11.5t53.5 11.5t44.5 32.5t30.5 50.5t11.5 65.5t-11.5 65.5t-30.5 50.5t-44.5 32.5t-53.5 11.5t-53.5 -11.5t-44.5 -32.5t-30.5 -50.5t-11.5 -65.5zM145 395q14 17 34 30q17 11 42 20.5t59 9.5q43 0 81.5 -17
t67 -47.5t45 -72.5t16.5 -93t-16.5 -93t-45 -72.5t-67 -47.5t-81.5 -17q-34 0 -59 9.5t-42 20.5q-20 13 -34 30v-215h-75v790h75v-235z" />
    <glyph glyph-name="ydieresis" unicode="&#xff;" horiz-adv-x="450" 
d="M10 450h80l135 -345l135 345h80l-195 -490q-27 -68 -56.5 -96.5t-73.5 -28.5q-6 0 -11 0.5t-10 1.5t-9 3v60q34 0 51 15t29 45l20 50zM150 535q-19 0 -32 13t-13 32t13 32t32 13t32 -13t13 -32t-13 -32t-32 -13zM300 535q-19 0 -32 13t-13 32t13 32t32 13t32 -13t13 -32
t-13 -32t-32 -13z" />
    <glyph glyph-name="Amacron" unicode="&#x100;" horiz-adv-x="550" 
d="M405 155h-260l-60 -155h-85l240 630h70l240 -630h-85zM170 225h210l-105 275zM395 715h-240v60h240v-60z" />
    <glyph glyph-name="amacron" unicode="&#x101;" horiz-adv-x="465" 
d="M235 455q37 0 68.5 -12.5t54 -33.5t35 -49t12.5 -60v-300h-55l-20 50q-15 -16 -34 -28q-17 -11 -42 -19t-59 -8t-61.5 10.5t-47 29t-30.5 43t-11 52.5q0 32 13 58.5t45 46t87.5 30t139.5 10.5v25q0 34 -26.5 59.5t-68.5 25.5t-62 -17.5t-28 -47.5h-80q4 28 17 52.5
t34.5 43t51 29t67.5 10.5zM195 65q30 0 55 9.5t42.5 24.5t27.5 33.5t10 37.5v35q-68 0 -109 -5.5t-63.5 -16t-30 -25t-7.5 -33.5q0 -23 20.5 -41.5t54.5 -18.5zM355 545h-240v60h240v-60z" />
    <glyph glyph-name="Abreve" unicode="&#x102;" horiz-adv-x="550" 
d="M405 155h-260l-60 -155h-85l240 630h70l240 -630h-85zM170 225h210l-105 275zM275 700q-49 0 -80.5 32.5t-39.5 77.5h60q4 -26 20.5 -43t39.5 -17t39.5 17t20.5 43h60q-8 -45 -39.5 -77.5t-80.5 -32.5z" />
    <glyph glyph-name="abreve" unicode="&#x103;" horiz-adv-x="465" 
d="M235 455q37 0 68.5 -12.5t54 -33.5t35 -49t12.5 -60v-300h-55l-20 50q-15 -16 -34 -28q-17 -11 -42 -19t-59 -8t-61.5 10.5t-47 29t-30.5 43t-11 52.5q0 32 13 58.5t45 46t87.5 30t139.5 10.5v25q0 34 -26.5 59.5t-68.5 25.5t-62 -17.5t-28 -47.5h-80q4 28 17 52.5
t34.5 43t51 29t67.5 10.5zM195 65q30 0 55 9.5t42.5 24.5t27.5 33.5t10 37.5v35q-68 0 -109 -5.5t-63.5 -16t-30 -25t-7.5 -33.5q0 -23 20.5 -41.5t54.5 -18.5zM240 520q-49 0 -80.5 32.5t-39.5 77.5h60q4 -26 20.5 -43t39.5 -17t39.5 17t20.5 43h60q-8 -45 -39.5 -77.5
t-80.5 -32.5z" />
    <glyph glyph-name="Aogonek" unicode="&#x104;" horiz-adv-x="550" 
d="M405 155h-260l-60 -155h-85l240 630h70l240 -630h-35q-10 -12 -18 -26q-7 -12 -12 -27t-5 -32q0 -19 13 -32t32 -13q8 0 14.5 0.5t12.5 1.5t13 3v-40q-7 -2 -13 -3t-12.5 -1.5t-14.5 -0.5q-45 0 -70 23.5t-25 61.5q0 17 5 32t12 27q8 14 18 26zM170 225h210l-105 275z
" />
    <glyph glyph-name="aogonek" unicode="&#x105;" horiz-adv-x="465" 
d="M330 50q-15 -16 -34 -28q-17 -11 -42 -19t-59 -8t-61.5 10.5t-47 29t-30.5 43t-11 52.5q0 32 13 58.5t45 46t87.5 30t139.5 10.5v25q0 34 -26.5 59.5t-68.5 25.5t-62 -17.5t-28 -47.5h-80q4 28 17 52.5t34.5 43t51 29t67.5 10.5q37 0 68.5 -12.5t54 -33.5t35 -49
t12.5 -60v-300h-5q-10 -12 -18 -26q-7 -12 -12 -27t-5 -32q0 -19 13 -32t32 -13q8 0 14.5 0.5t12.5 1.5t13 3v-40q-7 -2 -13 -3t-12.5 -1.5t-14.5 -0.5q-45 0 -70 23.5t-25 61.5q0 17 5 32t12 27q8 14 18 26zM195 65q30 0 55 9.5t42.5 24.5t27.5 33.5t10 37.5v35
q-68 0 -109 -5.5t-63.5 -16t-30 -25t-7.5 -33.5q0 -23 20.5 -41.5t54.5 -18.5z" />
    <glyph glyph-name="Cacute" unicode="&#x106;" horiz-adv-x="635" 
d="M335 565q-41 0 -80 -18.5t-69 -52t-48 -79.5t-18 -100t18 -100t48 -79.5t69 -52t80 -18.5q37 0 68 11.5t54.5 31t39 46t23.5 56.5h85q-13 -45 -37 -84t-58.5 -68.5t-78.5 -46t-96 -16.5q-58 0 -111.5 24.5t-94 68t-65 101.5t-24.5 126q0 67 24.5 125.5t65 102t94 68
t111.5 24.5q51 0 93.5 -16.5t76.5 -46t58 -68.5t37 -84h-85q-8 30 -23.5 56.5t-38.5 46t-52.5 31t-65.5 11.5zM370 825h75l-85 -120h-50z" />
    <glyph glyph-name="cacute" unicode="&#x107;" horiz-adv-x="470" 
d="M245 385q-26 0 -50.5 -11.5t-43.5 -32.5t-30 -50.5t-11 -65.5t11 -65.5t30 -50.5t43.5 -32.5t50.5 -11.5q22 0 41.5 8t35 21t26.5 30t17 36h75q-8 -34 -25 -64t-42.5 -52.5t-58 -35.5t-69.5 -13q-43 0 -81.5 17t-67 47.5t-45 72.5t-16.5 93t16.5 93t45 72.5t67 47.5
t81.5 17q37 0 69.5 -13t58 -35.5t42.5 -52.5t25 -64h-75q-6 19 -17 36t-26.5 30t-35 21t-41.5 8zM280 644h75l-85 -120h-50z" />
    <glyph glyph-name="Ccircumflex" unicode="&#x108;" horiz-adv-x="635" 
d="M335 565q-41 0 -80 -18.5t-69 -52t-48 -79.5t-18 -100t18 -100t48 -79.5t69 -52t80 -18.5q37 0 68 11.5t54.5 31t39 46t23.5 56.5h85q-13 -45 -37 -84t-58.5 -68.5t-78.5 -46t-96 -16.5q-58 0 -111.5 24.5t-94 68t-65 101.5t-24.5 126q0 67 24.5 125.5t65 102t94 68
t111.5 24.5q51 0 93.5 -16.5t76.5 -46t58 -68.5t37 -84h-85q-8 30 -23.5 56.5t-38.5 46t-52.5 31t-65.5 11.5zM460 700h-75l-50 70l-50 -70h-75l90 120h70z" />
    <glyph glyph-name="ccircumflex" unicode="&#x109;" horiz-adv-x="470" 
d="M245 385q-26 0 -50.5 -11.5t-43.5 -32.5t-30 -50.5t-11 -65.5t11 -65.5t30 -50.5t43.5 -32.5t50.5 -11.5q22 0 41.5 8t35 21t26.5 30t17 36h75q-8 -34 -25 -64t-42.5 -52.5t-58 -35.5t-69.5 -13q-43 0 -81.5 17t-67 47.5t-45 72.5t-16.5 93t16.5 93t45 72.5t67 47.5
t81.5 17q37 0 69.5 -13t58 -35.5t42.5 -52.5t25 -64h-75q-6 19 -17 36t-26.5 30t-35 21t-41.5 8zM370 520h-75l-50 70l-50 -70h-75l90 120h70z" />
    <glyph glyph-name="Ccaron" unicode="&#x10c;" horiz-adv-x="635" 
d="M335 565q-41 0 -80 -18.5t-69 -52t-48 -79.5t-18 -100t18 -100t48 -79.5t69 -52t80 -18.5q37 0 68 11.5t54.5 31t39 46t23.5 56.5h85q-13 -45 -37 -84t-58.5 -68.5t-78.5 -46t-96 -16.5q-58 0 -111.5 24.5t-94 68t-65 101.5t-24.5 126q0 67 24.5 125.5t65 102t94 68
t111.5 24.5q51 0 93.5 -16.5t76.5 -46t58 -68.5t37 -84h-85q-8 30 -23.5 56.5t-38.5 46t-52.5 31t-65.5 11.5zM365 700h-70l-90 120h75l50 -70l50 70h75z" />
    <glyph glyph-name="ccaron" unicode="&#x10d;" horiz-adv-x="470" 
d="M245 385q-26 0 -50.5 -11.5t-43.5 -32.5t-30 -50.5t-11 -65.5t11 -65.5t30 -50.5t43.5 -32.5t50.5 -11.5q22 0 41.5 8t35 21t26.5 30t17 36h75q-8 -34 -25 -64t-42.5 -52.5t-58 -35.5t-69.5 -13q-43 0 -81.5 17t-67 47.5t-45 72.5t-16.5 93t16.5 93t45 72.5t67 47.5
t81.5 17q37 0 69.5 -13t58 -35.5t42.5 -52.5t25 -64h-75q-6 19 -17 36t-26.5 30t-35 21t-41.5 8zM280 520h-70l-90 120h75l50 -70l50 70h75z" />
    <glyph glyph-name="Dcaron" unicode="&#x10e;" horiz-adv-x="595" 
d="M255 70q43 0 83 18.5t70.5 51.5t48.5 77.5t18 97.5q0 52 -18 97t-48.5 78t-70.5 51.5t-83 18.5h-95v-490h95zM555 315q0 -68 -23.5 -125.5t-64.5 -99.5t-95.5 -66t-116.5 -24h-175v630h175q62 0 116.5 -24t95.5 -66t64.5 -100t23.5 -125zM340 700h-70l-90 120h75l50 -70
l50 70h75z" />
    <glyph glyph-name="dcaron" unicode="&#x10f;" horiz-adv-x="576" 
d="M545 630h71l-60 -120h-46zM390 225q0 36 -11.5 65.5t-30.5 50.5t-44.5 32.5t-53.5 11.5t-53.5 -11.5t-44.5 -32.5t-30.5 -50.5t-11.5 -65.5t11.5 -65.5t30.5 -50.5t44.5 -32.5t53.5 -11.5t53.5 11.5t44.5 32.5t30.5 50.5t11.5 65.5zM380 50q-15 -16 -34 -28
q-17 -11 -42 -19t-59 -8q-43 0 -81.5 17t-67 47.5t-45 72.5t-16.5 93t16.5 93t45 72.5t67 47.5t81.5 17q34 0 59 -9.5t42 -20.5q19 -13 34 -30v235h75v-630h-55z" />
    <glyph glyph-name="Dcroat" unicode="&#x110;" horiz-adv-x="620" 
d="M580 315q0 -68 -23.5 -125.5t-64.5 -99.5t-95.5 -66t-116.5 -24h-175v275h-90v70h90v285h175q62 0 116.5 -24t95.5 -66t64.5 -100t23.5 -125zM280 70q43 0 83 18.5t70.5 51.5t48.5 77.5t18 97.5q0 52 -18 97t-48.5 78t-70.5 51.5t-83 18.5h-95v-215h120v-70h-120v-205h95
z" />
    <glyph glyph-name="dcroat" unicode="&#x111;" horiz-adv-x="505" 
d="M230 550h125v80h75v-80h75v-65h-75v-485h-55l-20 50q-13 -16 -31 -28q-16 -11 -39 -19t-55 -8q-41 0 -77.5 16t-63.5 44t-43 66.5t-16 83.5t16 83.5t43 66.5t63.5 44t77.5 16q32 0 55 -8.5t39 -19.5q18 -12 31 -27v125h-125v65zM105 205q0 -30 10.5 -55.5t28.5 -44.5
t41.5 -29.5t49.5 -10.5t49.5 10.5t41.5 29.5t28.5 44.5t10.5 55.5t-10.5 55.5t-28.5 44.5t-41.5 29.5t-49.5 10.5t-49.5 -10.5t-41.5 -29.5t-28.5 -44.5t-10.5 -55.5z" />
    <glyph glyph-name="Emacron" unicode="&#x112;" horiz-adv-x="540" 
d="M490 70v-70h-410v630h400v-70h-320v-200h295v-70h-295v-220h330zM400 725h-240v60h240v-60z" />
    <glyph glyph-name="emacron" unicode="&#x113;" horiz-adv-x="475" 
d="M430 120q-11 -24 -28 -47t-40 -40t-52 -27.5t-65 -10.5q-43 0 -81.5 17t-67 47.5t-45 72.5t-16.5 93t16.5 93t44.5 72.5t65.5 47.5t78.5 17t77.5 -16t63.5 -45.5t43 -71t16 -92.5q0 -10 -1 -17t-2 -12q-1 -6 -2 -11h-320q2 -24 13.5 -47t29 -40t40.5 -27.5t47 -10.5
q21 0 37.5 6t30 14t22.5 17.5t15 17.5h80zM240 385q-23 0 -43.5 -10t-37.5 -27t-28.5 -41t-15.5 -52h245q-8 60 -41.5 95t-78.5 35zM360 545h-240v60h240v-60z" />
    <glyph glyph-name="Edotaccent" unicode="&#x116;" horiz-adv-x="540" 
d="M490 70v-70h-410v630h400v-70h-320v-200h295v-70h-295v-220h330zM235 757q0 21 13.5 34.5t33.5 13.5q21 0 34.5 -13.5t13.5 -34.5q0 -20 -13.5 -33.5t-34.5 -13.5q-20 0 -33.5 13.5t-13.5 33.5z" />
    <glyph glyph-name="edotaccent" unicode="&#x117;" horiz-adv-x="475" 
d="M430 120q-11 -24 -28 -47t-40 -40t-52 -27.5t-65 -10.5q-43 0 -81.5 17t-67 47.5t-45 72.5t-16.5 93t16.5 93t44.5 72.5t65.5 47.5t78.5 17t77.5 -16t63.5 -45.5t43 -71t16 -92.5q0 -10 -1 -17t-2 -12q-1 -6 -2 -11h-320q2 -24 13.5 -47t29 -40t40.5 -27.5t47 -10.5
q21 0 37.5 6t30 14t22.5 17.5t15 17.5h80zM240 385q-23 0 -43.5 -10t-37.5 -27t-28.5 -41t-15.5 -52h245q-8 60 -41.5 95t-78.5 35zM195 577q0 21 13.5 34.5t33.5 13.5q21 0 34.5 -13.5t13.5 -34.5q0 -20 -13.5 -33.5t-34.5 -13.5q-20 0 -33.5 13.5t-13.5 33.5z" />
    <glyph glyph-name="Eogonek" unicode="&#x118;" horiz-adv-x="540" 
d="M80 0v630h400v-70h-320v-200h295v-70h-295v-220h330v-70q-10 -12 -18 -26q-7 -12 -12 -27t-5 -32q0 -19 13 -32t32 -13q8 0 14.5 0.5t12.5 1.5t13 3v-40q-7 -2 -13 -3t-12.5 -1.5t-14.5 -0.5q-45 0 -70 23.5t-25 61.5q0 17 5 32t12 27q8 14 18 26h-360z" />
    <glyph glyph-name="eogonek" unicode="&#x119;" horiz-adv-x="475" 
d="M430 120q-9 -21 -23.5 -41t-33.5 -36.5t-43.5 -29t-54.5 -18.5q-9 -11 -15 -23q-6 -11 -10.5 -25.5t-4.5 -31.5q0 -19 13 -32t32 -13q8 0 14.5 0.5t12.5 1.5t13 3v-40q-7 -2 -13 -3t-12.5 -1.5t-14.5 -0.5q-45 0 -70 23.5t-25 61.5q0 17 4.5 31.5t10.5 25.5q6 12 15 23
q-38 4 -72 22t-60.5 48t-42 70.5t-15.5 89.5q0 51 16.5 93t44.5 72.5t65.5 47.5t78.5 17t77.5 -16t63.5 -45.5t43 -71t16 -92.5q0 -10 -1 -17t-2 -12q-1 -6 -2 -11h-320q2 -24 13.5 -47t29 -40t40.5 -27.5t47 -10.5q21 0 37.5 6t30 14t22.5 17.5t15 17.5h80zM240 385
q-23 0 -43.5 -10t-37.5 -27t-28.5 -41t-15.5 -52h245q-8 60 -41.5 95t-78.5 35z" />
    <glyph glyph-name="Ecaron" unicode="&#x11a;" horiz-adv-x="540" 
d="M490 70v-70h-410v630h400v-70h-320v-200h295v-70h-295v-220h330zM320 700h-70l-90 120h75l50 -70l50 70h75z" />
    <glyph glyph-name="ecaron" unicode="&#x11b;" horiz-adv-x="475" 
d="M430 120q-11 -24 -28 -47t-40 -40t-52 -27.5t-65 -10.5q-43 0 -81.5 17t-67 47.5t-45 72.5t-16.5 93t16.5 93t44.5 72.5t65.5 47.5t78.5 17t77.5 -16t63.5 -45.5t43 -71t16 -92.5q0 -10 -1 -17t-2 -12q-1 -6 -2 -11h-320q2 -24 13.5 -47t29 -40t40.5 -27.5t47 -10.5
q21 0 37.5 6t30 14t22.5 17.5t15 17.5h80zM240 385q-23 0 -43.5 -10t-37.5 -27t-28.5 -41t-15.5 -52h245q-8 60 -41.5 95t-78.5 35zM275 520h-70l-90 120h75l50 -70l50 70h75z" />
    <glyph glyph-name="Gbreve" unicode="&#x11e;" horiz-adv-x="675" 
d="M335 565q-41 0 -80 -18.5t-69 -52t-48 -79.5t-18 -100t18 -100t48 -79.5t69 -52t80 -18.5q37 0 71.5 15.5t61 41t42 57.5t15.5 66h-185v70h265v-315h-60l-20 75q-22 -22 -50 -40q-25 -15 -60 -27.5t-80 -12.5q-58 0 -111.5 24.5t-94 68t-65 101.5t-24.5 126
q0 67 24.5 125.5t65 102t94 68t111.5 24.5q52 0 94.5 -15t75.5 -42.5t56.5 -65t38.5 -82.5h-85q-19 60 -62 97.5t-118 37.5zM340 700q-49 0 -80.5 32.5t-39.5 77.5h60q4 -26 20.5 -43t39.5 -17t39.5 17t20.5 43h60q-8 -45 -39.5 -77.5t-80.5 -32.5z" />
    <glyph glyph-name="gbreve" unicode="&#x11f;" horiz-adv-x="505" 
d="M370 75q-13 -17 -31 -30q-16 -11 -40.5 -20.5t-58.5 -9.5q-43 0 -80.5 16t-65 45t-43.5 69.5t-16 89.5t16 89.5t43.5 69.5t65 45t80.5 16q34 0 58.5 -8.5t40.5 -19.5q18 -12 31 -27l20 50h55v-435q0 -39 -14.5 -73t-40.5 -59t-63 -39t-82 -14q-39 0 -70 10.5t-54 29
t-38.5 43t-22.5 52.5h75q11 -26 36 -45.5t74 -19.5q57 0 91 33t34 82v60zM110 235q0 -34 10.5 -61.5t29 -47t43 -30.5t52.5 -11t52.5 11t43 30.5t29 47t10.5 61.5t-10.5 61.5t-29 47t-43 30.5t-52.5 11t-52.5 -11t-43 -30.5t-29 -47t-10.5 -61.5zM245 520q-49 0 -80.5 32.5
t-39.5 77.5h60q4 -26 20.5 -43t39.5 -17t39.5 17t20.5 43h60q-8 -45 -39.5 -77.5t-80.5 -32.5z" />
    <glyph glyph-name="Gcommaaccent" unicode="&#x122;" horiz-adv-x="675" 
d="M335 565q-41 0 -80 -18.5t-69 -52t-48 -79.5t-18 -100t18 -100t48 -79.5t69 -52t80 -18.5q37 0 71.5 15.5t61 41t42 57.5t15.5 66h-185v70h265v-315h-60l-20 75q-22 -22 -50 -40q-25 -15 -60 -27.5t-80 -12.5q-58 0 -111.5 24.5t-94 68t-65 101.5t-24.5 126
q0 67 24.5 125.5t65 102t94 68t111.5 24.5q52 0 94.5 -15t75.5 -42.5t56.5 -65t38.5 -82.5h-85q-19 60 -62 97.5t-118 37.5zM285 -115q0 21 14.5 35.5t35.5 14.5t35.5 -14.5t14.5 -35.5q0 -36 -12 -62.5t-26 -43.5q-17 -20 -37 -34l-15 20q10 9 18 20q7 9 13.5 22t8.5 28
q-21 0 -35.5 14.5t-14.5 35.5z" />
    <glyph glyph-name="gcommaaccent" unicode="&#x123;" horiz-adv-x="505" 
d="M305 570q0 -21 -14.5 -35.5t-35.5 -14.5t-35.5 14.5t-14.5 35.5q0 35 11.5 62t25.5 44q17 20 38 34l15 -20q-10 -9 -18 -20q-7 -10 -13.5 -22.5t-8.5 -27.5q21 0 35.5 -14.5t14.5 -35.5zM370 75q-13 -17 -31 -30q-16 -11 -40.5 -20.5t-58.5 -9.5q-43 0 -80.5 16t-65 45
t-43.5 69.5t-16 89.5t16 89.5t43.5 69.5t65 45t80.5 16q34 0 58.5 -8.5t40.5 -19.5q18 -12 31 -27l20 50h55v-435q0 -39 -14.5 -73t-40.5 -59t-63 -39t-82 -14q-39 0 -70 10.5t-54 29t-38.5 43t-22.5 52.5h75q11 -26 36 -45.5t74 -19.5q57 0 91 33t34 82v60zM110 235
q0 -34 10.5 -61.5t29 -47t43 -30.5t52.5 -11t52.5 11t43 30.5t29 47t10.5 61.5t-10.5 61.5t-29 47t-43 30.5t-52.5 11t-52.5 -11t-43 -30.5t-29 -47t-10.5 -61.5z" />
    <glyph glyph-name="Imacron" unicode="&#x12a;" horiz-adv-x="240" 
d="M160 0h-80v630h80v-630zM240 720h-240v60h240v-60z" />
    <glyph glyph-name="imacron" unicode="&#x12b;" horiz-adv-x="205" 
d="M140 0h-75v450h75v-450zM220 545h-240v60h240v-60z" />
    <glyph glyph-name="Iogonek" unicode="&#x12e;" horiz-adv-x="240" 
d="M80 630h80v-630h-30q-10 -12 -18 -26q-7 -12 -12 -27t-5 -32q0 -19 13 -32t32 -13q8 0 14.5 0.5t12.5 1.5t13 3v-40q-7 -2 -13 -3t-12.5 -1.5t-14.5 -0.5q-45 0 -70 23.5t-25 61.5q0 17 5 32t12 27q8 14 18 26v630z" />
    <glyph glyph-name="iogonek" unicode="&#x12f;" horiz-adv-x="205" 
d="M140 0h-75v450h75v-450zM55 577q0 21 13.5 34.5t33.5 13.5q21 0 34.5 -13.5t13.5 -34.5q0 -20 -13.5 -33.5t-34.5 -13.5q-20 0 -33.5 13.5t-13.5 33.5zM120 0q-10 -12 -18 -26q-7 -12 -12 -27t-5 -32q0 -19 13 -32t32 -13q8 0 14.5 0.5t12.5 1.5t13 3v-40q-7 -2 -13 -3
t-12.5 -1.5t-14.5 -0.5q-45 0 -70 23.5t-25 61.5q0 17 5 32t12 27q8 14 18 26h50z" />
    <glyph glyph-name="Idotaccent" unicode="&#x130;" horiz-adv-x="240" 
d="M160 0h-80v630h80v-630zM75 757q0 21 13.5 34.5t33.5 13.5q21 0 34.5 -13.5t13.5 -34.5q0 -20 -13.5 -33.5t-34.5 -13.5q-20 0 -33.5 13.5t-13.5 33.5z" />
    <glyph glyph-name="dotlessi" unicode="&#x131;" horiz-adv-x="205" 
d="M140 0h-75v450h75v-450z" />
    <glyph glyph-name="ij" unicode="&#x133;" horiz-adv-x="435" 
d="M295 15q-9 -6 -23 -10q-12 -4 -30 -7t-42 -3q-28 0 -52.5 10.5t-43 30t-29 46t-10.5 58.5v310h75v-310q0 -30 23 -52.5t57 -22.5q17 0 30.5 3t23.5 7q11 4 21 10v365h75v-465q0 -34 -10.5 -61.5t-28.5 -47t-41.5 -30.5t-49.5 -11q-22 0 -34 5q-7 2 -11 5v65q3 -2 7 -3
q8 -2 18 -2q34 0 54.5 21t20.5 59v30zM285 577q0 21 13.5 34.5t33.5 13.5q21 0 34.5 -13.5t13.5 -34.5q0 -20 -13.5 -33.5t-34.5 -13.5q-20 0 -33.5 13.5t-13.5 33.5zM55 577q0 21 13.5 34.5t33.5 13.5q21 0 34.5 -13.5t13.5 -34.5q0 -20 -13.5 -33.5t-34.5 -13.5
q-20 0 -33.5 13.5t-13.5 33.5z" />
    <glyph glyph-name="Kcommaaccent" unicode="&#x136;" horiz-adv-x="515" 
d="M160 0h-80v630h80v-630zM160 320l245 310h95l-250 -310l270 -320h-95zM225 -115q0 21 14.5 35.5t35.5 14.5t35.5 -14.5t14.5 -35.5q0 -36 -12 -62.5t-26 -43.5q-17 -20 -37 -34l-15 20q10 9 18 20q7 9 13.5 22t8.5 28q-21 0 -35.5 14.5t-14.5 35.5z" />
    <glyph glyph-name="kcommaaccent" unicode="&#x137;" horiz-adv-x="420" 
d="M145 0h-75v630h75v-630zM335 0l-190 235l170 215h85l-170 -210l195 -240h-90zM180 -115q0 21 14.5 35.5t35.5 14.5t35.5 -14.5t14.5 -35.5q0 -36 -12 -62.5t-26 -43.5q-17 -20 -37 -34l-15 20q10 9 18 20q7 9 13.5 22t8.5 28q-21 0 -35.5 14.5t-14.5 35.5z" />
    <glyph glyph-name="Lacute" unicode="&#x139;" horiz-adv-x="470" 
d="M460 70v-70h-380v630h80v-560h300zM150 825h75l-85 -120h-50z" />
    <glyph glyph-name="lacute" unicode="&#x13a;" horiz-adv-x="215" 
d="M145 0h-75v630h75v-630zM140 825h75l-85 -120h-50z" />
    <glyph glyph-name="Lcommaaccent" unicode="&#x13b;" horiz-adv-x="470" 
d="M460 70v-70h-380v630h80v-560h300zM225 -115q0 21 14.5 35.5t35.5 14.5t35.5 -14.5t14.5 -35.5q0 -36 -12 -62.5t-26 -43.5q-17 -20 -37 -34l-15 20q10 9 18 20q7 9 13.5 22t8.5 28q-21 0 -35.5 14.5t-14.5 35.5z" />
    <glyph glyph-name="lcommaaccent" unicode="&#x13c;" horiz-adv-x="215" 
d="M145 0h-75v630h75v-630zM55 -115q0 21 14.5 35.5t35.5 14.5t35.5 -14.5t14.5 -35.5q0 -36 -12 -62.5t-26 -43.5q-17 -20 -37 -34l-15 20q10 9 18 20q7 9 13.5 22t8.5 28q-21 0 -35.5 14.5t-14.5 35.5z" />
    <glyph glyph-name="Lcaron" unicode="&#x13d;" horiz-adv-x="470" 
d="M260 630h70l-60 -120h-45zM460 70v-70h-380v630h80v-560h300z" />
    <glyph glyph-name="lcaron" unicode="&#x13e;" horiz-adv-x="260" 
d="M235 630h70l-60 -120h-45zM145 0h-75v630h75v-630z" />
    <glyph glyph-name="Lslash" unicode="&#x141;" horiz-adv-x="485" 
d="M475 70v-70h-380v195l-70 -45v80l70 45v355h80v-305l150 100v-80l-150 -100v-175h300z" />
    <glyph glyph-name="lslash" unicode="&#x142;" horiz-adv-x="250" 
d="M160 308v-308h-75v259l-75 -49v75l75 49v296h75v-247l80 52v-75z" />
    <glyph glyph-name="Nacute" unicode="&#x143;" horiz-adv-x="625" 
d="M545 630v-630h-70l-315 475v-475h-80v630h70l315 -475v475h80zM345 825h75l-85 -120h-50z" />
    <glyph glyph-name="nacute" unicode="&#x144;" horiz-adv-x="505" 
d="M270 455q36 0 67.5 -14.5t55.5 -40t38 -61.5t14 -79v-260h-75v260q0 28 -9 51t-24 39.5t-35 25.5t-42 9q-53 0 -86.5 -34t-33.5 -91v-260h-75v450h55l20 -50q14 15 33 27q17 11 41 19.5t56 8.5zM290 645h75l-85 -120h-50z" />
    <glyph glyph-name="Ncommaaccent" unicode="&#x145;" horiz-adv-x="625" 
d="M545 630v-630h-70l-315 475v-475h-80v630h70l315 -475v475h80zM260 -115q0 21 14.5 35.5t35.5 14.5t35.5 -14.5t14.5 -35.5q0 -36 -12 -62.5t-26 -43.5q-17 -20 -37 -34l-15 20q10 9 18 20q7 9 13.5 22t8.5 28q-21 0 -35.5 14.5t-14.5 35.5z" />
    <glyph glyph-name="ncommaaccent" unicode="&#x146;" horiz-adv-x="505" 
d="M270 455q36 0 67.5 -14.5t55.5 -40t38 -61.5t14 -79v-260h-75v260q0 28 -9 51t-24 39.5t-35 25.5t-42 9q-53 0 -86.5 -34t-33.5 -91v-260h-75v450h55l20 -50q14 15 33 27q17 11 41 19.5t56 8.5zM205 -115q0 21 14.5 35.5t35.5 14.5t35.5 -14.5t14.5 -35.5
q0 -36 -12 -62.5t-26 -43.5q-17 -20 -37 -34l-15 20q10 9 18 20q7 9 13.5 22t8.5 28q-21 0 -35.5 14.5t-14.5 35.5z" />
    <glyph glyph-name="Ncaron" unicode="&#x147;" horiz-adv-x="625" 
d="M545 630v-630h-70l-315 475v-475h-80v630h70l315 -475v475h80zM345 700h-70l-90 120h75l50 -70l50 70h75z" />
    <glyph glyph-name="ncaron" unicode="&#x148;" horiz-adv-x="505" 
d="M270 455q36 0 67.5 -14.5t55.5 -40t38 -61.5t14 -79v-260h-75v260q0 28 -9 51t-24 39.5t-35 25.5t-42 9q-53 0 -86.5 -34t-33.5 -91v-260h-75v450h55l20 -50q14 15 33 27q17 11 41 19.5t56 8.5zM290 520h-70l-90 120h75l50 -70l50 70h75z" />
    <glyph glyph-name="Omacron" unicode="&#x14c;" horiz-adv-x="660" 
d="M115 315q0 -54 18 -100t48 -79.5t69 -52t80 -18.5t80 18.5t69 52t48 79.5t18 100t-18 100t-48 79.5t-69 52t-80 18.5t-80 -18.5t-69 -52t-48 -79.5t-18 -100zM625 315q0 -68 -24.5 -126t-65 -101.5t-94 -68t-111.5 -24.5t-111.5 24.5t-94 68t-65 101.5t-24.5 126
q0 67 24.5 125.5t65 102t94 68t111.5 24.5t111.5 -24.5t94 -68t65 -102t24.5 -125.5zM450 720h-240v60h240v-60z" />
    <glyph glyph-name="omacron" unicode="&#x14d;" 
d="M110 225q0 -36 11 -65.5t30 -50.5t43.5 -32.5t50.5 -11.5t50.5 11.5t43 32.5t30 50.5t11.5 65.5t-11.5 65.5t-30 50.5t-43 32.5t-50.5 11.5t-50.5 -11.5t-43.5 -32.5t-30 -50.5t-11 -65.5zM455 225q0 -51 -16.5 -93t-45 -72.5t-67 -47.5t-81.5 -17t-81.5 17t-67 47.5
t-45 72.5t-16.5 93t16.5 93t45 72.5t67 47.5t81.5 17t81.5 -17t67 -47.5t45 -72.5t16.5 -93zM365 545h-240v60h240v-60z" />
    <glyph glyph-name="Ohungarumlaut" unicode="&#x150;" horiz-adv-x="660" 
d="M115 315q0 -54 18 -100t48 -79.5t69 -52t80 -18.5t80 18.5t69 52t48 79.5t18 100t-18 100t-48 79.5t-69 52t-80 18.5t-80 -18.5t-69 -52t-48 -79.5t-18 -100zM625 315q0 -68 -24.5 -126t-65 -101.5t-94 -68t-111.5 -24.5t-111.5 24.5t-94 68t-65 101.5t-24.5 126
q0 67 24.5 125.5t65 102t94 68t111.5 24.5t111.5 -24.5t94 -68t65 -102t24.5 -125.5zM300 825h75l-90 -120h-50zM440 825h75l-90 -120h-50z" />
    <glyph glyph-name="ohungarumlaut" unicode="&#x151;" 
d="M110 225q0 -36 11 -65.5t30 -50.5t43.5 -32.5t50.5 -11.5t50.5 11.5t43 32.5t30 50.5t11.5 65.5t-11.5 65.5t-30 50.5t-43 32.5t-50.5 11.5t-50.5 -11.5t-43.5 -32.5t-30 -50.5t-11 -65.5zM455 225q0 -51 -16.5 -93t-45 -72.5t-67 -47.5t-81.5 -17t-81.5 17t-67 47.5
t-45 72.5t-16.5 93t16.5 93t45 72.5t67 47.5t81.5 17t81.5 -17t67 -47.5t45 -72.5t16.5 -93zM210 640h75l-90 -120h-50zM350 640h75l-90 -120h-50z" />
    <glyph glyph-name="OE" unicode="&#x152;" horiz-adv-x="840" 
d="M785 70v-70h-450q-59 0 -112 24.5t-94 67t-65 100t-24 123.5t24.5 123t65 100t94 67.5t111.5 24.5h440v-70h-285v-200h260v-70h-260v-220h295zM120 315q0 -53 18 -97.5t48 -77.5t69 -51.5t80 -18.5h75v490h-75q-41 0 -80 -18.5t-69 -51.5t-48 -78t-18 -97z" />
    <glyph glyph-name="oe" unicode="&#x153;" horiz-adv-x="790" 
d="M240 455q42 0 72.5 -15t51.5 -33q24 -21 41 -47q16 26 39 47q20 18 49.5 33t71.5 15q39 0 74 -15.5t60.5 -44.5t40.5 -71t15 -94q0 -10 -1 -17t-2 -12q-1 -6 -2 -11h-300q2 -26 12.5 -49t27 -40t37 -26.5t43.5 -9.5q38 0 61 18t34 37h80q-9 -24 -25 -47t-38 -40
t-50 -27.5t-62 -10.5q-42 0 -73 14.5t-51 32.5q-25 21 -41 48q-17 -27 -41 -48q-21 -18 -51.5 -32.5t-72.5 -14.5q-41 0 -78.5 17t-65.5 47.5t-44.5 72.5t-16.5 93t16.5 93t44.5 72.5t65.5 47.5t78.5 17zM110 225q0 -36 11 -65.5t29.5 -50.5t42 -32.5t47.5 -11.5t47.5 11.5
t42 32.5t29.5 50.5t11 65.5t-11 65.5t-29.5 50.5t-42 32.5t-47.5 11.5t-47.5 -11.5t-42 -32.5t-29.5 -50.5t-11 -65.5zM565 385q-21 0 -40.5 -10t-35.5 -27t-26.5 -41t-12.5 -52h225q-4 60 -36 95t-74 35z" />
    <glyph glyph-name="Racute" unicode="&#x154;" horiz-adv-x="555" 
d="M280 260h-120v-260h-80v630h235q39 0 74 -15t60.5 -40t40.5 -59t15 -71q0 -55 -22 -89.5t-48 -54.5q-31 -24 -69 -36l154 -265h-90zM160 330h155q22 0 42 9t35 24.5t24 36.5t9 45t-9 45t-24 36.5t-35 24.5t-42 9h-155v-230zM310 825h75l-85 -120h-50z" />
    <glyph glyph-name="racute" unicode="&#x155;" horiz-adv-x="300" 
d="M280 380h-20q-53 0 -86.5 -34t-33.5 -91v-255h-75v450h55l20 -50q14 15 33 27q17 11 41 19.5t56 8.5h10v-75zM205 640h75l-85 -120h-50z" />
    <glyph glyph-name="Rcommaaccent" unicode="&#x156;" horiz-adv-x="555" 
d="M280 260h-120v-260h-80v630h235q39 0 74 -15t60.5 -40t40.5 -59t15 -71q0 -55 -22 -89.5t-48 -54.5q-31 -24 -69 -36l154 -265h-90zM160 330h155q22 0 42 9t35 24.5t24 36.5t9 45t-9 45t-24 36.5t-35 24.5t-42 9h-155v-230zM235 -106q0 21 14.5 35.5t35.5 14.5
t35.5 -14.5t14.5 -35.5q0 -36 -12 -62.5t-26 -43.5q-17 -20 -37 -34l-15 20q10 9 18 20q7 9 13.5 22t8.5 28q-21 0 -35.5 14.5t-14.5 35.5z" />
    <glyph glyph-name="rcommaaccent" unicode="&#x157;" horiz-adv-x="300" 
d="M280 380h-20q-53 0 -86.5 -34t-33.5 -91v-255h-75v450h55l20 -50q14 15 33 27q17 11 41 19.5t56 8.5h10v-75zM55 -115q0 21 14.5 35.5t35.5 14.5t35.5 -14.5t14.5 -35.5q0 -36 -12 -62.5t-26 -43.5q-17 -20 -37 -34l-15 20q10 9 18 20q7 9 13.5 22t8.5 28
q-21 0 -35.5 14.5t-14.5 35.5z" />
    <glyph glyph-name="Rcaron" unicode="&#x158;" horiz-adv-x="555" 
d="M280 260h-120v-260h-80v630h235q39 0 74 -15t60.5 -40t40.5 -59t15 -71q0 -55 -22 -89.5t-48 -54.5q-31 -24 -69 -36l154 -265h-90zM160 330h155q22 0 42 9t35 24.5t24 36.5t9 45t-9 45t-24 36.5t-35 24.5t-42 9h-155v-230zM315 700h-70l-90 120h75l50 -70l50 70h75z" />
    <glyph glyph-name="rcaron" unicode="&#x159;" horiz-adv-x="300" 
d="M280 380h-20q-53 0 -86.5 -34t-33.5 -91v-255h-75v450h55l20 -50q14 15 33 27q17 11 41 19.5t56 8.5h10v-75zM210 520h-70l-90 120h75l50 -70l50 70h75z" />
    <glyph glyph-name="Sacute" unicode="&#x15a;" horiz-adv-x="495" 
d="M45 465q0 32 15 62.5t42.5 54.5t65 38.5t82.5 14.5q41 0 76.5 -15t62 -40.5t41.5 -60.5t15 -74h-80q0 53 -33 86.5t-82 33.5q-28 0 -51 -8.5t-39.5 -22.5t-25.5 -32t-9 -37q0 -39 25 -60.5t62 -36t80.5 -27t80.5 -33t62 -54t25 -89.5q0 -34 -14.5 -64.5t-41.5 -54
t-66 -37.5t-88 -14t-88 14t-66 39.5t-41.5 60.5t-14.5 76h80q0 -57 33 -88.5t97 -31.5t97 29t33 71q0 39 -25 60.5t-62 36t-80.5 27t-80.5 33t-62 54t-25 89.5zM285 825h75l-85 -120h-50z" />
    <glyph glyph-name="sacute" unicode="&#x15b;" horiz-adv-x="395" 
d="M360 130q0 -28 -11 -52.5t-31 -43t-48.5 -29t-64.5 -10.5q-75 0 -118 40t-47 100h75q4 -30 26 -50t64 -20q38 0 59 19.5t21 45.5q0 25 -17.5 37.5t-43.5 20t-56.5 14t-56.5 19.5t-43.5 37t-17.5 67q0 26 11 49.5t30.5 41.5t47 28.5t61.5 10.5q72 0 111.5 -37.5
t43.5 -97.5h-75q-4 30 -23 47.5t-57 17.5q-34 0 -54.5 -18.5t-20.5 -41.5q0 -25 17.5 -37.5t43.5 -20t56.5 -14t56.5 -19.5t43.5 -37.5t17.5 -66.5zM230 640h75l-85 -120h-50z" />
    <glyph glyph-name="Scedilla" unicode="&#x15e;" horiz-adv-x="495" 
d="M45 465q0 32 15 62.5t42.5 54.5t65 38.5t82.5 14.5q41 0 76.5 -15t62 -40.5t41.5 -60.5t15 -74h-80q0 53 -33 86.5t-82 33.5q-28 0 -51 -8.5t-39.5 -22.5t-25.5 -32t-9 -37q0 -39 25 -60.5t62 -36t80.5 -27t80.5 -33t62 -54t25 -89.5q0 -32 -13.5 -61t-38.5 -52t-60 -38
t-78 -19l-15 -35q30 -4 47.5 -21.5t17.5 -43.5t-22.5 -45.5t-67.5 -19.5q-10 0 -18 0.5t-14 1.5q-7 1 -13 3v40q5 -2 12 -3q5 -1 12.5 -1.5t15.5 -0.5q23 0 34 9.5t11 20.5t-11 20.5t-34 9.5q-6 0 -10.5 -1t-7.5 -2q-4 -1 -7 -2l30 70q-43 4 -78 19.5t-60 40t-38.5 58
t-13.5 72.5h80q0 -57 33 -88.5t97 -31.5t97 29t33 71q0 39 -25 60.5t-62 36t-80.5 27t-80.5 33t-62 54t-25 89.5z" />
    <glyph glyph-name="scedilla" unicode="&#x15f;" horiz-adv-x="395" 
d="M360 130q0 -53 -37.5 -90t-97.5 -45l-15 -35q30 -4 47.5 -21.5t17.5 -43.5t-22.5 -45.5t-67.5 -19.5q-10 0 -18 0.5t-14 1.5q-7 1 -13 3v40q5 -2 12 -3q5 -1 12.5 -1.5t15.5 -0.5q23 0 34 9.5t11 20.5t-11 20.5t-34 9.5q-6 0 -10.5 -1t-7.5 -2q-4 -1 -7 -2l30 70
q-30 2 -55.5 13.5t-45 30t-31 43.5t-13.5 53h75q4 -30 26 -50t64 -20q38 0 59 19.5t21 45.5q0 25 -17.5 37.5t-43.5 20t-56.5 14t-56.5 19.5t-43.5 37t-17.5 67q0 26 11 49.5t30.5 41.5t47 28.5t61.5 10.5q72 0 111.5 -37.5t43.5 -97.5h-75q-4 30 -23 47.5t-57 17.5
q-34 0 -54.5 -18.5t-20.5 -41.5q0 -25 17.5 -37.5t43.5 -20t56.5 -14t56.5 -19.5t43.5 -37.5t17.5 -66.5z" />
    <glyph glyph-name="Scaron" unicode="&#x160;" horiz-adv-x="495" 
d="M45 465q0 32 15 62.5t42.5 54.5t65 38.5t82.5 14.5q41 0 76.5 -15t62 -40.5t41.5 -60.5t15 -74h-80q0 53 -33 86.5t-82 33.5q-28 0 -51 -8.5t-39.5 -22.5t-25.5 -32t-9 -37q0 -39 25 -60.5t62 -36t80.5 -27t80.5 -33t62 -54t25 -89.5q0 -34 -14.5 -64.5t-41.5 -54
t-66 -37.5t-88 -14t-88 14t-66 39.5t-41.5 60.5t-14.5 76h80q0 -57 33 -88.5t97 -31.5t97 29t33 71q0 39 -25 60.5t-62 36t-80.5 27t-80.5 33t-62 54t-25 89.5zM285 700h-70l-90 120h75l50 -70l50 70h75z" />
    <glyph glyph-name="scaron" unicode="&#x161;" horiz-adv-x="395" 
d="M360 130q0 -28 -11 -52.5t-31 -43t-48.5 -29t-64.5 -10.5q-75 0 -118 40t-47 100h75q4 -30 26 -50t64 -20q38 0 59 19.5t21 45.5q0 25 -17.5 37.5t-43.5 20t-56.5 14t-56.5 19.5t-43.5 37t-17.5 67q0 26 11 49.5t30.5 41.5t47 28.5t61.5 10.5q72 0 111.5 -37.5
t43.5 -97.5h-75q-4 30 -23 47.5t-57 17.5q-34 0 -54.5 -18.5t-20.5 -41.5q0 -25 17.5 -37.5t43.5 -20t56.5 -14t56.5 -19.5t43.5 -37.5t17.5 -66.5zM230 520h-70l-90 120h75l50 -70l50 70h75z" />
    <glyph glyph-name="Tcommaaccent" unicode="&#x162;" 
d="M475 560h-190v-560h-80v560h-190v70h460v-70zM195 -115q0 21 14.5 35.5t35.5 14.5t35.5 -14.5t14.5 -35.5q0 -36 -12 -62.5t-26 -43.5q-17 -20 -37 -34l-15 20q10 9 18 20q7 9 13.5 22t8.5 28q-21 0 -35.5 14.5t-14.5 35.5z" />
    <glyph glyph-name="tcommaaccent" unicode="&#x163;" horiz-adv-x="320" 
d="M110 570h65v-120h100v-70h-100v-235q0 -38 20.5 -59t54.5 -21q10 0 18 2q4 1 7 3v-65q-5 -3 -11 -5q-13 -5 -34 -5q-26 0 -49.5 11t-41.5 30.5t-28.5 47t-10.5 61.5v235h-80v70h35q55 0 55 55v65zM145 -115q0 21 14.5 35.5t35.5 14.5t35.5 -14.5t14.5 -35.5
q0 -36 -12 -62.5t-26 -43.5q-17 -20 -37 -34l-15 20q10 9 18 20q7 9 13.5 22t8.5 28q-21 0 -35.5 14.5t-14.5 35.5z" />
    <glyph glyph-name="Tcaron" unicode="&#x164;" 
d="M475 560h-190v-560h-80v560h-190v70h460v-70zM280 700h-70l-90 120h75l50 -70l50 70h75z" />
    <glyph glyph-name="tcaron" unicode="&#x165;" horiz-adv-x="330" 
d="M310 630h70l-60 -120h-45zM110 570h65v-120h100v-70h-100v-235q0 -38 20.5 -59t54.5 -21q10 0 18 2q4 1 7 3v-65q-5 -3 -11 -5q-13 -5 -34 -5q-26 0 -49.5 11t-41.5 30.5t-28.5 47t-10.5 61.5v235h-80v70h35q55 0 55 55v65z" />
    <glyph glyph-name="Umacron" unicode="&#x16a;" horiz-adv-x="600" 
d="M300 -5q-51 0 -93 17t-72.5 47t-47.5 71t-17 90v410h80v-410q0 -72 41 -113.5t109 -41.5t109 41.5t41 113.5v410h80v-410q0 -49 -17 -90t-47.5 -71t-72.5 -47t-93 -17zM420 720h-240v60h240v-60z" />
    <glyph glyph-name="umacron" unicode="&#x16b;" horiz-adv-x="505" 
d="M240 -5q-36 0 -67.5 14.5t-55.5 40t-38 61.5t-14 79v260h75v-260q0 -28 8.5 -51t23.5 -39.5t35 -25.5t43 -9q53 0 86.5 34t33.5 91v260h75v-450h-55l-20 50q-14 -16 -33 -28q-17 -11 -41 -19t-56 -8zM375 540h-240v60h240v-60z" />
    <glyph glyph-name="Uring" unicode="&#x16e;" horiz-adv-x="600" 
d="M300 -5q-51 0 -93 17t-72.5 47t-47.5 71t-17 90v410h80v-410q0 -72 41 -113.5t109 -41.5t109 41.5t41 113.5v410h80v-410q0 -49 -17 -90t-47.5 -71t-72.5 -47t-93 -17zM260 770q0 -15 10 -25t25 -10t25 10t10 25t-10 25t-25 10t-25 -10t-10 -25zM375 770q0 -34 -23 -57
t-57 -23t-57 23t-23 57t23 57t57 23t57 -23t23 -57z" />
    <glyph glyph-name="uring" unicode="&#x16f;" horiz-adv-x="505" 
d="M240 -5q-36 0 -67.5 14.5t-55.5 40t-38 61.5t-14 79v260h75v-260q0 -28 8.5 -51t23.5 -39.5t35 -25.5t43 -9q53 0 86.5 34t33.5 91v260h75v-450h-55l-20 50q-14 -16 -33 -28q-17 -11 -41 -19t-56 -8zM220 589q0 -15 10 -25t25 -10t25 10t10 25t-10 25t-25 10t-25 -10
t-10 -25zM335 589q0 -34 -23 -57t-57 -23t-57 23t-23 57t23 57t57 23t57 -23t23 -57z" />
    <glyph glyph-name="Uhungarumlaut" unicode="&#x170;" horiz-adv-x="600" 
d="M300 -5q-51 0 -93 17t-72.5 47t-47.5 71t-17 90v410h80v-410q0 -72 41 -113.5t109 -41.5t109 41.5t41 113.5v410h80v-410q0 -49 -17 -90t-47.5 -71t-72.5 -47t-93 -17zM265 825h75l-90 -120h-50zM405 825h75l-90 -120h-50z" />
    <glyph glyph-name="uhungarumlaut" unicode="&#x171;" horiz-adv-x="505" 
d="M240 -5q-36 0 -67.5 14.5t-55.5 40t-38 61.5t-14 79v260h75v-260q0 -28 8.5 -51t23.5 -39.5t35 -25.5t43 -9q53 0 86.5 34t33.5 91v260h75v-450h-55l-20 50q-14 -16 -33 -28q-17 -11 -41 -19t-56 -8zM225 645h75l-90 -120h-50zM365 645h75l-90 -120h-50z" />
    <glyph glyph-name="Uogonek" unicode="&#x172;" horiz-adv-x="600" 
d="M530 220q0 -47 -14 -85t-39.5 -66t-60.5 -45.5t-76 -23.5q-10 -14 -18 -28q-7 -12 -12 -27t-5 -30q0 -19 13 -32t32 -13q8 0 14.5 0.5t12.5 1.5t13 3v-40q-7 -2 -13 -3t-12.5 -1.5t-14.5 -0.5q-45 0 -70 23.5t-25 61.5q0 15 4.5 29.5t10.5 25.5q7 13 16 25
q-45 2 -84.5 19.5t-69 47.5t-46 70.5t-16.5 87.5v410h80v-410q0 -72 41 -113.5t109 -41.5t109 41.5t41 113.5v410h80v-410v0z" />
    <glyph glyph-name="uogonek" unicode="&#x173;" horiz-adv-x="505" 
d="M370 50q-14 -16 -33 -28q-17 -11 -41 -19t-56 -8q-36 0 -67.5 14.5t-55.5 40t-38 61.5t-14 79v260h75v-260q0 -28 8.5 -51t23.5 -39.5t35 -25.5t43 -9q53 0 86.5 34t33.5 91v260h75v-450h-5q-10 -12 -18 -26q-7 -12 -12 -27t-5 -32q0 -19 13 -32t32 -13q8 0 14.5 0.5
t12.5 1.5t13 3v-40q-7 -2 -13 -3t-12.5 -1.5t-14.5 -0.5q-45 0 -70 23.5t-25 61.5q0 17 5 32t12 27q8 14 18 26z" />
    <glyph glyph-name="Ydieresis" unicode="&#x178;" horiz-adv-x="500" 
d="M10 630h85l155 -300l155 300h85l-200 -385v-245h-80v245zM175 715q-19 0 -32 13t-13 32t13 32t32 13t32 -13t13 -32t-13 -32t-32 -13zM325 715q-19 0 -32 13t-13 32t13 32t32 13t32 -13t13 -32t-13 -32t-32 -13z" />
    <glyph glyph-name="Zacute" unicode="&#x179;" horiz-adv-x="495" 
d="M135 70h325v-70h-425v50l310 510h-300v70h400v-50zM280 825h75l-85 -120h-50z" />
    <glyph glyph-name="zacute" unicode="&#x17a;" horiz-adv-x="390" 
d="M255 380h-220v70h310v-65l-220 -315h230v-70h-320v65zM225 645h75l-85 -120h-50z" />
    <glyph glyph-name="Zdotaccent" unicode="&#x17b;" horiz-adv-x="495" 
d="M135 70h325v-70h-425v50l310 510h-300v70h400v-50zM195 757q0 21 13.5 34.5t33.5 13.5q21 0 34.5 -13.5t13.5 -34.5q0 -20 -13.5 -33.5t-34.5 -13.5q-20 0 -33.5 13.5t-13.5 33.5z" />
    <glyph glyph-name="zdotaccent" unicode="&#x17c;" horiz-adv-x="390" 
d="M255 380h-220v70h310v-65l-220 -315h230v-70h-320v65zM145 577q0 21 13.5 34.5t33.5 13.5q21 0 34.5 -13.5t13.5 -34.5q0 -20 -13.5 -33.5t-34.5 -13.5q-20 0 -33.5 13.5t-13.5 33.5z" />
    <glyph glyph-name="Zcaron" unicode="&#x17d;" horiz-adv-x="495" 
d="M135 70h325v-70h-425v50l310 510h-300v70h400v-50zM280 700h-70l-90 120h75l50 -70l50 70h75z" />
    <glyph glyph-name="zcaron" unicode="&#x17e;" horiz-adv-x="390" 
d="M255 380h-220v70h310v-65l-220 -315h230v-70h-320v65zM225 520h-70l-90 120h75l50 -70l50 70h75z" />
    <glyph glyph-name="florin" unicode="&#x192;" horiz-adv-x="320" 
d="M130 -15q-6 -32 -20.5 -59.5t-35 -47.5t-46 -31.5t-53.5 -11.5q-22 0 -34 5q-7 2 -11 5l15 65q3 -2 7 -3q8 -2 18 -2q34 0 55.5 21t29.5 59l60 325h-70l10 70h70l20 105q6 32 20.5 59.5t35 47.5t46 31.5t53.5 11.5q11 0 19.5 -1.5t14.5 -3.5q6 -3 11 -5l-15 -65
q-3 1 -7 2q-3 1 -8 2t-10 1q-34 0 -55.5 -21t-29.5 -59l-20 -105h100l-10 -70h-100z" />
    <glyph glyph-name="Scommaaccent" unicode="&#x218;" horiz-adv-x="495" 
d="M45 465q0 32 15 62.5t42.5 54.5t65 38.5t82.5 14.5q41 0 76.5 -15t62 -40.5t41.5 -60.5t15 -74h-80q0 53 -33 86.5t-82 33.5q-28 0 -51 -8.5t-39.5 -22.5t-25.5 -32t-9 -37q0 -39 25 -60.5t62 -36t80.5 -27t80.5 -33t62 -54t25 -89.5q0 -34 -14.5 -64.5t-41.5 -54
t-66 -37.5t-88 -14t-88 14t-66 39.5t-41.5 60.5t-14.5 76h80q0 -57 33 -88.5t97 -31.5t97 29t33 71q0 39 -25 60.5t-62 36t-80.5 27t-80.5 33t-62 54t-25 89.5zM195 -106q0 21 14.5 35.5t35.5 14.5t35.5 -14.5t14.5 -35.5q0 -36 -12 -62.5t-26 -43.5q-17 -20 -37 -34l-15 20
q10 9 18 20q7 9 13.5 22t8.5 28q-21 0 -35.5 14.5t-14.5 35.5z" />
    <glyph glyph-name="scommaaccent" unicode="&#x219;" horiz-adv-x="395" 
d="M360 130q0 -28 -11 -52.5t-31 -43t-48.5 -29t-64.5 -10.5q-75 0 -118 40t-47 100h75q4 -30 26 -50t64 -20q38 0 59 19.5t21 45.5q0 25 -17.5 37.5t-43.5 20t-56.5 14t-56.5 19.5t-43.5 37t-17.5 67q0 26 11 49.5t30.5 41.5t47 28.5t61.5 10.5q72 0 111.5 -37.5
t43.5 -97.5h-75q-4 30 -23 47.5t-57 17.5q-34 0 -54.5 -18.5t-20.5 -41.5q0 -25 17.5 -37.5t43.5 -20t56.5 -14t56.5 -19.5t43.5 -37.5t17.5 -66.5zM150 -115q0 21 14.5 35.5t35.5 14.5t35.5 -14.5t14.5 -35.5q0 -36 -12 -62.5t-26 -43.5q-17 -20 -37 -34l-15 20q10 9 18 20
q7 9 13.5 22t8.5 28q-21 0 -35.5 14.5t-14.5 35.5z" />
    <glyph glyph-name="uni021A" unicode="&#x21a;" 
d="M475 560h-190v-560h-80v560h-190v70h460v-70zM200 -115q0 21 14.5 35.5t35.5 14.5t35.5 -14.5t14.5 -35.5q0 -36 -12 -62.5t-26 -43.5q-17 -20 -37 -34l-15 20q10 9 18 20q7 9 13.5 22t8.5 28q-21 0 -35.5 14.5t-14.5 35.5z" />
    <glyph glyph-name="uni021B" unicode="&#x21b;" horiz-adv-x="320" 
d="M110 570h65v-120h100v-70h-100v-235q0 -38 20.5 -59t54.5 -21q10 0 18 2q4 1 7 3v-65q-5 -3 -11 -5q-13 -5 -34 -5q-26 0 -49.5 11t-41.5 30.5t-28.5 47t-10.5 61.5v235h-80v70h35q55 0 55 55v65zM145 -115q0 21 14.5 35.5t35.5 14.5t35.5 -14.5t14.5 -35.5
q0 -36 -12 -62.5t-26 -43.5q-17 -20 -37 -34l-15 20q10 9 18 20q7 9 13.5 22t8.5 28q-21 0 -35.5 14.5t-14.5 35.5z" />
    <glyph glyph-name="afii57929" unicode="&#x2bc;" horiz-adv-x="160" 
d="M30 580q0 21 14.5 35.5t35.5 14.5t35.5 -14.5t14.5 -35.5q0 -36 -12 -62.5t-26 -43.5q-17 -20 -37 -34l-15 20q10 9 18 20q7 9 13.5 22t8.5 28q-21 0 -35.5 14.5t-14.5 35.5z" />
    <glyph glyph-name="circumflex" unicode="&#x2c6;" horiz-adv-x="310" 
d="M280 505h-75l-50 70l-50 -70h-75l90 120h70z" />
    <glyph glyph-name="caron" unicode="&#x2c7;" horiz-adv-x="310" 
d="M190 505h-70l-90 120h75l50 -70l50 70h75z" />
    <glyph glyph-name="breve" unicode="&#x2d8;" horiz-adv-x="300" 
d="M150 515q-49 0 -80.5 32.5t-39.5 77.5h60q4 -26 20.5 -43t39.5 -17t39.5 17t20.5 43h60q-8 -45 -39.5 -77.5t-80.5 -32.5z" />
    <glyph glyph-name="dotaccent" unicode="&#x2d9;" horiz-adv-x="155" 
d="M30 577q0 21 13.5 34.5t33.5 13.5q21 0 34.5 -13.5t13.5 -34.5q0 -20 -13.5 -33.5t-34.5 -13.5q-20 0 -33.5 13.5t-13.5 33.5z" />
    <glyph glyph-name="ring" unicode="&#x2da;" horiz-adv-x="220" 
d="M75 580q0 -15 10 -25t25 -10t25 10t10 25t-10 25t-25 10t-25 -10t-10 -25zM190 580q0 -34 -23 -57t-57 -23t-57 23t-23 57t23 57t57 23t57 -23t23 -57z" />
    <glyph glyph-name="ogonek" unicode="&#x2db;" horiz-adv-x="195" 
d="M115 0q-10 -12 -18 -26q-7 -12 -12 -27t-5 -32q0 -19 13 -32t32 -13q8 0 14.5 0.5t12.5 1.5t13 3v-40q-7 -2 -13 -3t-12.5 -1.5t-14.5 -0.5q-45 0 -70 23.5t-25 61.5q0 17 5 32t12 27q8 14 18 26h50z" />
    <glyph glyph-name="tilde" unicode="&#x2dc;" horiz-adv-x="340" 
d="M225 565q15 0 27.5 15t12.5 45h45q0 -57 -25.5 -86t-59.5 -29q-23 0 -38 10t-26.5 22.5t-22 22.5t-23.5 10q-15 0 -27.5 -15t-12.5 -45h-45q0 57 25.5 86t59.5 29q22 0 37.5 -10t27 -22.5t22 -22.5t23.5 -10z" />
    <glyph glyph-name="hungarumlaut" unicode="&#x2dd;" horiz-adv-x="340" 
d="M95 630h75l-90 -120h-50zM235 630h75l-90 -120h-50z" />
    <glyph glyph-name="afii10023" unicode="&#x401;" horiz-adv-x="540" 
d="M490 70v-70h-410v630h400v-70h-320v-200h295v-70h-295v-220h330zM205 715q-19 0 -32 13t-13 32t13 32t32 13t32 -13t13 -32t-13 -32t-32 -13zM355 715q-19 0 -32 13t-13 32t13 32t32 13t32 -13t13 -32t-13 -32t-32 -13z" />
    <glyph glyph-name="afii10051" unicode="&#x402;" horiz-adv-x="615" 
d="M360 335q-28 0 -52.5 -10.5t-43 -29t-29 -43t-10.5 -52.5v-200h-80v560h-145v70h375v-70h-150v-230q17 20 39 37q19 14 45.5 26t60.5 12q43 0 80.5 -16t65 -45.5t43.5 -71t16 -92.5q0 -109 -59 -169.5t-161 -60.5v70q28 0 53.5 11.5t44.5 32.5t30.5 50.5t11.5 65.5
t-10.5 64.5t-29 48.5t-43 31t-52.5 11z" />
    <glyph glyph-name="afii10052" unicode="&#x403;" horiz-adv-x="450" 
d="M160 560v-560h-80v630h360v-70h-280zM290 825h75l-85 -120h-50z" />
    <glyph glyph-name="afii10053" unicode="&#x404;" horiz-adv-x="625" 
d="M370 280h-255q6 -45 25.5 -84t48 -68.5t63.5 -46t73 -16.5q37 0 68 10.5t54.5 28.5t39 41.5t23.5 49.5h85q-13 -41 -37 -77.5t-58.5 -63.5t-78.5 -43t-96 -16q-56 0 -108.5 24.5t-93 68t-64.5 101.5t-24 126q0 67 24 125.5t64.5 102t93 68t108.5 24.5q51 0 93.5 -16.5
t76.5 -44.5t58 -65.5t37 -78.5h-85q-8 26 -23.5 50.5t-38.5 43t-52.5 30t-65.5 11.5q-38 0 -73 -16.5t-63.5 -46t-48 -68.5t-25.5 -84h255v-70z" />
    <glyph glyph-name="afii10054" unicode="&#x405;" horiz-adv-x="495" 
d="M45 465q0 32 15 62.5t42.5 54.5t65 38.5t82.5 14.5q41 0 76.5 -15t62 -40.5t41.5 -60.5t15 -74h-80q0 53 -33 86.5t-82 33.5q-28 0 -51 -8.5t-39.5 -22.5t-25.5 -32t-9 -37q0 -39 25 -60.5t62 -36t80.5 -27t80.5 -33t62 -54t25 -89.5q0 -34 -14.5 -64.5t-41.5 -54
t-66 -37.5t-88 -14t-88 14t-66 39.5t-41.5 60.5t-14.5 76h80q0 -57 33 -88.5t97 -31.5t97 29t33 71q0 39 -25 60.5t-62 36t-80.5 27t-80.5 33t-62 54t-25 89.5z" />
    <glyph glyph-name="afii10055" unicode="&#x406;" horiz-adv-x="240" 
d="M160 0h-80v630h80v-630z" />
    <glyph glyph-name="afii10056" unicode="&#x407;" horiz-adv-x="260" 
d="M170 0h-80v630h80v-630zM55 715q-19 0 -32 13t-13 32t13 32t32 13t32 -13t13 -32t-13 -32t-32 -13zM205 715q-19 0 -32 13t-13 32t13 32t32 13t32 -13t13 -32t-13 -32t-32 -13z" />
    <glyph glyph-name="afii10057" unicode="&#x408;" horiz-adv-x="460" 
d="M390 631v-461q0 -36 -14 -67.5t-39.5 -55.5t-60.5 -38t-76 -14t-76 14t-60.5 38t-39.5 55.5t-14 67.5h80q4 -45 34.5 -75t75.5 -30q49 0 79.5 30t30.5 75v461h80z" />
    <glyph glyph-name="afii10058" unicode="&#x409;" horiz-adv-x="895" 
d="M445 0v560h-215l-30 -375q-8 -91 -55 -140.5t-115 -49.5q-8 0 -14 0.5t-11 1.5t-10 3v65h10q49 0 79.5 31.5t35.5 88.5l35 445h370v-240h140q41 0 77.5 -15.5t63.5 -42.5t43 -62.5t16 -74.5t-16 -74.5t-43 -62.5t-63.5 -42.5t-77.5 -15.5h-220zM525 320v-250h140
q24 0 46 9.5t38.5 26.5t26 40t9.5 49t-9.5 49t-26 40t-38.5 26.5t-46 9.5h-140z" />
    <glyph glyph-name="afii10059" unicode="&#x40a;" horiz-adv-x="895" 
d="M445 0v320h-285v-320h-80v630h80v-240h285v240h80v-240h140q41 0 77.5 -15.5t63.5 -42.5t43 -62.5t16 -74.5t-16 -74.5t-43 -62.5t-63.5 -42.5t-77.5 -15.5h-220zM525 320v-250h140q24 0 46 9.5t38.5 26.5t26 40t9.5 49t-9.5 49t-26 40t-38.5 26.5t-46 9.5h-140z" />
    <glyph glyph-name="afii10060" unicode="&#x40b;" horiz-adv-x="625" 
d="M365 405q41 0 76.5 -15t62 -42.5t41.5 -65t15 -82.5v-200h-80v200q0 30 -9.5 55t-26.5 42.5t-40 27.5t-49 10t-49.5 -10.5t-41.5 -29t-28.5 -43t-10.5 -52.5v-200h-80v560h-145v70h375v-70h-150v-230q17 20 38 37q18 14 44 26t58 12z" />
    <glyph glyph-name="afii10061" unicode="&#x40c;" horiz-adv-x="525" 
d="M310 825h75l-85 -120h-50zM160 0h-80v630h80v-630zM160 320l245 310h95l-250 -310l270 -320h-95z" />
    <glyph glyph-name="afii10062" unicode="&#x40e;" horiz-adv-x="510" 
d="M500 630l-220 -500q-32 -72 -66.5 -106t-83.5 -34q-20 0 -37 5q-10 2 -18 5v65q5 -2 10 -3t11 -1.5t14 -0.5q30 0 50.5 18t34.5 52l20 45l-205 455h90l160 -360l155 360h85zM255 705q-49 0 -80.5 32.5t-39.5 77.5h60q4 -26 20.5 -43t39.5 -17t39.5 17t20.5 43h60
q-8 -45 -39.5 -77.5t-80.5 -32.5z" />
    <glyph glyph-name="afii10145" unicode="&#x40f;" horiz-adv-x="615" 
d="M80 0v630h80v-560h290v560h80v-630h-185v-130h-80v130h-185z" />
    <glyph glyph-name="afii10017" unicode="&#x410;" horiz-adv-x="550" 
d="M405 155h-260l-60 -155h-85l240 630h70l240 -630h-85zM170 225h210l-105 275z" />
    <glyph glyph-name="afii10018" unicode="&#x411;" horiz-adv-x="555" 
d="M80 630h390v-80h-310v-180h165q41 0 76 -14t60.5 -39t39.5 -59t14 -73t-14 -73t-39.5 -59t-60.5 -39t-76 -14h-245v630zM160 300v-230h165q49 0 79.5 31t30.5 84t-30.5 84t-79.5 31h-165z" />
    <glyph glyph-name="afii10019" unicode="&#x412;" horiz-adv-x="560" 
d="M425 335q26 -13 47 -34q18 -18 33 -48t15 -73q0 -35 -15 -67.5t-42 -57.5t-63.5 -40t-79.5 -15h-240v630h235q39 0 72 -13t57 -36t37.5 -54t13.5 -67q0 -34 -11 -57.5t-24 -38.5q-16 -18 -35 -29zM160 365h155q22 0 41.5 8t33.5 21t22 30t8 36q0 21 -8 39t-22 31.5
t-33.5 21.5t-41.5 8h-155v-195zM320 70q53 0 86.5 33t33.5 82q0 22 -9 42t-25 35t-38 24t-48 9h-160v-225h160z" />
    <glyph glyph-name="afii10020" unicode="&#x413;" horiz-adv-x="450" 
d="M160 560v-560h-80v630h360v-70h-280z" />
    <glyph glyph-name="afii10021" unicode="&#x414;" horiz-adv-x="605" 
d="M585 70v-200h-75v130h-435v-130h-75v200h35q17 13 31 31q12 16 23.5 39t15.5 55l50 435h360v-560h70zM435 560h-207l-43 -365q-4 -32 -12.5 -55t-16.5 -39q-10 -18 -21 -31h300v490z" />
    <glyph glyph-name="afii10022" unicode="&#x415;" horiz-adv-x="540" 
d="M490 70v-70h-410v630h400v-70h-320v-200h295v-70h-295v-220h330z" />
    <glyph glyph-name="afii10024" unicode="&#x416;" horiz-adv-x="740" 
d="M330 630h80v-630h-80v630zM90 0h-95l245 320l-225 310h95l220 -310zM410 320l220 310h95l-225 -310l245 -320h-95z" />
    <glyph glyph-name="afii10025" unicode="&#x417;" 
d="M35 460q4 37 19.5 69.5t41 55.5t61 36.5t78.5 13.5t79 -14t61.5 -38t40 -55.5t14.5 -67.5q0 -34 -13.5 -58.5t-29.5 -40.5q-18 -18 -42 -31q29 -13 52 -34q20 -18 36.5 -48t16.5 -73q0 -36 -15 -68.5t-43 -57t-66.5 -39.5t-85.5 -15t-84.5 13.5t-64.5 36.5t-43.5 55
t-22.5 70h80q8 -45 41.5 -75t93.5 -30t95 32.5t35 77.5t-35 77.5t-95 32.5h-46v70h41q53 0 84 30t31 75t-31 75t-84 30t-84.5 -30t-35.5 -75h-80z" />
    <glyph glyph-name="afii10026" unicode="&#x418;" horiz-adv-x="625" 
d="M465 0v485l-315 -485h-70v630h80v-485l315 485h70v-630h-80z" />
    <glyph glyph-name="afii10027" unicode="&#x419;" horiz-adv-x="625" 
d="M465 0v485l-315 -485h-70v630h80v-485l315 485h70v-630h-80zM315 700q-53 0 -85 30.5t-40 79.5h60q4 -26 21.5 -43t43.5 -17t43.5 17t21.5 43h60q-8 -49 -40 -79.5t-85 -30.5z" />
    <glyph glyph-name="afii10028" unicode="&#x41a;" horiz-adv-x="515" 
d="M160 0h-80v630h80v-630zM160 320l245 310h95l-250 -310l270 -320h-95z" />
    <glyph glyph-name="afii10029" unicode="&#x41b;" horiz-adv-x="620" 
d="M540 630v-630h-80v560h-230l-30 -375q-8 -91 -55 -140.5t-115 -49.5q-8 0 -14 0.5t-11 1.5t-10 3v65h10q49 0 79.5 31.5t35.5 88.5l35 445h385z" />
    <glyph glyph-name="afii10030" unicode="&#x41c;" horiz-adv-x="760" 
d="M615 630h65v-630h-80v425l-195 -425h-50l-195 425v-425h-80v630h65l235 -505z" />
    <glyph glyph-name="afii10031" unicode="&#x41d;" horiz-adv-x="625" 
d="M545 630v-630h-80v285h-305v-285h-80v630h80v-275h305v275h80z" />
    <glyph glyph-name="afii10032" unicode="&#x41e;" horiz-adv-x="660" 
d="M115 315q0 -54 18 -100t48 -79.5t69 -52t80 -18.5t80 18.5t69 52t48 79.5t18 100t-18 100t-48 79.5t-69 52t-80 18.5t-80 -18.5t-69 -52t-48 -79.5t-18 -100zM625 315q0 -68 -24.5 -126t-65 -101.5t-94 -68t-111.5 -24.5t-111.5 24.5t-94 68t-65 101.5t-24.5 126
q0 67 24.5 125.5t65 102t94 68t111.5 24.5t111.5 -24.5t94 -68t65 -102t24.5 -125.5z" />
    <glyph glyph-name="afii10033" unicode="&#x41f;" horiz-adv-x="630" 
d="M550 630v-630h-80v560h-310v-560h-80v630h470z" />
    <glyph glyph-name="afii10034" unicode="&#x420;" horiz-adv-x="535" 
d="M295 630q41 0 77.5 -15.5t63.5 -42.5t43 -62.5t16 -74.5t-16 -74.5t-43 -62.5t-63.5 -42.5t-77.5 -15.5h-135v-240h-80v630h215zM295 310q24 0 46 9.5t38.5 26.5t26 40t9.5 49t-9.5 49t-26 40t-38.5 26.5t-46 9.5h-135v-250h135z" />
    <glyph glyph-name="afii10035" unicode="&#x421;" horiz-adv-x="635" 
d="M335 565q-41 0 -80 -18.5t-69 -52t-48 -79.5t-18 -100t18 -100t48 -79.5t69 -52t80 -18.5q37 0 68 11.5t54.5 31t39 46t23.5 56.5h85q-13 -45 -37 -84t-58.5 -68.5t-78.5 -46t-96 -16.5q-58 0 -111.5 24.5t-94 68t-65 101.5t-24.5 126q0 67 24.5 125.5t65 102t94 68
t111.5 24.5q51 0 93.5 -16.5t76.5 -46t58 -68.5t37 -84h-85q-8 30 -23.5 56.5t-38.5 46t-52.5 31t-65.5 11.5z" />
    <glyph glyph-name="afii10036" unicode="&#x422;" 
d="M475 560h-190v-560h-80v560h-190v70h460v-70z" />
    <glyph glyph-name="afii10037" unicode="&#x423;" horiz-adv-x="510" 
d="M500 630l-220 -500q-32 -72 -66.5 -106t-83.5 -34q-20 0 -37 5q-10 2 -18 5v65q5 -2 10 -3t11 -1.5t14 -0.5q30 0 50.5 18t34.5 52l20 45l-205 455h90l160 -360l155 360h85z" />
    <glyph glyph-name="afii10038" unicode="&#x424;" horiz-adv-x="720" 
d="M40 325q0 51 18.5 94t54 75.5t87.5 52t120 23.5v60h80v-60q67 -4 119.5 -23.5t88 -52t54 -75.5t18.5 -94t-18.5 -94t-54 -75.5t-88 -52t-119.5 -23.5v-85h-80v85q-68 4 -120 23.5t-87.5 52t-54 75.5t-18.5 94zM320 500q-47 -2 -84 -16t-63 -37.5t-39.5 -54.5t-13.5 -67
t13.5 -67t39.5 -54.5t63 -37.5t84 -16v350zM400 150q47 2 84 16t63 37.5t39.5 54.5t13.5 67t-13.5 67t-39.5 54.5t-63 37.5t-84 16v-350z" />
    <glyph glyph-name="afii10039" unicode="&#x425;" horiz-adv-x="520" 
d="M215 320l-195 310h90l150 -240l150 240h90l-195 -310l205 -320h-95l-155 250l-155 -250h-95z" />
    <glyph glyph-name="afii10040" unicode="&#x426;" horiz-adv-x="620" 
d="M600 70v-200h-75v130h-445v630h80v-560h290v560h80v-560h70z" />
    <glyph glyph-name="afii10041" unicode="&#x427;" horiz-adv-x="590" 
d="M510 630v-630h-80v235q-21 -13 -46 -23q-21 -8 -49 -15t-60 -7q-94 0 -149.5 56t-55.5 154v230h80v-230q0 -68 35 -104t95 -36q30 0 57 7t48 15q24 10 45 23v325h80z" />
    <glyph glyph-name="afii10042" unicode="&#x428;" horiz-adv-x="840" 
d="M760 630v-630h-680v630h80v-560h220v560h80v-560h220v560h80z" />
    <glyph glyph-name="afii10043" unicode="&#x429;" horiz-adv-x="850" 
d="M80 0v630h80v-560h220v560h80v-560h220v560h80v-560h70v-200h-75v130h-675z" />
    <glyph glyph-name="afii10044" unicode="&#x42a;" horiz-adv-x="600" 
d="M0 630h230v-240h140q41 0 77.5 -15.5t63.5 -42.5t43 -62.5t16 -74.5t-16 -74.5t-43 -62.5t-63.5 -42.5t-77.5 -15.5h-220v560h-150v70zM230 320v-250h140q24 0 46 9.5t38.5 26.5t26 40t9.5 49t-9.5 49t-26 40t-38.5 26.5t-46 9.5h-140z" />
    <glyph glyph-name="afii10045" unicode="&#x42b;" horiz-adv-x="730" 
d="M650 0h-80v630h80v-630zM80 0v630h80v-240h130q41 0 77.5 -15.5t63.5 -42.5t43 -62.5t16 -74.5t-16 -74.5t-43 -62.5t-63.5 -42.5t-77.5 -15.5h-210zM160 320v-250h130q24 0 46 9.5t38.5 26.5t26 40t9.5 49t-9.5 49t-26 40t-38.5 26.5t-46 9.5h-130z" />
    <glyph glyph-name="afii10046" unicode="&#x42c;" horiz-adv-x="530" 
d="M80 0v630h80v-240h140q41 0 77.5 -15.5t63.5 -42.5t43 -62.5t16 -74.5t-16 -74.5t-43 -62.5t-63.5 -42.5t-77.5 -15.5h-220zM160 320v-250h140q24 0 46 9.5t38.5 26.5t26 40t9.5 49t-9.5 49t-26 40t-38.5 26.5t-46 9.5h-140z" />
    <glyph glyph-name="afii10047" unicode="&#x42d;" horiz-adv-x="620" 
d="M250 350h255q-6 45 -25.5 84t-48 68.5t-64 46t-72.5 16.5q-36 0 -65.5 -11.5t-52.5 -30t-39 -43t-23 -50.5h-85q13 41 37 78.5t58 65.5t76.5 44.5t93.5 16.5q56 0 108.5 -24.5t93 -68t64.5 -102t24 -125.5q0 -68 -24 -126t-64.5 -101.5t-93 -68t-108.5 -24.5
q-53 0 -96.5 16t-78 43t-58.5 63.5t-37 77.5h85q7 -26 23 -49.5t39.5 -41.5t54 -28.5t68.5 -10.5q37 0 72.5 16.5t64 46t48 68.5t25.5 84h-255v70z" />
    <glyph glyph-name="afii10048" unicode="&#x42e;" horiz-adv-x="840" 
d="M530 635q52 0 102 -24t88 -66.5t61.5 -101.5t23.5 -128t-23.5 -128t-61.5 -101.5t-88 -66.5t-102 -24q-51 0 -98 22t-84.5 60t-62 89t-30.5 109h-95v-275h-80v630h80v-285h95q6 62 30.5 115t62 92t84.5 61t98 22zM530 65q36 0 70.5 18t62.5 51t45 79t17 102t-17 102
t-45 79t-62.5 51t-70.5 18t-70.5 -18t-62.5 -51t-45 -79t-17 -102t17 -102t45 -79t62.5 -51t70.5 -18z" />
    <glyph glyph-name="afii10049" unicode="&#x42f;" horiz-adv-x="565" 
d="M125 0h-90l160 265q-39 12 -70 36q-26 20 -48 54.5t-22 89.5q0 37 15 71t40.5 59t60.5 40t74 15h235v-630h-80v260h-119zM400 560h-155q-23 0 -43 -9t-35 -24.5t-23.5 -36.5t-8.5 -45t8.5 -45t23.5 -36.5t35 -24.5t43 -9h155v230z" />
    <glyph glyph-name="afii10065" unicode="&#x430;" horiz-adv-x="465" 
d="M235 455q37 0 68.5 -12.5t54 -33.5t35 -49t12.5 -60v-300h-55l-20 50q-15 -16 -34 -28q-17 -11 -42 -19t-59 -8t-61.5 10.5t-47 29t-30.5 43t-11 52.5q0 32 13 58.5t45 46t87.5 30t139.5 10.5v25q0 34 -26.5 59.5t-68.5 25.5t-62 -17.5t-28 -47.5h-80q4 28 17 52.5
t34.5 43t51 29t67.5 10.5zM195 65q30 0 55 9.5t42.5 24.5t27.5 33.5t10 37.5v35q-68 0 -109 -5.5t-63.5 -16t-30 -25t-7.5 -33.5q0 -23 20.5 -41.5t54.5 -18.5z" />
    <glyph glyph-name="afii10066" unicode="&#x431;" horiz-adv-x="500" 
d="M115 360q15 20 37 37q19 14 47 26t66 12q39 0 75.5 -17t64 -46.5t44 -69.5t16.5 -87t-16 -87t-43.5 -69.5t-65 -46.5t-80.5 -17t-82 18.5t-68.5 54t-47 87.5t-17.5 120q0 97 18.5 164.5t61 110t112.5 63.5t173 27v-70q-81 -4 -135 -18t-87.5 -40t-50 -63.5t-22.5 -88.5z
M260 65q26 0 49.5 11t41.5 30.5t28.5 47t10.5 61.5t-10.5 61.5t-28.5 47t-41.5 30.5t-49.5 11t-50.5 -11.5t-43.5 -31.5t-30 -47.5t-11 -59.5t11 -59.5t30 -47.5t43.5 -31.5t50.5 -11.5z" />
    <glyph glyph-name="afii10067" unicode="&#x432;" horiz-adv-x="450" 
d="M340 235q19 -9 35 -23q13 -12 24 -32t11 -50q0 -57 -36.5 -93.5t-93.5 -36.5h-215v450h200q28 0 52 -9.5t41 -26.5t27 -40t10 -49q0 -25 -8.5 -41.5t-19.5 -27.5q-12 -12 -27 -21zM140 380v-115h115q30 0 47.5 16t17.5 39q0 26 -17.5 43t-47.5 17h-115zM270 70
q26 0 45.5 19.5t19.5 45.5q0 11 -5 22t-14 19.5t-21 13.5t-25 5h-130v-125h130z" />
    <glyph glyph-name="afii10068" unicode="&#x433;" horiz-adv-x="365" 
d="M355 380h-215v-380h-75v450h290v-70z" />
    <glyph glyph-name="afii10069" unicode="&#x434;" 
d="M470 70v-180h-70v110h-330v-110h-70v180h25q15 11 27 26q11 13 20.5 31t12.5 43l30 280h295v-380h60zM160 170q-2 -25 -9.5 -43t-15.5 -31q-10 -15 -20 -26h220v310h-153z" />
    <glyph glyph-name="afii10070" unicode="&#x435;" horiz-adv-x="475" 
d="M430 120q-11 -24 -28 -47t-40 -40t-52 -27.5t-65 -10.5q-43 0 -81.5 17t-67 47.5t-45 72.5t-16.5 93t16.5 93t44.5 72.5t65.5 47.5t78.5 17t77.5 -16t63.5 -45.5t43 -71t16 -92.5q0 -10 -1 -17t-2 -12q-1 -6 -2 -11h-320q2 -24 13.5 -47t29 -40t40.5 -27.5t47 -10.5
q21 0 37.5 6t30 14t22.5 17.5t15 17.5h80zM240 385q-23 0 -43.5 -10t-37.5 -27t-28.5 -41t-15.5 -52h245q-8 60 -41.5 95t-78.5 35z" />
    <glyph glyph-name="afii10072" unicode="&#x436;" horiz-adv-x="595" 
d="M260 450h75v-450h-75v450zM-5 0l180 240l-160 210h85l160 -215l-175 -235h-90zM510 0l-175 235l160 215h85l-160 -210l180 -240h-90z" />
    <glyph glyph-name="afii10073" unicode="&#x437;" horiz-adv-x="385" 
d="M280 230q18 -10 32 -24q12 -12 22.5 -31t10.5 -45q0 -28 -11 -52.5t-31 -43t-48.5 -29t-64.5 -10.5q-75 0 -118 40t-47 100h75q4 -30 26 -50t64 -20q38 0 59 19.5t21 45.5t-21.5 45.5t-58.5 19.5h-40v70h40q30 0 50 17t20 43t-20 43t-50 17q-42 0 -61.5 -19.5
t-23.5 -45.5h-75q4 60 44.5 97.5t115.5 37.5q32 0 58.5 -10.5t46 -28.5t30 -41.5t10.5 -49.5q0 -25 -8.5 -42.5t-19.5 -29.5q-12 -14 -27 -23z" />
    <glyph glyph-name="afii10074" unicode="&#x438;" horiz-adv-x="510" 
d="M445 450v-450h-75v335l-230 -335h-75v450h75v-335l230 335h75z" />
    <glyph glyph-name="afii10075" unicode="&#x439;" horiz-adv-x="510" 
d="M445 450v-450h-75v335l-230 -335h-75v450h75v-335l230 335h75zM255 520q-49 0 -80.5 32.5t-39.5 77.5h60q4 -26 20.5 -43t39.5 -17t39.5 17t20.5 43h60q-8 -45 -39.5 -77.5t-80.5 -32.5z" />
    <glyph glyph-name="afii10076" unicode="&#x43a;" horiz-adv-x="415" 
d="M140 0h-75v450h75v-450zM330 0l-190 235l170 215h85l-170 -210l195 -240h-90z" />
    <glyph glyph-name="afii10077" unicode="&#x43b;" horiz-adv-x="480" 
d="M415 450v-450h-75v385h-165l-15 -240q-5 -72 -41.5 -111t-93.5 -39q-6 0 -11 0.5t-10 1.5t-9 3v65h10q73 0 80 80l25 305h305z" />
    <glyph glyph-name="afii10078" unicode="&#x43c;" horiz-adv-x="600" 
d="M275 0l-135 280v-280h-75v450h65l170 -350l170 350h65v-450h-75v280l-135 -280h-50z" />
    <glyph glyph-name="afii10079" unicode="&#x43d;" horiz-adv-x="510" 
d="M445 450v-450h-75v195h-230v-195h-75v450h75v-185h230v185h75z" />
    <glyph glyph-name="afii10080" unicode="&#x43e;" 
d="M110 225q0 -36 11 -65.5t30 -50.5t43.5 -32.5t50.5 -11.5t50.5 11.5t43 32.5t30 50.5t11.5 65.5t-11.5 65.5t-30 50.5t-43 32.5t-50.5 11.5t-50.5 -11.5t-43.5 -32.5t-30 -50.5t-11 -65.5zM455 225q0 -51 -16.5 -93t-45 -72.5t-67 -47.5t-81.5 -17t-81.5 17t-67 47.5
t-45 72.5t-16.5 93t16.5 93t45 72.5t67 47.5t81.5 17t81.5 -17t67 -47.5t45 -72.5t16.5 -93z" />
    <glyph glyph-name="afii10081" unicode="&#x43f;" horiz-adv-x="510" 
d="M445 450v-450h-75v380h-230v-380h-75v450h380z" />
    <glyph glyph-name="afii10082" unicode="&#x440;" horiz-adv-x="520" 
d="M130 225q0 -36 11.5 -65.5t30.5 -50.5t44.5 -32.5t53.5 -11.5t53.5 11.5t44.5 32.5t30.5 50.5t11.5 65.5t-11.5 65.5t-30.5 50.5t-44.5 32.5t-53.5 11.5t-53.5 -11.5t-44.5 -32.5t-30.5 -50.5t-11.5 -65.5zM140 400q14 15 34 27q17 11 42 19.5t59 8.5q43 0 81.5 -17
t67 -47.5t45 -72.5t16.5 -93t-16.5 -93t-45 -72.5t-67 -47.5t-81.5 -17q-34 0 -59 9.5t-42 20.5q-20 13 -34 30v-215h-75v610h55z" />
    <glyph glyph-name="afii10083" unicode="&#x441;" horiz-adv-x="470" 
d="M245 385q-26 0 -50.5 -11.5t-43.5 -32.5t-30 -50.5t-11 -65.5t11 -65.5t30 -50.5t43.5 -32.5t50.5 -11.5q22 0 41.5 8t35 21t26.5 30t17 36h75q-8 -34 -25 -64t-42.5 -52.5t-58 -35.5t-69.5 -13q-43 0 -81.5 17t-67 47.5t-45 72.5t-16.5 93t16.5 93t45 72.5t67 47.5
t81.5 17q37 0 69.5 -13t58 -35.5t42.5 -52.5t25 -64h-75q-6 19 -17 36t-26.5 30t-35 21t-41.5 8z" />
    <glyph glyph-name="afii10084" unicode="&#x442;" horiz-adv-x="385" 
d="M15 450h355v-70h-140v-380h-75v380h-140v70z" />
    <glyph glyph-name="afii10085" unicode="&#x443;" horiz-adv-x="450" 
d="M10 450h80l135 -345l135 345h80l-195 -490q-27 -68 -56.5 -96.5t-73.5 -28.5q-6 0 -11 0.5t-10 1.5t-9 3v60q34 0 51 15t29 45l20 50z" />
    <glyph glyph-name="afii10086" unicode="&#x444;" horiz-adv-x="705" 
d="M390 105q10 -13 24 -23q12 -8 28.5 -15t37.5 -7q49 0 82 39.5t33 125.5t-33 125.5t-82 39.5q-21 0 -37.5 -7.5t-28.5 -15.5q-14 -10 -24 -22v-240zM315 30q-12 -10 -27 -18q-13 -7 -30.5 -12t-37.5 -5q-38 0 -71.5 15.5t-58.5 45t-40 72.5t-15 97t15 97t40 72.5t58.5 45
t71.5 15.5q20 0 37.5 -5.5t30.5 -12.5q15 -8 27 -17v210h75v-210q12 9 27 17q13 7 30 12.5t38 5.5q37 0 71 -15.5t59 -45t40 -72.5t15 -97t-15 -97t-40 -72.5t-59 -45t-71 -15.5q-21 0 -38 5t-30 12q-15 8 -27 18v-190h-75v190zM315 345q-10 12 -24 22q-12 8 -29 15.5
t-37 7.5q-49 0 -82 -39.5t-33 -125.5t33 -125.5t82 -39.5q20 0 37 7t29 15q14 10 24 23v240z" />
    <glyph glyph-name="afii10087" unicode="&#x445;" horiz-adv-x="410" 
d="M250 230l160 -230h-85l-120 175l-120 -175h-85l160 230l-150 220h85l110 -165l110 165h85z" />
    <glyph glyph-name="afii10088" unicode="&#x446;" horiz-adv-x="515" 
d="M495 70v-180h-70v110h-360v450h75v-380h220v380h75v-380h60z" />
    <glyph glyph-name="afii10089" unicode="&#x447;" horiz-adv-x="480" 
d="M415 450v-450h-75v165q-16 -9 -35 -15q-17 -6 -41 -10.5t-54 -4.5q-34 0 -62.5 11.5t-49 33.5t-32 52t-11.5 68v150h75v-150q0 -42 27.5 -68.5t72.5 -26.5q23 0 42.5 5t34.5 12q18 8 33 18v210h75z" />
    <glyph glyph-name="afii10090" unicode="&#x448;" horiz-adv-x="685" 
d="M620 450v-450h-555v450h75v-380h165v380h75v-380h165v380h75z" />
    <glyph glyph-name="afii10091" unicode="&#x449;" horiz-adv-x="700" 
d="M610 -110v110h-545v450h75v-380h165v380h75v-380h165v380h75v-380h60v-180h-70z" />
    <glyph glyph-name="afii10092" unicode="&#x44a;" horiz-adv-x="475" 
d="M0 450h185v-160h110q72 0 113.5 -40.5t41.5 -104.5t-41.5 -104.5t-113.5 -40.5h-185v385h-110v65zM295 70q34 0 57 22.5t23 52.5t-23 52.5t-57 22.5h-110v-150h110z" />
    <glyph glyph-name="afii10093" unicode="&#x44b;" horiz-adv-x="605" 
d="M540 450v-450h-75v450h75zM240 290q72 0 113.5 -40.5t41.5 -104.5t-41.5 -104.5t-113.5 -40.5h-175v450h75v-160h100zM240 70q34 0 57 22.5t23 52.5t-23 52.5t-57 22.5h-100v-150h100z" />
    <glyph glyph-name="afii10094" unicode="&#x44c;" horiz-adv-x="430" 
d="M250 290q72 0 113.5 -40.5t41.5 -104.5t-41.5 -104.5t-113.5 -40.5h-185v450h75v-160h110zM250 70q34 0 57 20.5t23 54.5q0 30 -23 52.5t-57 22.5h-110v-150h110z" />
    <glyph glyph-name="afii10095" unicode="&#x44d;" horiz-adv-x="460" 
d="M185 255h165q-8 57 -42.5 93.5t-87.5 36.5q-49 0 -79 -25.5t-41 -59.5h-75q7 32 24 60t41.5 49t57.5 33.5t72 12.5q41 0 78.5 -17t65.5 -47.5t44.5 -72.5t16.5 -93t-16.5 -93t-44.5 -72.5t-65.5 -47.5t-78.5 -17q-39 0 -72 12.5t-57.5 33.5t-41.5 49t-24 60h75
q11 -34 41 -59.5t79 -25.5q24 0 46 9.5t39.5 26.5t29 40t14.5 49h-164v65z" />
    <glyph glyph-name="afii10096" unicode="&#x44e;" horiz-adv-x="655" 
d="M65 450h75v-195h80q6 43 23.5 79.5t44.5 63.5t60.5 42t71.5 15q39 0 75.5 -17t64 -47.5t44 -72.5t16.5 -93t-16.5 -93t-44 -72.5t-64 -47.5t-75.5 -17q-38 0 -71.5 15t-60.5 41t-44.5 62t-23.5 77h-80v-190h-75v450zM295 225q0 -36 11 -65.5t29 -50.5t40 -32.5t45 -11.5
q22 0 44.5 11.5t40.5 32.5t29 50.5t11 65.5t-11 65.5t-29 50.5t-40.5 32.5t-44.5 11.5q-23 0 -45 -11.5t-40 -32.5t-29 -50.5t-11 -65.5z" />
    <glyph glyph-name="afii10097" unicode="&#x44f;" horiz-adv-x="460" 
d="M220 160l-100 -160h-85l105 170q-26 8 -45 26q-17 15 -31 41t-14 68q0 64 41.5 104.5t113.5 40.5h190v-450h-75v160h-100zM205 380q-34 0 -57 -22.5t-23 -52.5t23 -52.5t57 -22.5h115v150h-115z" />
    <glyph glyph-name="afii10071" unicode="&#x451;" horiz-adv-x="475" 
d="M430 120q-11 -24 -28 -47t-40 -40t-52 -27.5t-65 -10.5q-43 0 -81.5 17t-67 47.5t-45 72.5t-16.5 93t16.5 93t44.5 72.5t65.5 47.5t78.5 17t77.5 -16t63.5 -45.5t43 -71t16 -92.5q0 -10 -1 -17t-2 -12q-1 -6 -2 -11h-320q2 -24 13.5 -47t29 -40t40.5 -27.5t47 -10.5
q21 0 37.5 6t30 14t22.5 17.5t15 17.5h80zM240 385q-23 0 -43.5 -10t-37.5 -27t-28.5 -41t-15.5 -52h245q-8 60 -41.5 95t-78.5 35zM165 535q-19 0 -32 13t-13 32t13 32t32 13t32 -13t13 -32t-13 -32t-32 -13zM315 535q-19 0 -32 13t-13 32t13 32t32 13t32 -13t13 -32
t-13 -32t-32 -13z" />
    <glyph glyph-name="afii10099" unicode="&#x452;" horiz-adv-x="495" 
d="M270 340q-53 0 -86.5 -34t-33.5 -91v-215h-75v485h-75v65h75v80h75v-80h125v-65h-125v-135q14 17 33 30q17 11 41 20.5t56 9.5q37 0 70 -14.5t57.5 -43t38.5 -69.5t14 -93q0 -60 -14.5 -105t-40 -75t-61.5 -45t-79 -15v70q24 0 46 10.5t38.5 31.5t26 53t9.5 75
q0 36 -9.5 63.5t-25.5 47t-37 29.5t-43 10z" />
    <glyph glyph-name="afii10100" unicode="&#x453;" horiz-adv-x="365" 
d="M355 380h-215v-380h-75v450h290v-70zM242 640h75l-85 -120h-50z" />
    <glyph glyph-name="afii10101" unicode="&#x454;" horiz-adv-x="465" 
d="M275 190h-164q3 -26 14.5 -49t29 -40t39.5 -26.5t46 -9.5q49 0 79 25.5t41 59.5h75q-8 -32 -24.5 -60t-41 -49t-57.5 -33.5t-72 -12.5q-41 0 -78.5 17t-65.5 47.5t-44.5 72.5t-16.5 93t16.5 93t44.5 72.5t65.5 47.5t78.5 17q39 0 72 -12.5t57.5 -33.5t41 -49t24.5 -60
h-75q-11 34 -41 59.5t-79 25.5q-53 0 -87.5 -36.5t-42.5 -93.5h165v-65z" />
    <glyph glyph-name="afii10102" unicode="&#x455;" horiz-adv-x="395" 
d="M360 130q0 -28 -11 -52.5t-31 -43t-48.5 -29t-64.5 -10.5q-75 0 -118 40t-47 100h75q4 -30 26 -50t64 -20q38 0 59 19.5t21 45.5q0 25 -17.5 37.5t-43.5 20t-56.5 14t-56.5 19.5t-43.5 37t-17.5 67q0 26 11 49.5t30.5 41.5t47 28.5t61.5 10.5q72 0 111.5 -37.5
t43.5 -97.5h-75q-4 30 -23 47.5t-57 17.5q-34 0 -54.5 -18.5t-20.5 -41.5q0 -25 17.5 -37.5t43.5 -20t56.5 -14t56.5 -19.5t43.5 -37.5t17.5 -66.5z" />
    <glyph glyph-name="afii10103" unicode="&#x456;" horiz-adv-x="205" 
d="M140 0h-75v450h75v-450zM55 577q0 21 13.5 34.5t33.5 13.5q21 0 34.5 -13.5t13.5 -34.5q0 -20 -13.5 -33.5t-34.5 -13.5q-20 0 -33.5 13.5t-13.5 33.5z" />
    <glyph glyph-name="afii10104" unicode="&#x457;" horiz-adv-x="215" 
d="M30 535q-19 0 -32 13t-13 32t13 32t32 13t32 -13t13 -32t-13 -32t-32 -13zM180 535q-19 0 -32 13t-13 32t13 32t32 13t32 -13t13 -32t-13 -32t-32 -13zM145 0h-75v450h75v-450z" />
    <glyph glyph-name="afii10105" unicode="&#x458;" horiz-adv-x="205" 
d="M65 450h75v-465q0 -34 -10.5 -61.5t-28.5 -47t-41.5 -30.5t-49.5 -11q-22 0 -34 5q-7 2 -11 5v65q3 -2 7 -3q8 -2 18 -2q34 0 54.5 21t20.5 59v465zM55 577q0 21 13.5 34.5t33.5 13.5q21 0 34.5 -13.5t13.5 -34.5q0 -20 -13.5 -33.5t-34.5 -13.5q-20 0 -33.5 13.5
t-13.5 33.5z" />
    <glyph glyph-name="afii10106" unicode="&#x459;" horiz-adv-x="685" 
d="M395 450v-160h105q72 0 113.5 -40.5t41.5 -104.5t-41.5 -104.5t-113.5 -40.5h-180v385h-145l-15 -240q-5 -72 -41.5 -111t-93.5 -39q-6 0 -11 0.5t-10 1.5t-9 3v65h10q73 0 80 80l25 305h285zM500 70q34 0 57 22.5t23 52.5t-23 52.5t-57 22.5h-105v-150h105z" />
    <glyph glyph-name="afii10107" unicode="&#x45a;" horiz-adv-x="720" 
d="M530 290q72 0 113.5 -40.5t41.5 -104.5t-41.5 -104.5t-113.5 -40.5h-180v220h-210v-220h-75v450h75v-160h210v160h75v-160h105zM530 70q34 0 57 22.5t23 52.5t-23 52.5t-57 22.5h-105v-150h105z" />
    <glyph glyph-name="afii10108" unicode="&#x45b;" horiz-adv-x="515" 
d="M0 550h75v80h75v-80h125v-65h-125v-135q14 17 33 30q17 11 41 20.5t56 9.5q36 0 67.5 -14.5t55.5 -40t38 -61.5t14 -79v-215h-75v215q0 28 -9 51t-24 39.5t-35 25.5t-42 9q-53 0 -86.5 -34t-33.5 -91v-215h-75v485h-75v65z" />
    <glyph glyph-name="afii10109" unicode="&#x45c;" horiz-adv-x="415" 
d="M140 0h-75v450h75v-450zM330 0l-190 235l170 215h85l-170 -210l195 -240h-90zM255 640h75l-85 -120h-50z" />
    <glyph glyph-name="afii10110" unicode="&#x45e;" horiz-adv-x="450" 
d="M225 520q-49 0 -80.5 32.5t-39.5 77.5h60q4 -26 20.5 -43t39.5 -17t39.5 17t20.5 43h60q-8 -45 -39.5 -77.5t-80.5 -32.5zM10 450h80l135 -345l135 345h80l-195 -490q-27 -68 -56.5 -96.5t-73.5 -28.5q-6 0 -11 0.5t-10 1.5t-9 3v60q34 0 51 15t29 45l20 50z" />
    <glyph glyph-name="afii10193" unicode="&#x45f;" horiz-adv-x="500" 
d="M65 0v450h75v-380h220v380h75v-450h-150v-110h-70v110h-150z" />
    <glyph glyph-name="afii10050" unicode="&#x490;" horiz-adv-x="450" 
d="M160 560v-560h-80v630h290v125h70v-195h-280z" />
    <glyph glyph-name="afii10098" unicode="&#x491;" horiz-adv-x="365" 
d="M355 555v-175h-215v-380h-75v450h220v105h70z" />
    <glyph glyph-name="uni1E9E" unicode="&#x1e9e;" horiz-adv-x="590" 
d="M390 370q45 -8 80 -31q15 -10 29.5 -23.5t25.5 -32.5t18 -43t7 -55q0 -39 -14 -73t-39 -59t-59 -39t-73 -14h-55v70h55q45 0 75 31t30 84t-30 84t-75 31h-55v70l117 190h-162q-21 0 -40 -9t-33.5 -24t-23 -35t-8.5 -42v-450h-80v450q0 36 14.5 68.5t40 57t59 39.5
t71.5 15h250v-60z" />
    <glyph glyph-name="endash" unicode="&#x2013;" horiz-adv-x="465" 
d="M430 220h-395v70h395v-70z" />
    <glyph glyph-name="emdash" unicode="&#x2014;" horiz-adv-x="710" 
d="M675 220h-640v70h640v-70z" />
    <glyph glyph-name="quoteleft" unicode="&#x2018;" horiz-adv-x="170" 
d="M85 545q23 0 36.5 -13.5t13.5 -36.5t-13.5 -36.5t-36.5 -13.5t-36.5 13.5t-13.5 36.5q0 35 12.5 62t27.5 44q18 20 40 34l10 -15q-10 -10 -18 -21q-7 -10 -13.5 -23.5t-8.5 -30.5z" />
    <glyph glyph-name="quoteright" unicode="&#x2019;" horiz-adv-x="170" 
d="M85 535q-23 0 -36.5 13.5t-13.5 36.5t13.5 36.5t36.5 13.5t36.5 -13.5t13.5 -36.5q0 -36 -12.5 -62.5t-27.5 -43.5q-18 -20 -40 -34l-10 15q10 10 18 21q7 10 13.5 23.5t8.5 30.5z" />
    <glyph glyph-name="quotesinglbase" unicode="&#x201a;" horiz-adv-x="170" 
d="M85 -5q-23 0 -36.5 13.5t-13.5 36.5t13.5 36.5t36.5 13.5t36.5 -13.5t13.5 -36.5q0 -36 -12.5 -62.5t-27.5 -43.5q-18 -20 -40 -34l-10 15q10 10 18 21q7 10 13.5 23.5t8.5 30.5z" />
    <glyph glyph-name="quotedblleft" unicode="&#x201c;" horiz-adv-x="305" 
d="M85 545q23 0 36.5 -13.5t13.5 -36.5t-13.5 -36.5t-36.5 -13.5t-36.5 13.5t-13.5 36.5q0 35 12.5 62t27.5 44q18 20 40 34l10 -15q-10 -10 -18 -21q-7 -10 -13.5 -23.5t-8.5 -30.5zM220 545q23 0 36.5 -13.5t13.5 -36.5t-13.5 -36.5t-36.5 -13.5t-36.5 13.5t-13.5 36.5
q0 35 12.5 62t27.5 44q18 20 40 34l10 -15q-10 -10 -18 -21q-7 -10 -13.5 -23.5t-8.5 -30.5z" />
    <glyph glyph-name="quotedblright" unicode="&#x201d;" horiz-adv-x="305" 
d="M220 535q-23 0 -36.5 13.5t-13.5 36.5t13.5 36.5t36.5 13.5t36.5 -13.5t13.5 -36.5q0 -36 -12.5 -62.5t-27.5 -43.5q-18 -20 -40 -34l-10 15q10 10 18 21q7 10 13.5 23.5t8.5 30.5zM85 535q-23 0 -36.5 13.5t-13.5 36.5t13.5 36.5t36.5 13.5t36.5 -13.5t13.5 -36.5
q0 -36 -12.5 -62.5t-27.5 -43.5q-18 -20 -40 -34l-10 15q10 10 18 21q7 10 13.5 23.5t8.5 30.5z" />
    <glyph glyph-name="quotedblbase" unicode="&#x201e;" horiz-adv-x="310" 
d="M85 -5q-23 0 -36.5 13.5t-13.5 36.5t13.5 36.5t36.5 13.5t36.5 -13.5t13.5 -36.5q0 -36 -12.5 -62.5t-27.5 -43.5q-18 -20 -40 -34l-10 15q10 10 18 21q7 10 13.5 23.5t8.5 30.5zM225 -5q-23 0 -36.5 13.5t-13.5 36.5t13.5 36.5t36.5 13.5t36.5 -13.5t13.5 -36.5
q0 -36 -12.5 -62.5t-27.5 -43.5q-18 -20 -40 -34l-10 15q10 10 18 21q7 10 13.5 23.5t8.5 30.5z" />
    <glyph glyph-name="dagger" unicode="&#x2020;" horiz-adv-x="340" 
d="M305 445h-105v-265h-60v265h-105v60h105v125h60v-125h105v-60z" />
    <glyph glyph-name="daggerdbl" unicode="&#x2021;" horiz-adv-x="340" 
d="M305 300h-105v-120h-60v120h-105v60h105v90h-105v60h105v120h60v-120h105v-60h-105v-90h105v-60z" />
    <glyph glyph-name="bullet" unicode="&#x2022;" horiz-adv-x="380" 
d="M100 270q0 38 26 64t64 26t64 -26t26 -64t-26 -64t-64 -26t-64 26t-26 64z" />
    <glyph glyph-name="ellipsis" unicode="&#x2026;" horiz-adv-x="550" 
d="M35 45q0 23 13.5 36.5t36.5 13.5t36.5 -13.5t13.5 -36.5t-13.5 -36.5t-36.5 -13.5t-36.5 13.5t-13.5 36.5zM225 45q0 23 13.5 36.5t36.5 13.5t36.5 -13.5t13.5 -36.5t-13.5 -36.5t-36.5 -13.5t-36.5 13.5t-13.5 36.5zM415 45q0 23 13.5 36.5t36.5 13.5t36.5 -13.5
t13.5 -36.5t-13.5 -36.5t-36.5 -13.5t-36.5 13.5t-13.5 36.5z" />
    <glyph glyph-name="perthousand" unicode="&#x2030;" horiz-adv-x="889" 
d="M80 0l385 630h55l-385 -630h-55zM80 505q0 -34 22.5 -57t52.5 -23t52.5 23t22.5 57t-22.5 57t-52.5 23t-52.5 -23t-22.5 -57zM280 505q0 -26 -9.5 -49t-26.5 -40t-40 -26.5t-49 -9.5t-49 9.5t-40 26.5t-26.5 40t-9.5 49t9.5 49t26.5 40t40 26.5t49 9.5t49 -9.5t40 -26.5
t26.5 -40t9.5 -49zM365 125q0 -34 22.5 -57t52.5 -23t52.5 23t22.5 57t-22.5 57t-52.5 23t-52.5 -23t-22.5 -57zM565 125q0 -26 -9.5 -49t-26.5 -40t-40 -26.5t-49 -9.5t-49 9.5t-40 26.5t-26.5 40t-9.5 49t9.5 49t26.5 40t40 26.5t49 9.5t49 -9.5t40 -26.5t26.5 -40
t9.5 -49zM659 125q0 -34 22.5 -57t52.5 -23t52.5 23t22.5 57t-22.5 57t-52.5 23t-52.5 -23t-22.5 -57zM859 125q0 -26 -9.5 -49t-26.5 -40t-40 -26.5t-49 -9.5t-49 9.5t-40 26.5t-26.5 40t-9.5 49t9.5 49t26.5 40t40 26.5t49 9.5t49 -9.5t40 -26.5t26.5 -40t9.5 -49z" />
    <glyph glyph-name="guilsinglleft" unicode="&#x2039;" horiz-adv-x="255" 
d="M220 65h-75l-110 160l110 160h75l-110 -160z" />
    <glyph glyph-name="guilsinglright" unicode="&#x203a;" horiz-adv-x="255" 
d="M145 225l-110 160h75l110 -160l-110 -160h-75z" />
    <glyph glyph-name="fraction" unicode="&#x2044;" horiz-adv-x="110" 
d="M-170 0l385 630h65l-385 -630h-65z" />
    <glyph glyph-name="zerosuperior" unicode="&#x2070;" horiz-adv-x="300" 
d="M85 575q0 -53 19.5 -76.5t45.5 -23.5t45.5 23.5t19.5 76.5t-19.5 76.5t-45.5 23.5t-45.5 -23.5t-19.5 -76.5zM270 575q0 -36 -9.5 -63.5t-26 -47t-38.5 -29.5t-46 -10t-46 10t-38.5 29.5t-26 47t-9.5 63.5t9.5 63.5t26 47t38.5 29.5t46 10t46 -10t38.5 -29.5t26 -47
t9.5 -63.5z" />
    <glyph glyph-name="foursuperior" unicode="&#x2074;" horiz-adv-x="250" 
d="M185 535h35v-50h-35v-55h-55v55h-125v40l120 195h60v-185zM130 535v105l-65 -105h65z" />
    <glyph glyph-name="fivesuperior" unicode="&#x2075;" horiz-adv-x="270" 
d="M145 625q42 0 68.5 -27.5t26.5 -72.5q0 -21 -8 -39t-22 -31.5t-33.5 -21.5t-41.5 -8q-45 0 -71 23.5t-34 61.5h55q4 -15 15.5 -25t34.5 -10t36.5 13.5t13.5 36.5q0 26 -13.5 40.5t-36.5 14.5t-34.5 -9.5t-15.5 -20.5h-45l20 170h160v-50h-114l-6 -55q4 2 11 5q5 2 14 3.5
t20 1.5z" />
    <glyph glyph-name="sixsuperior" unicode="&#x2076;" horiz-adv-x="260" 
d="M135 625q45 0 72.5 -27.5t27.5 -72.5t-27.5 -72.5t-72.5 -27.5t-72.5 27.5t-27.5 72.5q0 19 6 37t14 32q9 17 20 31l65 95h60zM135 575q-18 0 -31.5 -13.5t-13.5 -36.5t13 -36.5t32 -13.5q18 0 31.5 13.5t13.5 36.5t-13.5 36.5t-31.5 13.5z" />
    <glyph glyph-name="sevensuperior" unicode="&#x2077;" horiz-adv-x="230" 
d="M40 720h190v-35l-120 -255h-55l115 240h-130v50z" />
    <glyph glyph-name="eightsuperior" unicode="&#x2078;" horiz-adv-x="260" 
d="M130 425q-45 0 -72.5 26t-27.5 64q0 19 6 32.5t14 21.5q9 10 20 16q-9 4 -15 12q-6 7 -10.5 17.5t-4.5 25.5q0 34 26 59.5t64 25.5t64 -25.5t26 -59.5q0 -15 -5 -25.5t-10 -17.5q-7 -8 -15 -12q11 -6 20 -16q8 -8 14 -21.5t6 -32.5q0 -38 -27.5 -64t-72.5 -26zM130 675
q-19 0 -29.5 -10t-10.5 -25t10.5 -25t29.5 -10t29.5 10t10.5 25t-10.5 25t-29.5 10zM130 560q-19 0 -32 -13t-13 -30t13 -29.5t32 -12.5t32 12.5t13 29.5t-13 30t-32 13z" />
    <glyph glyph-name="ninesuperior" unicode="&#x2079;" horiz-adv-x="260" 
d="M125 525q-45 0 -72.5 27.5t-27.5 72.5t27.5 72.5t72.5 27.5t72.5 -27.5t27.5 -72.5q0 -19 -6 -37t-14 -32q-9 -17 -20 -31l-65 -95h-60zM125 575q18 0 31.5 13.5t13.5 36.5t-13 36.5t-32 13.5q-18 0 -31.5 -13.5t-13.5 -36.5t13.5 -36.5t31.5 -13.5z" />
    <glyph glyph-name="zeroinferior" unicode="&#x2080;" horiz-adv-x="300" 
d="M85 55q0 -53 19.5 -76.5t45.5 -23.5t45.5 23.5t19.5 76.5t-19.5 76.5t-45.5 23.5t-45.5 -23.5t-19.5 -76.5zM270 55q0 -36 -9.5 -63.5t-26 -47t-38.5 -29.5t-46 -10t-46 10t-38.5 29.5t-26 47t-9.5 63.5t9.5 63.5t26 47t38.5 29.5t46 10t46 -10t38.5 -29.5t26 -47
t9.5 -63.5z" />
    <glyph glyph-name="oneinferior" unicode="&#x2081;" horiz-adv-x="205" 
d="M100 200h40v-290h-55v220l-40 -20l-25 40z" />
    <glyph glyph-name="twoinferior" unicode="&#x2082;" horiz-adv-x="255" 
d="M107 -40h118v-50h-195v40l110 115q11 11 20.5 23.5t9.5 26.5q0 40 -45 40t-45 -45h-50q0 42 26.5 68.5t68.5 26.5q45 0 72.5 -26t27.5 -64q0 -23 -11 -37.5t-19 -22.5z" />
    <glyph glyph-name="threeinferior" unicode="&#x2083;" horiz-adv-x="265" 
d="M195 65q11 -4 20 -14q8 -8 14 -22t6 -34q0 -38 -27.5 -64t-72.5 -26q-49 0 -77 26.5t-28 68.5h50q0 -18 13.5 -31.5t36.5 -13.5t36.5 12.5t13.5 27.5q0 19 -13.5 32t-36.5 13h-26v45h26q19 0 29.5 10t10.5 25t-10.5 25t-29.5 10q-45 0 -45 -40h-50q0 38 26.5 64t68.5 26
t68.5 -25.5t26.5 -59.5q0 -15 -5 -25.5t-10 -17.5q-7 -8 -15 -12z" />
    <glyph glyph-name="fourinferior" unicode="&#x2084;" horiz-adv-x="250" 
d="M185 15h35v-50h-35v-55h-55v55h-125v40l120 195h60v-185zM130 15v105l-65 -105h65z" />
    <glyph glyph-name="fiveinferior" unicode="&#x2085;" horiz-adv-x="270" 
d="M145 105q42 0 68.5 -27.5t26.5 -72.5q0 -21 -8 -39t-22 -31.5t-33.5 -21.5t-41.5 -8q-45 0 -71 23.5t-34 61.5h55q4 -15 15.5 -25t34.5 -10t36.5 13.5t13.5 36.5q0 26 -13.5 40.5t-36.5 14.5t-34.5 -9.5t-15.5 -20.5h-45l20 170h160v-50h-114l-6 -55q4 2 11 5q5 2 14 3.5
t20 1.5z" />
    <glyph glyph-name="sixinferior" unicode="&#x2086;" horiz-adv-x="260" 
d="M135 105q45 0 72.5 -27.5t27.5 -72.5t-27.5 -72.5t-72.5 -27.5t-72.5 27.5t-27.5 72.5q0 19 6 37t14 32q9 17 20 31l65 95h60zM135 55q-18 0 -31.5 -13.5t-13.5 -36.5t13 -36.5t32 -13.5q18 0 31.5 13.5t13.5 36.5t-13.5 36.5t-31.5 13.5z" />
    <glyph glyph-name="seveninferior" unicode="&#x2087;" horiz-adv-x="230" 
d="M40 200h190v-35l-120 -255h-55l115 240h-130v50z" />
    <glyph glyph-name="eightinferior" unicode="&#x2088;" horiz-adv-x="260" 
d="M130 -95q-45 0 -72.5 26t-27.5 64q0 19 6 32.5t14 21.5q9 10 20 16q-9 4 -15 12q-6 7 -10.5 17.5t-4.5 25.5q0 34 26 59.5t64 25.5t64 -25.5t26 -59.5q0 -15 -5 -25.5t-10 -17.5q-7 -8 -15 -12q11 -6 20 -16q8 -8 14 -21.5t6 -32.5q0 -38 -27.5 -64t-72.5 -26zM130 155
q-19 0 -29.5 -10t-10.5 -25t10.5 -25t29.5 -10t29.5 10t10.5 25t-10.5 25t-29.5 10zM130 40q-19 0 -32 -13t-13 -30t13 -29.5t32 -12.5t32 12.5t13 29.5t-13 30t-32 13z" />
    <glyph glyph-name="nineinferior" unicode="&#x2089;" horiz-adv-x="260" 
d="M125 5q-45 0 -72.5 27.5t-27.5 72.5t27.5 72.5t72.5 27.5t72.5 -27.5t27.5 -72.5q0 -19 -6 -37t-14 -32q-9 -17 -20 -31l-65 -95h-60zM125 55q18 0 31.5 13.5t13.5 36.5t-13 36.5t-32 13.5q-18 0 -31.5 -13.5t-13.5 -36.5t13.5 -36.5t31.5 -13.5z" />
    <glyph glyph-name="Euro" unicode="&#x20ac;" horiz-adv-x="660" 
d="M20 345v65h83q14 49 38.5 90t58.5 71t76.5 47t93.5 17t93.5 -16.5t76 -46t56.5 -68.5t34 -84h-85q-6 30 -20.5 56.5t-37 46t-52 31t-65.5 11.5q-68 0 -115 -43.5t-68 -111.5h188v-65h-200q-1 -5 -1 -10q-1 -5 -1 -11v-14v-15.5t1 -12.5q0 -7 1 -12h200v-65h-182
q8 -28 24 -53.5t39 -44.5t51.5 -30.5t62.5 -11.5q36 0 65.5 11.5t52 31t37 46t20.5 56.5h85q-11 -45 -34 -84t-56.5 -68.5t-76 -46t-93.5 -16.5t-93.5 16.5t-76 45t-57 67t-35.5 81.5h-88v65h75q-1 5 -1 12q-1 5 -1 12.5v15.5v14t1 11q0 5 1 10h-75z" />
    <glyph glyph-name="uni20B4" unicode="&#x20b4;" horiz-adv-x="545" 
d="M500 415v-65h-455v65h270q15 5 27 15q11 8 19.5 22.5t8.5 37.5q0 13 -7 26.5t-20 24t-30 17.5t-38 7q-45 0 -70.5 -22.5t-29.5 -52.5h-80q2 28 15.5 54t37 46.5t56 32.5t71.5 12t71.5 -12t55.5 -32.5t35.5 -46.5t12.5 -54q0 -21 -5.5 -35t-12.5 -23q-8 -11 -17 -17h85z
M45 215v65h455v-65h-270q-16 -5 -28 -15q-11 -8 -19 -22.5t-8 -37.5q0 -13 7 -26.5t20 -24t30 -17.5t38 -7q45 0 70.5 22.5t29.5 52.5h80q-2 -28 -15.5 -54t-37 -46.5t-56 -32.5t-71.5 -12t-71.5 12t-55.5 32.5t-35.5 46.5t-12.5 54q0 20 5 34.5t12 23.5q8 11 18 17h-85z
" />
    <glyph glyph-name="uni20BD" unicode="&#x20bd;" horiz-adv-x="550" 
d="M25 320h75v310h210q43 0 79.5 -15t63.5 -40.5t42 -60.5t15 -74t-15 -74t-42 -60.5t-63.5 -40.5t-79.5 -15h-130v-80h190v-70h-190v-100h-80v100h-75v70h75v80h-75v70zM310 320q53 0 86.5 33.5t33.5 86.5t-33 86.5t-87 33.5h-130v-240h130z" />
    <glyph glyph-name="afii61352" unicode="&#x2116;" horiz-adv-x="940" 
d="M640 65h250v-65h-250v65zM700 290q0 -34 19.5 -54.5t45.5 -20.5t45.5 20.5t19.5 54.5t-19.5 54.5t-45.5 20.5t-45.5 -20.5t-19.5 -54.5zM900 290q0 -28 -11.5 -53.5t-30 -44.5t-43 -30.5t-50.5 -11.5t-50.5 11.5t-43.5 30.5t-30 44.5t-11 53.5t11 53.5t30 44.5t43.5 30.5
t50.5 11.5t50.5 -11.5t43 -30.5t30 -44.5t11.5 -53.5zM545 630v-630h-70l-315 475v-475h-80v630h70l315 -475v475h80z" />
    <glyph glyph-name="trademark" unicode="&#x2122;" horiz-adv-x="530" 
d="M210 585h-75v-210h-50v210h-75v45h200v-45zM355 455l-55 80v-160h-50v255h40l80 -115l80 115h40v-255h-50v160l-55 -80h-30z" />
    <glyph glyph-name="arrowleft" unicode="&#x2190;" horiz-adv-x="1000" 
d="M390 585v-95l-145 -145h640v-70h-640l145 -145v-95l-275 275z" />
    <glyph glyph-name="arrowup" unicode="&#x2191;" horiz-adv-x="1000" 
d="M775 430h-95l-145 145v-640h-70v640l-145 -145h-95l275 275z" />
    <glyph glyph-name="arrowright" unicode="&#x2192;" horiz-adv-x="1000" 
d="M885 310l-275 -275v95l145 145h-640v70h640l-145 145v95z" />
    <glyph glyph-name="arrowdown" unicode="&#x2193;" horiz-adv-x="1000" 
d="M500 -65l-275 275h95l145 -145v640h70v-640l145 145h95z" />
    <glyph glyph-name="arrowboth" unicode="&#x2194;" horiz-adv-x="1000" 
d="M885 310l-275 -275v95l145 145h-510l145 -145v-95l-275 275l275 275v-95l-145 -145h510l-145 145v95z" />
    <glyph glyph-name="arrowupdn" unicode="&#x2195;" horiz-adv-x="1000" 
d="M500 -65l-275 275h95l145 -145v510l-145 -145h-95l275 275l275 -275h-95l-145 145v-510l145 145h95z" />
    <glyph glyph-name="uni2196" unicode="&#x2196;" horiz-adv-x="1000" 
d="M785 75l-50 -50l-450 450v-200l-70 -70v390h390l-70 -70h-200z" />
    <glyph glyph-name="uni2197" unicode="&#x2197;" horiz-adv-x="1000" 
d="M665 525h-200l-70 70h390v-390l-70 70v200l-450 -450l-50 50z" />
    <glyph glyph-name="uni2198" unicode="&#x2198;" horiz-adv-x="1000" 
d="M215 545l50 50l450 -450v200l70 70v-390h-390l70 70h200z" />
    <glyph glyph-name="uni2199" unicode="&#x2199;" horiz-adv-x="1000" 
d="M335 95h200l70 -70h-390v390l70 -70v-200l450 450l50 -50z" />
    <glyph glyph-name="minus" unicode="&#x2212;" horiz-adv-x="430" 
d="M400 225h-370v65h370v-65z" />
    <glyph glyph-name="approxequal" unicode="&#x2248;" horiz-adv-x="440" 
d="M115 365q-23 0 -39 -17.5t-16 -47.5h-60q0 64 31 97t84 33q26 0 55 -11t57 -24t52 -24t41 -11q26 0 43 17.5t17 47.5h60q0 -64 -31.5 -97t-88.5 -33q-24 0 -52 11t-56 24t-53 24t-44 11zM115 170q-23 0 -39 -17.5t-16 -47.5h-60q0 64 31 97t84 33q26 0 55 -11t57 -24
t52 -24t41 -11q26 0 43 17.5t17 47.5h60q0 -64 -31.5 -97t-88.5 -33q-24 0 -52 11t-56 24t-53 24t-44 11z" />
    <glyph glyph-name="notequal" unicode="&#x2260;" horiz-adv-x="440" 
d="M235 385l50 120h75l-50 -120h105v-70h-135l-45 -115h180v-70h-210l-50 -125h-75l50 125h-105v70h135l45 115h-180v70h210z" />
    <glyph glyph-name="lessequal" unicode="&#x2264;" horiz-adv-x="435" 
d="M40 70h355v-70h-355v70zM395 205v-75l-350 165v50l350 165v-75l-245 -115z" />
    <glyph glyph-name="greaterequal" unicode="&#x2265;" horiz-adv-x="435" 
d="M395 0h-355v70h355v-70zM285 320l-245 115v75l350 -165v-50l-350 -165v75z" />
    <glyph glyph-name="uni2460" unicode="&#x2460;" horiz-adv-x="1000" 
d="M85 320q0 86 32.5 161.5t88.5 132t132 89t162 32.5t161.5 -32.5t132 -89t89 -132t32.5 -161.5t-32.5 -162t-89 -132t-132 -88.5t-161.5 -32.5t-162 32.5t-132 88.5t-88.5 132t-32.5 162zM155 320q0 -71 27 -134t74 -110t110 -74t134 -27t134 27t110 74t74 110t27 134
t-27 134t-74 110t-110 74t-134 27t-134 -27t-110 -74t-74 -110t-27 -134zM555 520v-400h-70v320l-60 -40l-35 45l105 75h60z" />
    <glyph glyph-name="uni2461" unicode="&#x2461;" horiz-adv-x="1000" 
d="M630 185v-65h-260v45l150 160q18 19 29 36.5t11 43.5q0 23 -17 39t-43 16t-43.5 -17t-21.5 -43h-70q2 26 12.5 49t28.5 40t42 26.5t52 9.5t52 -9.5t41 -26t27 -38.5t10 -46q0 -45 -16 -70.5t-34 -44.5l-100 -105h150zM155 320q0 -71 27 -134t74 -110t110 -74t134 -27
t134 27t110 74t74 110t27 134t-27 134t-74 110t-110 74t-134 27t-134 -27t-110 -74t-74 -110t-27 -134zM85 320q0 86 32.5 161.5t88.5 132t132 89t162 32.5t161.5 -32.5t132 -89t89 -132t32.5 -161.5t-32.5 -162t-89 -132t-132 -88.5t-161.5 -32.5t-162 32.5t-132 88.5
t-88.5 132t-32.5 162z" />
    <glyph glyph-name="uni2462" unicode="&#x2462;" horiz-adv-x="1000" 
d="M575 330q19 -6 35 -17q13 -10 24 -27.5t11 -45.5q0 -53 -38.5 -89t-106.5 -36q-64 0 -100.5 33.5t-44.5 86.5h70q4 -19 24.5 -37t50.5 -18q38 0 56.5 17t18.5 43q0 24 -18.5 39.5t-56.5 15.5h-38v60h38q30 0 47.5 16.5t17.5 38.5q0 19 -17.5 34.5t-47.5 15.5t-46 -13.5
t-24 -36.5h-65q2 22 12.5 43t28.5 37t42 25.5t52 9.5q64 0 99.5 -32.5t35.5 -77.5q0 -26 -9.5 -43t-20.5 -26q-13 -11 -30 -16zM155 320q0 -71 27 -134t74 -110t110 -74t134 -27t134 27t110 74t74 110t27 134t-27 134t-74 110t-110 74t-134 27t-134 -27t-110 -74t-74 -110
t-27 -134zM85 320q0 86 32.5 161.5t88.5 132t132 89t162 32.5t161.5 -32.5t132 -89t89 -132t32.5 -161.5t-32.5 -162t-89 -132t-132 -88.5t-161.5 -32.5t-162 32.5t-132 88.5t-88.5 132t-32.5 162z" />
    <glyph glyph-name="uni2463" unicode="&#x2463;" horiz-adv-x="1000" 
d="M620 205h-45v-85h-70v85h-180v55l175 260h75v-250h45v-65zM505 270v150l-105 -150h105zM155 320q0 -71 27 -134t74 -110t110 -74t134 -27t134 27t110 74t74 110t27 134t-27 134t-74 110t-110 74t-134 27t-134 -27t-110 -74t-74 -110t-27 -134zM85 320q0 86 32.5 161.5
t88.5 132t132 89t162 32.5t161.5 -32.5t132 -89t89 -132t32.5 -161.5t-32.5 -162t-89 -132t-132 -88.5t-161.5 -32.5t-162 32.5t-132 88.5t-88.5 132t-32.5 162z" />
    <glyph glyph-name="uni2464" unicode="&#x2464;" horiz-adv-x="1000" 
d="M510 385q30 0 55 -11.5t42.5 -30t27.5 -43t10 -50.5q0 -28 -10.5 -52.5t-30 -43t-46 -29t-58.5 -10.5q-30 0 -55 9.5t-44 26t-30.5 38.5t-15.5 46h70q8 -23 26.5 -39t48.5 -16t52.5 20t22.5 50t-22.5 50t-52.5 20q-18 0 -30 -5t-20 -10q-9 -7 -15 -15h-65l30 230h215v-65
h-160l-10 -85q7 3 17 7q8 3 20.5 5.5t27.5 2.5zM155 320q0 -71 27 -134t74 -110t110 -74t134 -27t134 27t110 74t74 110t27 134t-27 134t-74 110t-110 74t-134 27t-134 -27t-110 -74t-74 -110t-27 -134zM85 320q0 86 32.5 161.5t88.5 132t132 89t162 32.5t161.5 -32.5
t132 -89t89 -132t32.5 -161.5t-32.5 -162t-89 -132t-132 -88.5t-161.5 -32.5t-162 32.5t-132 88.5t-88.5 132t-32.5 162z" />
    <glyph glyph-name="uni2465" unicode="&#x2465;" horiz-adv-x="1000" 
d="M500 115q-30 0 -56.5 11.5t-46 30.5t-31 44.5t-11.5 53.5q0 20 4.5 37.5t10.5 30.5q6 15 15 27l115 170h75l-85 -125h10q30 0 56.5 -11.5t46 -30.5t31 -44.5t11.5 -53.5t-11.5 -53.5t-31 -44.5t-46 -30.5t-56.5 -11.5zM425 255q0 -30 20.5 -52.5t54.5 -22.5t54.5 22.5
t20.5 52.5t-20.5 52.5t-54.5 22.5t-54.5 -22.5t-20.5 -52.5zM155 320q0 -71 27 -134t74 -110t110 -74t134 -27t134 27t110 74t74 110t27 134t-27 134t-74 110t-110 74t-134 27t-134 -27t-110 -74t-74 -110t-27 -134zM85 320q0 86 32.5 161.5t88.5 132t132 89t162 32.5
t161.5 -32.5t132 -89t89 -132t32.5 -161.5t-32.5 -162t-89 -132t-132 -88.5t-161.5 -32.5t-162 32.5t-132 88.5t-88.5 132t-32.5 162z" />
    <glyph glyph-name="uni2466" unicode="&#x2466;" horiz-adv-x="1000" 
d="M635 520v-53l-165 -347h-70l160 335h-180v65h255zM155 320q0 -71 27 -134t74 -110t110 -74t134 -27t134 27t110 74t74 110t27 134t-27 134t-74 110t-110 74t-134 27t-134 -27t-110 -74t-74 -110t-27 -134zM85 320q0 86 32.5 161.5t88.5 132t132 89t162 32.5t161.5 -32.5
t132 -89t89 -132t32.5 -161.5t-32.5 -162t-89 -132t-132 -88.5t-161.5 -32.5t-162 32.5t-132 88.5t-88.5 132t-32.5 162z" />
    <glyph glyph-name="uni2467" unicode="&#x2467;" horiz-adv-x="1000" 
d="M500 175q34 0 54.5 19t20.5 43q0 25 -20.5 44t-54.5 19t-54.5 -19t-20.5 -44q0 -24 20.5 -43t54.5 -19zM500 360q26 0 43 16t17 36q0 21 -17 37t-43 16t-43 -16t-17 -37q0 -20 17 -36t43 -16zM155 320q0 -71 27 -134t74 -110t110 -74t134 -27t134 27t110 74t74 110
t27 134t-27 134t-74 110t-110 74t-134 27t-134 -27t-110 -74t-74 -110t-27 -134zM500 115q-34 0 -61 9.5t-45.5 26t-28.5 38.5t-10 46q0 27 10.5 45t24.5 29q15 13 35 21q-16 7 -28 18q-11 10 -19 26t-8 41q0 45 35 77.5t95 32.5t95 -32.5t35 -77.5q0 -25 -8.5 -41
t-19.5 -26q-12 -11 -27 -18q19 -8 35 -21q13 -11 24 -29t11 -45q0 -24 -10 -46t-29 -38.5t-45.5 -26t-60.5 -9.5zM85 320q0 86 32.5 161.5t88.5 132t132 89t162 32.5t161.5 -32.5t132 -89t89 -132t32.5 -161.5t-32.5 -162t-89 -132t-132 -88.5t-161.5 -32.5t-162 32.5
t-132 88.5t-88.5 132t-32.5 162z" />
    <glyph glyph-name="uni2468" unicode="&#x2468;" horiz-adv-x="1000" 
d="M500 525q30 0 56.5 -11.5t46 -30.5t31 -44.5t11.5 -53.5q0 -21 -5 -38t-10 -30q-7 -15 -15 -27l-115 -170h-75l85 125h-10q-30 0 -56.5 11.5t-46 30.5t-31 44.5t-11.5 53.5t11.5 53.5t31 44.5t46 30.5t56.5 11.5zM845 320q0 71 -27 134t-74 110t-110 74t-134 27t-134 -27
t-110 -74t-74 -110t-27 -134t27 -134t74 -110t110 -74t134 -27t134 27t110 74t74 110t27 134zM915 320q0 -86 -32.5 -162t-89 -132t-132 -88.5t-161.5 -32.5t-162 32.5t-132 88.5t-88.5 132t-32.5 162t32.5 161.5t88.5 132t132 89t162 32.5t161.5 -32.5t132 -89t89 -132
t32.5 -161.5zM425 385q0 -30 20.5 -52.5t54.5 -22.5t54.5 22.5t20.5 52.5t-20.5 52.5t-54.5 22.5t-54.5 -22.5t-20.5 -52.5z" />
    <glyph glyph-name="uni24EA" unicode="&#x24ea;" horiz-adv-x="1000" 
d="M405 320q0 -71 28.5 -105.5t66.5 -34.5q19 0 36 8.5t30 26t21 43.5t8 62t-8 62t-21 43.5t-30 26t-36 8.5q-38 0 -66.5 -34.5t-28.5 -105.5zM665 320q0 -49 -13 -87t-35.5 -64.5t-52.5 -40t-64 -13.5t-64 13.5t-52.5 40t-35.5 64.5t-13 87t13 87t35.5 64t52.5 40t64 14
t64 -14t52.5 -40t35.5 -64t13 -87zM155 320q0 -71 27 -134t74 -110t110 -74t134 -27t134 27t110 74t74 110t27 134t-27 134t-74 110t-110 74t-134 27t-134 -27t-110 -74t-74 -110t-27 -134zM85 320q0 86 32.5 161.5t88.5 132t132 89t162 32.5t161.5 -32.5t132 -89t89 -132
t32.5 -161.5t-32.5 -162t-89 -132t-132 -88.5t-161.5 -32.5t-162 32.5t-132 88.5t-88.5 132t-32.5 162z" />
    <glyph glyph-name="uni24FF" unicode="&#x24ff;" horiz-adv-x="1000" 
d="M405 320q0 71 28.5 105.5t66.5 34.5q19 0 36 -8.5t30 -26t21 -43.5t8 -62t-8 -62t-21 -43.5t-30 -26t-36 -8.5q-38 0 -66.5 34.5t-28.5 105.5zM665 320q0 49 -13 87t-35.5 64t-52.5 40t-64 14t-64 -14t-52.5 -40t-35.5 -64t-13 -87t13 -87t35.5 -64.5t52.5 -40t64 -13.5
t64 13.5t52.5 40t35.5 64.5t13 87zM85 320q0 86 32.5 161.5t88.5 132t132 89t162 32.5t161.5 -32.5t132 -89t89 -132t32.5 -161.5t-32.5 -162t-89 -132t-132 -88.5t-161.5 -32.5t-162 32.5t-132 88.5t-88.5 132t-32.5 162z" />
    <glyph glyph-name="uni2776" unicode="&#x2776;" horiz-adv-x="1000" 
d="M85 320q0 86 32.5 161.5t88.5 132t132 89t162 32.5t161.5 -32.5t132 -89t89 -132t32.5 -161.5t-32.5 -162t-89 -132t-132 -88.5t-161.5 -32.5t-162 32.5t-132 88.5t-88.5 132t-32.5 162zM495 520l-105 -75l35 -45l60 40v-320h70v400h-60z" />
    <glyph glyph-name="uni2777" unicode="&#x2777;" horiz-adv-x="1000" 
d="M480 185l100 105q18 19 34 44.5t16 70.5q0 24 -10 46t-27 38.5t-41 26t-52 9.5t-52 -9.5t-42 -26.5t-28.5 -40t-12.5 -49h70q4 26 21.5 43t43.5 17t43 -16t17 -39q0 -26 -11 -43.5t-29 -36.5l-150 -160v-45h260v65h-150zM85 320q0 86 32.5 161.5t88.5 132t132 89
t162 32.5t161.5 -32.5t132 -89t89 -132t32.5 -161.5t-32.5 -162t-89 -132t-132 -88.5t-161.5 -32.5t-162 32.5t-132 88.5t-88.5 132t-32.5 162z" />
    <glyph glyph-name="uni2778" unicode="&#x2778;" horiz-adv-x="1000" 
d="M575 330q17 5 30 16q11 9 20.5 26t9.5 43q0 45 -35.5 77.5t-99.5 32.5q-28 0 -52 -9.5t-42 -25.5t-28.5 -37t-12.5 -43h65q8 23 24 36.5t46 13.5t47.5 -15.5t17.5 -34.5q0 -22 -17.5 -38.5t-47.5 -16.5h-38v-60h38q38 0 56.5 -15.5t18.5 -39.5q0 -26 -18.5 -43t-56.5 -17
q-30 0 -50.5 18t-24.5 37h-70q8 -53 44.5 -86.5t100.5 -33.5q68 0 106.5 36t38.5 89q0 28 -11 45.5t-24 27.5q-16 11 -35 17zM85 320q0 86 32.5 161.5t88.5 132t132 89t162 32.5t161.5 -32.5t132 -89t89 -132t32.5 -161.5t-32.5 -162t-89 -132t-132 -88.5t-161.5 -32.5
t-162 32.5t-132 88.5t-88.5 132t-32.5 162z" />
    <glyph glyph-name="uni2779" unicode="&#x2779;" horiz-adv-x="1000" 
d="M620 270h-45v250h-75l-175 -260v-55h180v-85h70v85h45v65zM400 270l105 150v-150h-105zM85 320q0 86 32.5 161.5t88.5 132t132 89t162 32.5t161.5 -32.5t132 -89t89 -132t32.5 -161.5t-32.5 -162t-89 -132t-132 -88.5t-161.5 -32.5t-162 32.5t-132 88.5t-88.5 132
t-32.5 162z" />
    <glyph glyph-name="uni277A" unicode="&#x277a;" horiz-adv-x="1000" 
d="M510 385q-15 0 -27.5 -2.5t-20.5 -5.5q-10 -4 -17 -7l10 85h160v65h-215l-30 -230h65q6 8 15 15q8 5 20 10t30 5q30 0 52.5 -20t22.5 -50t-22.5 -50t-52.5 -20t-48.5 16t-26.5 39h-70q4 -24 15.5 -46t30.5 -38.5t44 -26t55 -9.5q32 0 58.5 10.5t46 29t30 43t10.5 52.5
q0 26 -10 50.5t-27.5 43t-42.5 30t-55 11.5zM85 320q0 86 32.5 161.5t88.5 132t132 89t162 32.5t161.5 -32.5t132 -89t89 -132t32.5 -161.5t-32.5 -162t-89 -132t-132 -88.5t-161.5 -32.5t-162 32.5t-132 88.5t-88.5 132t-32.5 162z" />
    <glyph glyph-name="uni277B" unicode="&#x277b;" horiz-adv-x="1000" 
d="M500 115q30 0 56.5 11.5t46 30.5t31 44.5t11.5 53.5t-11.5 53.5t-31 44.5t-46 30.5t-56.5 11.5h-10l85 125h-75l-115 -170q-9 -12 -15 -27q-6 -13 -10.5 -30.5t-4.5 -37.5q0 -28 11.5 -53.5t31 -44.5t46 -30.5t56.5 -11.5zM425 255q0 30 20.5 52.5t54.5 22.5t54.5 -22.5
t20.5 -52.5t-20.5 -52.5t-54.5 -22.5t-54.5 22.5t-20.5 52.5zM85 320q0 86 32.5 161.5t88.5 132t132 89t162 32.5t161.5 -32.5t132 -89t89 -132t32.5 -161.5t-32.5 -162t-89 -132t-132 -88.5t-161.5 -32.5t-162 32.5t-132 88.5t-88.5 132t-32.5 162z" />
    <glyph glyph-name="uni277C" unicode="&#x277c;" horiz-adv-x="1000" 
d="M380 520v-65h180l-160 -335h70l165 347v53h-255zM85 320q0 86 32.5 161.5t88.5 132t132 89t162 32.5t161.5 -32.5t132 -89t89 -132t32.5 -161.5t-32.5 -162t-89 -132t-132 -88.5t-161.5 -32.5t-162 32.5t-132 88.5t-88.5 132t-32.5 162z" />
    <glyph glyph-name="uni277D" unicode="&#x277d;" horiz-adv-x="1000" 
d="M500 175q-34 0 -54.5 19t-20.5 43q0 25 20.5 44t54.5 19t54.5 -19t20.5 -44q0 -24 -20.5 -43t-54.5 -19zM500 360q-26 0 -43 16t-17 36q0 21 17 37t43 16t43 -16t17 -37q0 -20 -17 -36t-43 -16zM500 115q34 0 60.5 9.5t45.5 26t29 38.5t10 46q0 27 -11 45t-24 29
q-16 13 -35 21q15 7 27 18q11 10 19.5 26t8.5 41q0 45 -35 77.5t-95 32.5t-95 -32.5t-35 -77.5q0 -25 8 -41t19 -26q12 -11 28 -18q-20 -8 -35 -21q-14 -11 -24.5 -29t-10.5 -45q0 -24 10 -46t28.5 -38.5t45.5 -26t61 -9.5zM85 320q0 86 32.5 161.5t88.5 132t132 89
t162 32.5t161.5 -32.5t132 -89t89 -132t32.5 -161.5t-32.5 -162t-89 -132t-132 -88.5t-161.5 -32.5t-162 32.5t-132 88.5t-88.5 132t-32.5 162z" />
    <glyph glyph-name="uni277E" unicode="&#x277e;" horiz-adv-x="1000" 
d="M500 525q-30 0 -56.5 -11.5t-46 -30.5t-31 -44.5t-11.5 -53.5t11.5 -53.5t31 -44.5t46 -30.5t56.5 -11.5h10l-85 -125h75l115 170q8 12 15 27q5 13 10 30t5 38q0 28 -11.5 53.5t-31 44.5t-46 30.5t-56.5 11.5zM915 320q0 -86 -32.5 -162t-89 -132t-132 -88.5
t-161.5 -32.5t-162 32.5t-132 88.5t-88.5 132t-32.5 162t32.5 161.5t88.5 132t132 89t162 32.5t161.5 -32.5t132 -89t89 -132t32.5 -161.5zM425 385q0 30 20.5 52.5t54.5 22.5t54.5 -22.5t20.5 -52.5t-20.5 -52.5t-54.5 -22.5t-54.5 22.5t-20.5 52.5z" />
    <glyph glyph-name="commaaccent" unicode="&#xf6c3;" horiz-adv-x="160" 
d="M30 -115q0 21 14.5 35.5t35.5 14.5t35.5 -14.5t14.5 -35.5q0 -36 -12 -62.5t-26 -43.5q-17 -20 -37 -34l-15 20q10 9 18 20q7 9 13.5 22t8.5 28q-21 0 -35.5 14.5t-14.5 35.5z" />
    <glyph glyph-name="cyrBreve" unicode="&#xf6d1;" horiz-adv-x="310" 
d="M155 700q-53 0 -85 30.5t-40 79.5h60q4 -26 21.5 -43t43.5 -17t43.5 17t21.5 43h60q-8 -49 -40 -79.5t-85 -30.5z" />
    <glyph glyph-name="cyrbreve" unicode="&#xf6d4;" horiz-adv-x="300" 
d="M150 520q-49 0 -80.5 32.5t-39.5 77.5h60q4 -26 20.5 -43t39.5 -17t39.5 17t20.5 43h60q-8 -45 -39.5 -77.5t-80.5 -32.5z" />
    <glyph glyph-name="s_t" unicode="&#xfb06;" horiz-adv-x="715" 
d="M360 130q0 -28 -11 -52.5t-31 -43t-48.5 -29t-64.5 -10.5q-75 0 -118 40t-47 100h75q4 -30 26 -50t64 -20q38 0 59 19.5t21 45.5q0 25 -17.5 37.5t-43.5 20t-56.5 14t-56.5 19.5t-43.5 37t-17.5 67q0 26 11 49.5t30.5 41.5t47 28.5t61.5 10.5h15q-2 4 -3 11q-1 5 -1.5 14
t-0.5 20q0 37 13.5 69.5t37.5 55.5t57 36.5t72 13.5t72 -13t57 -36t37.5 -54t13.5 -67v-55h100v-65h-100v-240q0 -38 20.5 -59t54.5 -21q10 0 18 2q4 1 7 3v-65q-5 -3 -11 -5q-13 -5 -34 -5q-26 0 -49.5 11t-41.5 30.5t-28.5 47t-10.5 61.5v240h-80v65h35q55 0 55 55
q0 45 -30.5 75t-79.5 30t-79.5 -30.5t-30.5 -79.5q0 -34 10 -53t23 -35.5t24 -36t13 -55.5h-75q-4 30 -23 47.5t-57 17.5q-34 0 -54.5 -18.5t-20.5 -41.5q0 -25 17.5 -37.5t43.5 -20t56.5 -14t56.5 -19.5t43.5 -37.5t17.5 -66.5z" />
    <glyph glyph-name="lslash.alt" horiz-adv-x="280" 
d="M170 308v-163q0 -38 20.5 -59t54.5 -21q10 0 18 2q4 1 7 3v-65q-5 -3 -11 -5q-13 -5 -34 -5q-26 0 -49.5 11t-41.5 30.5t-28.5 47t-10.5 61.5v114l-75 -49v75l75 49v296h75v-247l80 52v-75z" />
    <glyph glyph-name="Germandbls" horiz-adv-x="590" 
d="M390 370q45 -8 80 -31q15 -10 29.5 -23.5t25.5 -32.5t18 -43t7 -55q0 -39 -14 -73t-39 -59t-59 -39t-73 -14h-55v70h55q45 0 75 31t30 84t-30 84t-75 31h-55v70l117 190h-162q-21 0 -40 -9t-33.5 -24t-23 -35t-8.5 -42v-450h-80v450q0 36 14.5 68.5t40 57t59 39.5
t71.5 15h250v-60z" />
    <glyph glyph-name="a.alt" horiz-adv-x="515" 
d="M390 225q0 36 -11.5 65.5t-30.5 50.5t-44.5 32.5t-53.5 11.5t-53.5 -11.5t-44.5 -32.5t-30.5 -50.5t-11.5 -65.5t11.5 -65.5t30.5 -50.5t44.5 -32.5t53.5 -11.5t53.5 11.5t44.5 32.5t30.5 50.5t11.5 65.5zM380 50q-15 -16 -34 -28q-17 -11 -42 -19t-59 -8q-43 0 -81.5 17
t-67 47.5t-45 72.5t-16.5 93t16.5 93t45 72.5t67 47.5t81.5 17q34 0 59 -8.5t42 -19.5q19 -12 34 -27l20 50h55v-450h-55z" />
    <glyph glyph-name="afii10085.alt" horiz-adv-x="450" 
d="M10 450h80l135 -345l135 345h80l-245 -610h-80l70 170z" />
    <glyph glyph-name="l.alt" horiz-adv-x="255" 
d="M145 145q0 -38 20.5 -59t54.5 -21q10 0 18 2q4 1 7 3v-65q-5 -3 -11 -5q-13 -5 -34 -5q-26 0 -49.5 11t-41.5 30.5t-28.5 47t-10.5 61.5v485h75v-485z" />
    <glyph glyph-name="y.alt" horiz-adv-x="510" 
d="M240 10q-36 0 -67.5 14.5t-55.5 40t-38 61.5t-14 79v245h75v-245q0 -28 8.5 -51t23.5 -39.5t35 -25.5t43 -9q53 0 86.5 34t33.5 91v245h75v-435q0 -39 -14 -73t-39.5 -59t-60.5 -39t-76 -14q-39 0 -70 10.5t-54 29t-38.5 43t-22.5 52.5h75q11 -26 36 -45.5t74 -19.5
q24 0 45 9t36.5 24.5t24.5 36.5t9 45v55q-14 -17 -33 -30q-17 -11 -41 -20.5t-56 -9.5z" />
    <glyph glyph-name="I.alt" horiz-adv-x="350" 
d="M135 70v490h-100v70h280v-70h-100v-490h100v-70h-280v70h100z" />
    <glyph glyph-name="c_t" horiz-adv-x="785" 
d="M520 450q55 0 55 55q0 49 -28 77t-77 28t-79.5 -30.5t-30.5 -79.5q0 -38 9.5 -62.5t23 -46t26.5 -44.5t21 -57h-75q-6 19 -17 36t-26.5 30t-35 21t-41.5 8q-26 0 -50.5 -11.5t-43.5 -32.5t-30 -50.5t-11 -65.5t11 -65.5t30 -50.5t43.5 -32.5t50.5 -11.5q22 0 41.5 8
t35 21t26.5 30t17 36h75q-8 -34 -25 -64t-42.5 -52.5t-58 -35.5t-69.5 -13q-43 0 -81.5 17t-67 47.5t-45 72.5t-16.5 93t16.5 93t45 72.5t67 47.5t81.5 17q9 0 17.5 -1t14.5 -2q7 -1 13 -2q-2 6 -3 14q-1 7 -1.5 16t-0.5 20q0 37 13.5 69.5t37.5 55.5t57 36.5t72 13.5
t71.5 -12.5t55.5 -35t35.5 -54t12.5 -68.5v-55h100v-65h-100v-240q0 -38 20.5 -59t54.5 -21q10 0 18 2q4 1 7 3v-65q-5 -3 -11 -5q-13 -5 -34 -5q-26 0 -49.5 11t-41.5 30.5t-28.5 47t-10.5 61.5v240h-80v65h35v0z" />
    <glyph glyph-name="r_f" horiz-adv-x="525" 
d="M500 380h-100v-380h-75v380h-65q-53 0 -86.5 -34t-33.5 -91v-255h-75v450h55l20 -50q14 14 32 25q16 9 39.5 17t53.5 8h60v35q0 34 10.5 61.5t28.5 47t41.5 30.5t49.5 11q11 0 19.5 -1.5t14.5 -3.5q6 -3 11 -5v-65q-3 1 -7 2q-3 1 -8 2t-10 1q-34 0 -54.5 -21t-20.5 -59
v-35h100v-70z" />
    <glyph glyph-name="r_t" horiz-adv-x="545" 
d="M335 570h65v-120h100v-70h-100v-235q0 -38 20.5 -59t54.5 -21q10 0 18 2q4 1 7 3v-65q-5 -3 -11 -5q-13 -5 -34 -5q-26 0 -49.5 11t-41.5 30.5t-28.5 47t-10.5 61.5v235h-65q-53 0 -86.5 -34t-33.5 -91v-255h-75v450h55l20 -50q14 14 32 25q16 9 39.5 17t53.5 8h15
q55 0 55 55v65z" />
    <glyph glyph-name="afii10065.alt" horiz-adv-x="515" 
d="M390 225q0 36 -11.5 65.5t-30.5 50.5t-44.5 32.5t-53.5 11.5t-53.5 -11.5t-44.5 -32.5t-30.5 -50.5t-11.5 -65.5t11.5 -65.5t30.5 -50.5t44.5 -32.5t53.5 -11.5t53.5 11.5t44.5 32.5t30.5 50.5t11.5 65.5zM380 50q-15 -16 -34 -28q-17 -11 -42 -19t-59 -8q-43 0 -81.5 17
t-67 47.5t-45 72.5t-16.5 93t16.5 93t45 72.5t67 47.5t81.5 17q34 0 59 -8.5t42 -19.5q19 -12 34 -27l20 50h55v-450h-55z" />
    <glyph glyph-name="afii10110.alt" horiz-adv-x="450" 
d="M225 520q-49 0 -80.5 32.5t-39.5 77.5h60q4 -26 20.5 -43t39.5 -17t39.5 17t20.5 43h60q-8 -45 -39.5 -77.5t-80.5 -32.5zM10 450h80l135 -345l135 345h80l-245 -610h-80l70 170z" />
    <glyph glyph-name="agrave.alt" horiz-adv-x="515" 
d="M290 525h-50l-85 120h75zM390 225q0 36 -11.5 65.5t-30.5 50.5t-44.5 32.5t-53.5 11.5t-53.5 -11.5t-44.5 -32.5t-30.5 -50.5t-11.5 -65.5t11.5 -65.5t30.5 -50.5t44.5 -32.5t53.5 -11.5t53.5 11.5t44.5 32.5t30.5 50.5t11.5 65.5zM380 50q-15 -16 -34 -28
q-17 -11 -42 -19t-59 -8q-43 0 -81.5 17t-67 47.5t-45 72.5t-16.5 93t16.5 93t45 72.5t67 47.5t81.5 17q34 0 59 -8.5t42 -19.5q19 -12 34 -27l20 50h55v-450h-55z" />
    <glyph glyph-name="aacute.alt" horiz-adv-x="515" 
d="M290 645h75l-85 -120h-50zM390 225q0 36 -11.5 65.5t-30.5 50.5t-44.5 32.5t-53.5 11.5t-53.5 -11.5t-44.5 -32.5t-30.5 -50.5t-11.5 -65.5t11.5 -65.5t30.5 -50.5t44.5 -32.5t53.5 -11.5t53.5 11.5t44.5 32.5t30.5 50.5t11.5 65.5zM380 50q-15 -16 -34 -28
q-17 -11 -42 -19t-59 -8q-43 0 -81.5 17t-67 47.5t-45 72.5t-16.5 93t16.5 93t45 72.5t67 47.5t81.5 17q34 0 59 -8.5t42 -19.5q19 -12 34 -27l20 50h55v-450h-55z" />
    <glyph glyph-name="abreve.alt" horiz-adv-x="515" 
d="M250 520q-49 0 -80.5 32.5t-39.5 77.5h60q4 -26 20.5 -43t39.5 -17t39.5 17t20.5 43h60q-8 -45 -39.5 -77.5t-80.5 -32.5zM390 225q0 36 -11.5 65.5t-30.5 50.5t-44.5 32.5t-53.5 11.5t-53.5 -11.5t-44.5 -32.5t-30.5 -50.5t-11.5 -65.5t11.5 -65.5t30.5 -50.5
t44.5 -32.5t53.5 -11.5t53.5 11.5t44.5 32.5t30.5 50.5t11.5 65.5zM380 50q-15 -16 -34 -28q-17 -11 -42 -19t-59 -8q-43 0 -81.5 17t-67 47.5t-45 72.5t-16.5 93t16.5 93t45 72.5t67 47.5t81.5 17q34 0 59 -8.5t42 -19.5q19 -12 34 -27l20 50h55v-450h-55z" />
    <glyph glyph-name="acircumflex.alt" horiz-adv-x="515" 
d="M380 520h-75l-50 70l-50 -70h-75l90 120h70zM390 225q0 36 -11.5 65.5t-30.5 50.5t-44.5 32.5t-53.5 11.5t-53.5 -11.5t-44.5 -32.5t-30.5 -50.5t-11.5 -65.5t11.5 -65.5t30.5 -50.5t44.5 -32.5t53.5 -11.5t53.5 11.5t44.5 32.5t30.5 50.5t11.5 65.5zM380 50
q-15 -16 -34 -28q-17 -11 -42 -19t-59 -8q-43 0 -81.5 17t-67 47.5t-45 72.5t-16.5 93t16.5 93t45 72.5t67 47.5t81.5 17q34 0 59 -8.5t42 -19.5q19 -12 34 -27l20 50h55v-450h-55z" />
    <glyph glyph-name="adieresis.alt" horiz-adv-x="515" 
d="M175 535q-19 0 -32 13t-13 32t13 32t32 13t32 -13t13 -32t-13 -32t-32 -13zM325 535q-19 0 -32 13t-13 32t13 32t32 13t32 -13t13 -32t-13 -32t-32 -13zM390 225q0 36 -11.5 65.5t-30.5 50.5t-44.5 32.5t-53.5 11.5t-53.5 -11.5t-44.5 -32.5t-30.5 -50.5t-11.5 -65.5
t11.5 -65.5t30.5 -50.5t44.5 -32.5t53.5 -11.5t53.5 11.5t44.5 32.5t30.5 50.5t11.5 65.5zM380 50q-15 -16 -34 -28q-17 -11 -42 -19t-59 -8q-43 0 -81.5 17t-67 47.5t-45 72.5t-16.5 93t16.5 93t45 72.5t67 47.5t81.5 17q34 0 59 -8.5t42 -19.5q19 -12 34 -27l20 50h55
v-450h-55z" />
    <glyph glyph-name="amacron.alt" horiz-adv-x="515" 
d="M380 545h-240v60h240v-60zM390 225q0 36 -11.5 65.5t-30.5 50.5t-44.5 32.5t-53.5 11.5t-53.5 -11.5t-44.5 -32.5t-30.5 -50.5t-11.5 -65.5t11.5 -65.5t30.5 -50.5t44.5 -32.5t53.5 -11.5t53.5 11.5t44.5 32.5t30.5 50.5t11.5 65.5zM380 50q-15 -16 -34 -28
q-17 -11 -42 -19t-59 -8q-43 0 -81.5 17t-67 47.5t-45 72.5t-16.5 93t16.5 93t45 72.5t67 47.5t81.5 17q34 0 59 -8.5t42 -19.5q19 -12 34 -27l20 50h55v-450h-55z" />
    <glyph glyph-name="aogonek.alt" horiz-adv-x="515" 
d="M380 50q-15 -16 -34 -28q-17 -11 -42 -19t-59 -8q-43 0 -81.5 17t-67 47.5t-45 72.5t-16.5 93t16.5 93t45 72.5t67 47.5t81.5 17q34 0 59 -8.5t42 -19.5q19 -12 34 -27l20 50h55v-450h-5q-10 -12 -18 -26q-7 -12 -12 -27t-5 -32q0 -19 13 -32t32 -13q8 0 14.5 0.5
t12.5 1.5t13 3v-40q-7 -2 -13 -3t-12.5 -1.5t-14.5 -0.5q-45 0 -70 23.5t-25 61.5q0 17 5 32t12 27q8 14 18 26zM390 225q0 36 -11.5 65.5t-30.5 50.5t-44.5 32.5t-53.5 11.5t-53.5 -11.5t-44.5 -32.5t-30.5 -50.5t-11.5 -65.5t11.5 -65.5t30.5 -50.5t44.5 -32.5t53.5 -11.5
t53.5 11.5t44.5 32.5t30.5 50.5t11.5 65.5z" />
    <glyph glyph-name="aring.alt" horiz-adv-x="515" 
d="M220 590q0 -15 10 -25t25 -10t25 10t10 25t-10 25t-25 10t-25 -10t-10 -25zM335 590q0 -34 -23 -57t-57 -23t-57 23t-23 57t23 57t57 23t57 -23t23 -57zM390 225q0 36 -11.5 65.5t-30.5 50.5t-44.5 32.5t-53.5 11.5t-53.5 -11.5t-44.5 -32.5t-30.5 -50.5t-11.5 -65.5
t11.5 -65.5t30.5 -50.5t44.5 -32.5t53.5 -11.5t53.5 11.5t44.5 32.5t30.5 50.5t11.5 65.5zM380 50q-15 -16 -34 -28q-17 -11 -42 -19t-59 -8q-43 0 -81.5 17t-67 47.5t-45 72.5t-16.5 93t16.5 93t45 72.5t67 47.5t81.5 17q34 0 59 -8.5t42 -19.5q19 -12 34 -27l20 50h55
v-450h-55z" />
    <glyph glyph-name="atilde.alt" horiz-adv-x="515" 
d="M315 570q15 0 27.5 15t12.5 45h45q0 -57 -25.5 -86t-59.5 -29q-23 0 -38 10t-26.5 22.5t-22 22.5t-23.5 10q-15 0 -27.5 -15t-12.5 -45h-45q0 57 25.5 86t59.5 29q22 0 37.5 -10t27 -22.5t22 -22.5t23.5 -10zM390 225q0 36 -11.5 65.5t-30.5 50.5t-44.5 32.5t-53.5 11.5
t-53.5 -11.5t-44.5 -32.5t-30.5 -50.5t-11.5 -65.5t11.5 -65.5t30.5 -50.5t44.5 -32.5t53.5 -11.5t53.5 11.5t44.5 32.5t30.5 50.5t11.5 65.5zM380 50q-15 -16 -34 -28q-17 -11 -42 -19t-59 -8q-43 0 -81.5 17t-67 47.5t-45 72.5t-16.5 93t16.5 93t45 72.5t67 47.5t81.5 17
q34 0 59 -8.5t42 -19.5q19 -12 34 -27l20 50h55v-450h-55z" />
    <glyph glyph-name="lacute.alt" horiz-adv-x="255" 
d="M140 825h75l-85 -120h-50zM145 145q0 -38 20.5 -59t54.5 -21q10 0 18 2q4 1 7 3v-65q-5 -3 -11 -5q-13 -5 -34 -5q-26 0 -49.5 11t-41.5 30.5t-28.5 47t-10.5 61.5v485h75v-485z" />
    <glyph glyph-name="lcaron.alt" horiz-adv-x="260" 
d="M145 145q0 -38 20.5 -59t54.5 -21q10 0 18 2q4 1 7 3v-65q-5 -3 -11 -5q-13 -5 -34 -5q-26 0 -49.5 11t-41.5 30.5t-28.5 47t-10.5 61.5v485h75v-485zM235 630h70l-60 -120h-45z" />
    <glyph glyph-name="lcommaaccent.alt" horiz-adv-x="255" 
d="M105 -115q0 21 14.5 35.5t35.5 14.5t35.5 -14.5t14.5 -35.5q0 -36 -12 -62.5t-26 -43.5q-17 -20 -37 -34l-15 20q10 9 18 20q7 9 13.5 22t8.5 28q-21 0 -35.5 14.5t-14.5 35.5zM145 145q0 -38 20.5 -59t54.5 -21q10 0 18 2q4 1 7 3v-65q-5 -3 -11 -5q-13 -5 -34 -5
q-26 0 -49.5 11t-41.5 30.5t-28.5 47t-10.5 61.5v485h75v-485z" />
    <glyph glyph-name="Igrave.alt" horiz-adv-x="350" 
d="M200 705h-50l-85 120h75zM135 70v490h-100v70h280v-70h-100v-490h100v-70h-280v70h100z" />
    <glyph glyph-name="Iacute.alt" horiz-adv-x="350" 
d="M210 825h75l-85 -120h-50zM135 70v490h-100v70h280v-70h-100v-490h100v-70h-280v70h100z" />
    <glyph glyph-name="Icircumflex.alt" horiz-adv-x="350" 
d="M296 700h-75l-50 70l-50 -70h-75l90 120h70zM135 70v490h-100v70h280v-70h-100v-490h100v-70h-280v70h100z" />
    <glyph glyph-name="Idieresis.alt" horiz-adv-x="350" 
d="M100 715q-19 0 -32 13t-13 32t13 32t32 13t32 -13t13 -32t-13 -32t-32 -13zM250 715q-19 0 -32 13t-13 32t13 32t32 13t32 -13t13 -32t-13 -32t-32 -13zM135 70v490h-100v70h280v-70h-100v-490h100v-70h-280v70h100z" />
    <glyph glyph-name="Idotaccent.alt" horiz-adv-x="350" 
d="M120 757q0 21 13.5 34.5t33.5 13.5q21 0 34.5 -13.5t13.5 -34.5q0 -20 -13.5 -33.5t-34.5 -13.5q-20 0 -33.5 13.5t-13.5 33.5zM135 70v490h-100v70h280v-70h-100v-490h100v-70h-280v70h100z" />
    <glyph glyph-name="Imacron.alt" horiz-adv-x="350" 
d="M290 720h-240v60h240v-60zM135 70v490h-100v70h280v-70h-100v-490h100v-70h-280v70h100z" />
    <glyph glyph-name="Iogonek.alt" horiz-adv-x="350" 
d="M35 0v70h100v490h-100v70h280v-70h-100v-490h100v-70q-10 -12 -18 -26q-7 -12 -12 -27t-5 -32q0 -19 13 -32t32 -13q8 0 14.5 0.5t12.5 1.5t13 3v-40q-7 -2 -13 -3t-12.5 -1.5t-14.5 -0.5q-45 0 -70 23.5t-25 61.5q0 17 5 32t12 27q8 14 18 26h-230z" />
    <glyph glyph-name="yacute.alt" horiz-adv-x="510" 
d="M285 645h75l-85 -120h-50zM240 10q-36 0 -67.5 14.5t-55.5 40t-38 61.5t-14 79v245h75v-245q0 -28 8.5 -51t23.5 -39.5t35 -25.5t43 -9q53 0 86.5 34t33.5 91v245h75v-435q0 -39 -14 -73t-39.5 -59t-60.5 -39t-76 -14q-39 0 -70 10.5t-54 29t-38.5 43t-22.5 52.5h75
q11 -26 36 -45.5t74 -19.5q24 0 45 9t36.5 24.5t24.5 36.5t9 45v55q-14 -17 -33 -30q-17 -11 -41 -20.5t-56 -9.5z" />
    <glyph glyph-name="ydieresis.alt" horiz-adv-x="510" 
d="M175 535q-19 0 -32 13t-13 32t13 32t32 13t32 -13t13 -32t-13 -32t-32 -13zM325 535q-19 0 -32 13t-13 32t13 32t32 13t32 -13t13 -32t-13 -32t-32 -13zM240 10q-36 0 -67.5 14.5t-55.5 40t-38 61.5t-14 79v245h75v-245q0 -28 8.5 -51t23.5 -39.5t35 -25.5t43 -9
q53 0 86.5 34t33.5 91v245h75v-435q0 -39 -14 -73t-39.5 -59t-60.5 -39t-76 -14q-39 0 -70 10.5t-54 29t-38.5 43t-22.5 52.5h75q11 -26 36 -45.5t74 -19.5q24 0 45 9t36.5 24.5t24.5 36.5t9 45v55q-14 -17 -33 -30q-17 -11 -41 -20.5t-56 -9.5z" />
    <glyph glyph-name="zero.tab" 
d="M80 315q0 -64 14 -111t37 -78t52.5 -46t61.5 -15t61.5 15t52.5 46t37 78t14 111t-14 111t-37 78t-52.5 46t-61.5 15t-61.5 -15t-52.5 -46t-37 -78t-14 -111zM490 315q0 -77 -20 -136.5t-54 -100.5t-78 -62t-93 -21t-93.5 21t-78 62t-53.5 100.5t-20 136.5t20 136.5
t53.5 100.5t78 62t93.5 21t93 -21t78 -62t54 -100.5t20 -136.5z" />
    <glyph glyph-name="one.tab" 
d="M310 630v-560h130v-70h-340v70h130v450l-90 -60l-35 60l155 110h50z" />
    <glyph glyph-name="two.tab" 
d="M445 70v-70h-390v60l250 275q17 18 30 38q11 17 20.5 39.5t9.5 47.5q0 45 -31 75t-84 30t-86.5 -33.5t-33.5 -86.5h-80q0 39 15 74t42 60.5t63.5 40.5t79.5 15t79 -14t61.5 -38t40 -55.5t14.5 -67.5q0 -34 -13.5 -65t-29.5 -54q-18 -27 -42 -51l-200 -220h285z" />
    <glyph glyph-name="three.tab" 
d="M40 470q4 34 19.5 64t40.5 52.5t59.5 35.5t75.5 13q43 0 79 -14t61.5 -38t40 -55.5t14.5 -67.5q0 -34 -14 -58.5t-31 -40.5q-20 -18 -45 -31q30 -13 55 -34q20 -18 37.5 -48t17.5 -73q0 -36 -15 -68.5t-43 -57t-66.5 -39.5t-85.5 -15q-43 0 -78.5 13t-61.5 35.5
t-42.5 52.5t-22.5 64h80q8 -38 40 -66.5t85 -28.5q60 0 95 32.5t35 77.5q0 46 -35 78t-95 32h-35v70h30q53 0 84 30t31 75t-31 75t-84 30q-24 0 -44.5 -8t-35.5 -21t-24 -30t-11 -36h-80z" />
    <glyph glyph-name="four.tab" 
d="M460 135h-70v-135h-80v135h-280v65l265 430h95v-425h70v-70zM310 205v310l-190 -310h190z" />
    <glyph glyph-name="five.tab" 
d="M260 415q41 0 77.5 -16t63.5 -44t43 -66.5t16 -83.5t-16 -83.5t-44 -66.5t-66.5 -44t-83.5 -16q-43 0 -78.5 13t-61.5 35.5t-42.5 52.5t-22.5 64h80q8 -38 40 -66.5t85 -28.5q28 0 51.5 10t41 28t27.5 44t10 58q0 64 -36.5 102t-93.5 38q-34 0 -57 -12t-37 -26
q-17 -17 -26 -37h-70l40 360h320v-75h-250l-20 -180q12 11 29 20q14 8 34.5 14t46.5 6z" />
    <glyph glyph-name="six.tab" 
d="M245 -5q-45 0 -84 16.5t-68.5 46t-46 68.5t-16.5 84q0 30 8 57t19 48q12 24 28 45l180 270h85l-140 -210l10 2t11 2t14 1q45 0 84 -16.5t68.5 -46t46 -68.5t16.5 -84t-16.5 -84t-46 -68.5t-68.5 -46t-84 -16.5zM110 210q0 -32 10.5 -58.5t29 -45.5t43 -30t52.5 -11
t52.5 10.5t43 30t29 46t10.5 58.5q0 30 -10.5 55.5t-29 44.5t-43 29.5t-52.5 10.5t-52.5 -10.5t-43 -29.5t-29 -44.5t-10.5 -55.5z" />
    <glyph glyph-name="seven.tab" 
d="M450 630v-55l-265 -575h-85l260 560h-290v70h380z" />
    <glyph glyph-name="eight.tab" 
d="M245 -5q-47 0 -85.5 15t-66.5 40t-43 58.5t-15 71.5q0 45 17 75.5t38 49.5q24 22 55 35q-25 9 -43 27q-16 15 -29 40t-13 63q0 32 14 61.5t39 52.5t59 37t73 14t73 -14t59 -37t39 -52.5t14 -61.5q0 -38 -13.5 -63t-29.5 -40q-18 -18 -42 -27q30 -13 55 -35
q20 -19 37.5 -49.5t17.5 -75.5q0 -38 -15 -71.5t-43 -58.5t-66.5 -40t-85.5 -15zM245 300q-60 0 -95 -33t-35 -82q0 -53 35 -86.5t95 -33.5t95 33.5t35 86.5q0 49 -35 82t-95 33zM245 370q22 0 41.5 8t33.5 21t22 30t8 36q0 21 -8 39t-22 31.5t-33.5 21.5t-41.5 8
q-23 0 -42 -8t-33 -21.5t-22 -31.5t-8 -39q0 -19 8 -36t22 -30t33 -21t42 -8z" />
    <glyph glyph-name="nine.tab" 
d="M245 635q45 0 84 -16.5t68.5 -46t46 -68.5t16.5 -84q0 -30 -8.5 -57.5t-19.5 -47.5q-12 -25 -27 -45l-180 -270h-85l140 210q-5 -2 -10 -3t-11 -1.5t-14 -0.5q-45 0 -84 16.5t-68.5 46t-46 68.5t-16.5 84t16.5 84t46 68.5t68.5 46t84 16.5zM380 420q0 31 -10.5 58t-29 46
t-43 30t-52.5 11t-52.5 -10.5t-43 -30t-29 -46t-10.5 -58.5q0 -30 10.5 -55.5t29 -44.5t43 -29.5t52.5 -10.5t52.5 10.5t43 29.5t29 44.5t10.5 55.5z" />
    <glyph glyph-name="at.case" horiz-adv-x="740" 
d="M465 191q-12 -18 -29 -31q-14 -11 -34.5 -20.5t-46.5 -9.5q-30 0 -57 12.5t-48 35t-33 53.5t-12 69q0 37 12 68.5t33 54t48 35t57 12.5q26 0 45.5 -8.5t33.5 -19.5q15 -12 26 -27l15 50h45v-197q0 -44 16 -63.5t39 -19.5q15 0 28 6.5t22 21t14.5 38.5t5.5 59
q0 54 -22 103t-59 86t-86 59t-103 22t-103 -22t-86 -60t-59 -89t-22 -109t22 -109t59 -89t86 -60t103 -22q30 0 55.5 7t44.5 15q22 10 40 23l30 -50q-24 -14 -51 -25q-23 -10 -54 -17.5t-65 -7.5q-69 0 -130 26.5t-106.5 72t-72 106.5t-26.5 130t26.5 130t72 106.5t106.5 72
t130 26.5t130 -26t106.5 -70.5t72 -103.5t26.5 -125q0 -45 -10.5 -78.5t-29 -56t-43 -34t-52.5 -11.5q-29 0 -49.5 9.5t-34.5 20.5q-16 13 -26 31zM265 300q0 -49 29 -79.5t71 -30.5q44 0 72 29t28 81t-28 81t-72 29q-42 0 -71 -30.5t-29 -79.5z" />
    <glyph glyph-name="parenleft.case" horiz-adv-x="265" 
d="M125 300q0 -78 18.5 -146.5t41.5 -122.5q26 -62 60 -116l-50 -35q-39 53 -70 118q-26 56 -48 132.5t-22 169.5q0 92 22 169t48 133q31 65 70 118l50 -35q-34 -54 -60 -116q-23 -54 -41.5 -123t-18.5 -146z" />
    <glyph glyph-name="parenright.case" horiz-adv-x="265" 
d="M140 300q0 77 -18.5 146t-41.5 123q-26 62 -60 116l50 35q39 -53 70 -118q26 -56 48 -133t22 -169q0 -93 -22 -169.5t-48 -132.5q-31 -65 -70 -118l-50 35q34 54 60 116q23 54 41.5 122.5t18.5 146.5z" />
    <glyph glyph-name="bracketleft.case" horiz-adv-x="285" 
d="M150 -40h115v-65h-185v810h185v-65h-115v-680z" />
    <glyph glyph-name="bracketright.case" horiz-adv-x="285" 
d="M135 640h-115v65h185v-810h-185v65h115v680z" />
    <glyph glyph-name="braceleft.case" horiz-adv-x="300" 
d="M45 330q55 0 55 55v195q0 60 33 92.5t97 32.5h50v-65h-52q-25 0 -41.5 -17t-16.5 -43v-195q0 -26 -9.5 -43t-20.5 -26q-13 -11 -30 -16q17 -5 30 -16q11 -10 20.5 -26.5t9.5 -42.5v-195q0 -26 16.5 -43t41.5 -17h52v-65h-50q-64 0 -97 32.5t-33 92.5v195q0 55 -55 55v60z
" />
    <glyph glyph-name="braceright.case" horiz-adv-x="300" 
d="M255 270q-55 0 -55 -55v-195q0 -60 -33 -92.5t-97 -32.5h-50v65h52q25 0 41.5 17t16.5 43v195q0 26 9.5 42.5t20.5 26.5q13 11 30 16q-17 5 -30 16q-11 9 -20.5 26t-9.5 43v195q0 26 -16.5 43t-41.5 17h-52v65h50q64 0 97 -32.5t33 -92.5v-195q0 -55 55 -55v-60z" />
    <glyph glyph-name="exclamdown.case" horiz-adv-x="260" 
d="M180 0h-100l20 480h60zM80 585q0 23 13.5 36.5t36.5 13.5t36.5 -13.5t13.5 -36.5t-13.5 -36.5t-36.5 -13.5t-36.5 13.5t-13.5 36.5z" />
    <glyph glyph-name="questiondown.case" horiz-adv-x="430" 
d="M30 161q0 40 10.5 66.5t27 46.5t35 36.5t35 36.5t27 46.5t10.5 66.5v5h80v-5q0 -48 -10.5 -79.5t-27 -54t-35 -39t-35 -34t-27 -39t-10.5 -53.5q0 -42 26.5 -69t68.5 -27q49 0 77 30.5t28 94.5v10h80v-10q0 -94 -51 -144.5t-134 -50.5q-38 0 -70 12.5t-55 34.5
t-36.5 52.5t-13.5 66.5zM265 585q0 -23 -13.5 -36.5t-36.5 -13.5t-36.5 13.5t-13.5 36.5t13.5 36.5t36.5 13.5t36.5 -13.5t13.5 -36.5z" />
    <glyph glyph-name="guillemotleft.case" horiz-adv-x="440" 
d="M220 140h-75l-110 160l110 160h75l-110 -160zM405 140h-75l-110 160l110 160h75l-110 -160z" />
    <glyph glyph-name="guillemotright.case" horiz-adv-x="440" 
d="M330 300l-110 160h75l110 -160l-110 -160h-75zM145 300l-110 160h75l110 -160l-110 -160h-75z" />
    <glyph glyph-name="guilsinglleft.case" horiz-adv-x="255" 
d="M220 140h-75l-110 160l110 160h75l-110 -160z" />
    <glyph glyph-name="guilsinglright.case" horiz-adv-x="255" 
d="M145 300l-110 160h75l110 -160l-110 -160h-75z" />
    <glyph glyph-name="hyphen.case" horiz-adv-x="345" 
d="M310 295h-275v65h275v-65z" />
    <glyph glyph-name="endash.case" horiz-adv-x="465" 
d="M430 295h-395v70h395v-70z" />
    <glyph glyph-name="emdash.case" horiz-adv-x="710" 
d="M675 295h-640v70h640v-70z" />
    <glyph glyph-name="foundryicon" horiz-adv-x="1538" 
d="M278 429h-72v-199h-35v199h-71v31h178v-31zM519 396q32 0 54.5 -24.5t22.5 -59.5q0 -36 -22.5 -60.5t-54.5 -24.5q-29 0 -47 21v-79h-34v224h24l9 -19q8 10 20.5 16t27.5 6zM516 258q19 0 33 15.5t14 38.5q0 21 -14 36.5t-33 15.5q-20 0 -33.5 -15.5t-13.5 -36.5
q0 -23 13.5 -38.5t33.5 -15.5zM377 393h37l-77 -190q-16 -34 -49 -34q-7 0 -10 1v28q23 0 31 20l6 16l-63 159h37l44 -116zM701 396q32 0 54 -24t22 -59q0 -2 -0.5 -4.5t-0.5 -4.5v-6h-119q2 -17 14.5 -29t29.5 -12q12 0 22 4t15 13h35q-9 -23 -29 -35t-43 -12
q-32 0 -55 24.5t-23 60.5q0 17 6 32.5t16.5 27t25 18t30.5 6.5zM745 325q-1 17 -14.5 28.5t-29.5 11.5t-29 -10.5t-15 -29.5h88zM939 429h-72v-199h-35v199h-71v31h178v-31zM1180 396q32 0 54.5 -24.5t22.5 -59.5q0 -36 -22.5 -60.5t-54.5 -24.5q-29 0 -47 21v-79h-34v224
h24l9 -19q8 10 20.5 16t27.5 6zM1177 258q19 0 33 15.5t14 38.5q0 21 -14 36.5t-33 15.5q-20 0 -33.5 -15.5t-13.5 -36.5q0 -23 13.5 -38.5t33.5 -15.5zM1038 393h37l-77 -190q-16 -34 -49 -34q-7 0 -10 1v28q23 0 31 20l6 16l-63 159h37l44 -116zM1362 396q32 0 54 -24
t22 -59q0 -2 -0.5 -4.5t-0.5 -4.5v-6h-119q2 -17 14.5 -29t29.5 -12q12 0 22 4t15 13h35q-9 -23 -29 -35t-43 -12q-32 0 -55 24.5t-23 60.5q0 17 6 32.5t16.5 27t25 18t30.5 6.5zM1406 325q-1 17 -14.5 28.5t-29.5 11.5t-29 -10.5t-15 -29.5h88z" />
    <glyph glyph-name="bullet.case" horiz-adv-x="380" 
d="M100 335q0 38 26 64t64 26t64 -26t26 -64t-26 -64t-64 -26t-64 26t-26 64z" />
    <glyph glyph-name="periodcentered.case" horiz-adv-x="215" 
d="M60 335q0 23 13.5 36.5t36.5 13.5t36.5 -13.5t13.5 -36.5t-13.5 -36.5t-36.5 -13.5t-36.5 13.5t-13.5 36.5z" />
    <glyph glyph-name="zero.dnom" horiz-adv-x="300" 
d="M85 145q0 -53 19.5 -76.5t45.5 -23.5t45.5 23.5t19.5 76.5t-19.5 76.5t-45.5 23.5t-45.5 -23.5t-19.5 -76.5zM270 145q0 -36 -9.5 -63.5t-26 -47t-38.5 -29.5t-46 -10t-46 10t-38.5 29.5t-26 47t-9.5 63.5t9.5 63.5t26 47t38.5 29.5t46 10t46 -10t38.5 -29.5t26 -47
t9.5 -63.5z" />
    <glyph glyph-name="one.dnom" horiz-adv-x="205" 
d="M100 290h40v-290h-55v220l-40 -20l-25 40z" />
    <glyph glyph-name="two.dnom" horiz-adv-x="255" 
d="M107 50h118v-50h-195v40l110 115q11 11 20.5 23.5t9.5 26.5q0 40 -45 40t-45 -45h-50q0 42 26.5 68.5t68.5 26.5q45 0 72.5 -26t27.5 -64q0 -23 -11 -37.5t-19 -22.5z" />
    <glyph glyph-name="three.dnom" horiz-adv-x="265" 
d="M195 155q11 -4 20 -14q8 -8 14 -22t6 -34q0 -38 -27.5 -64t-72.5 -26q-49 0 -77 26.5t-28 68.5h50q0 -18 13.5 -31.5t36.5 -13.5t36.5 12.5t13.5 27.5q0 19 -13.5 32t-36.5 13h-26v45h26q19 0 29.5 10t10.5 25t-10.5 25t-29.5 10q-45 0 -45 -40h-50q0 38 26.5 64t68.5 26
t68.5 -25.5t26.5 -59.5q0 -15 -5 -25.5t-10 -17.5q-7 -8 -15 -12z" />
    <glyph glyph-name="four.dnom" horiz-adv-x="250" 
d="M185 105h35v-50h-35v-55h-55v55h-125v40l120 195h60v-185zM130 105v105l-65 -105h65z" />
    <glyph glyph-name="five.dnom" horiz-adv-x="270" 
d="M145 195q42 0 68.5 -27.5t26.5 -72.5q0 -21 -8 -39t-22 -31.5t-33.5 -21.5t-41.5 -8q-45 0 -71 23.5t-34 61.5h55q4 -15 15.5 -25t34.5 -10t36.5 13.5t13.5 36.5q0 26 -13.5 40.5t-36.5 14.5t-34.5 -9.5t-15.5 -20.5h-45l20 170h160v-50h-114l-6 -55q4 2 11 5q5 2 14 3.5
t20 1.5z" />
    <glyph glyph-name="six.dnom" horiz-adv-x="260" 
d="M135 195q45 0 72.5 -27.5t27.5 -72.5t-27.5 -72.5t-72.5 -27.5t-72.5 27.5t-27.5 72.5q0 19 6 37t14 32q9 17 20 31l65 95h60zM135 145q-18 0 -31.5 -13.5t-13.5 -36.5t13 -36.5t32 -13.5q18 0 31.5 13.5t13.5 36.5t-13.5 36.5t-31.5 13.5z" />
    <glyph glyph-name="seven.dnom" horiz-adv-x="230" 
d="M40 290h190v-35l-120 -255h-55l115 240h-130v50z" />
    <glyph glyph-name="eight.dnom" horiz-adv-x="260" 
d="M130 -5q-45 0 -72.5 26t-27.5 64q0 19 6 32.5t14 21.5q9 10 20 16q-9 4 -15 12q-6 7 -10.5 17.5t-4.5 25.5q0 34 26 59.5t64 25.5t64 -25.5t26 -59.5q0 -15 -5 -25.5t-10 -17.5q-7 -8 -15 -12q11 -6 20 -16q8 -8 14 -21.5t6 -32.5q0 -38 -27.5 -64t-72.5 -26zM130 245
q-19 0 -29.5 -10t-10.5 -25t10.5 -25t29.5 -10t29.5 10t10.5 25t-10.5 25t-29.5 10zM130 130q-19 0 -32 -13t-13 -30t13 -29.5t32 -12.5t32 12.5t13 29.5t-13 30t-32 13z" />
    <glyph glyph-name="nine.dnom" horiz-adv-x="260" 
d="M125 95q-45 0 -72.5 27.5t-27.5 72.5t27.5 72.5t72.5 27.5t72.5 -27.5t27.5 -72.5q0 -19 -6 -37t-14 -32q-9 -17 -20 -31l-65 -95h-60zM125 145q18 0 31.5 13.5t13.5 36.5t-13 36.5t-32 13.5q-18 0 -31.5 -13.5t-13.5 -36.5t13.5 -36.5t31.5 -13.5z" />
    <glyph glyph-name="zero.numr" horiz-adv-x="300" 
d="M85 485q0 -53 19.5 -76.5t45.5 -23.5t45.5 23.5t19.5 76.5t-19.5 76.5t-45.5 23.5t-45.5 -23.5t-19.5 -76.5zM270 485q0 -36 -9.5 -63.5t-26 -47t-38.5 -29.5t-46 -10t-46 10t-38.5 29.5t-26 47t-9.5 63.5t9.5 63.5t26 47t38.5 29.5t46 10t46 -10t38.5 -29.5t26 -47
t9.5 -63.5z" />
    <glyph glyph-name="one.numr" horiz-adv-x="205" 
d="M100 630h40v-290h-55v220l-40 -20l-25 40z" />
    <glyph glyph-name="two.numr" horiz-adv-x="255" 
d="M107 390h118v-50h-195v40l110 115q11 11 20.5 23.5t9.5 26.5q0 40 -45 40t-45 -45h-50q0 42 26.5 68.5t68.5 26.5q45 0 72.5 -26t27.5 -64q0 -23 -11 -37.5t-19 -22.5z" />
    <glyph glyph-name="three.numr" horiz-adv-x="265" 
d="M195 495q11 -4 20 -14q8 -8 14 -22t6 -34q0 -38 -27.5 -64t-72.5 -26q-49 0 -77 26.5t-28 68.5h50q0 -18 13.5 -31.5t36.5 -13.5t36.5 12.5t13.5 27.5q0 19 -13.5 32t-36.5 13h-26v45h26q19 0 29.5 10t10.5 25t-10.5 25t-29.5 10q-45 0 -45 -40h-50q0 38 26.5 64t68.5 26
t68.5 -25.5t26.5 -59.5q0 -15 -5 -25.5t-10 -17.5q-7 -8 -15 -12z" />
    <glyph glyph-name="four.numr" horiz-adv-x="250" 
d="M185 445h35v-50h-35v-55h-55v55h-125v40l120 195h60v-185zM130 445v105l-65 -105h65z" />
    <glyph glyph-name="five.numr" horiz-adv-x="270" 
d="M145 535q42 0 68.5 -27.5t26.5 -72.5q0 -21 -8 -39t-22 -31.5t-33.5 -21.5t-41.5 -8q-45 0 -71 23.5t-34 61.5h55q4 -15 15.5 -25t34.5 -10t36.5 13.5t13.5 36.5q0 26 -13.5 40.5t-36.5 14.5t-34.5 -9.5t-15.5 -20.5h-45l20 170h160v-50h-114l-6 -55q4 2 11 5q5 2 14 3.5
t20 1.5z" />
    <glyph glyph-name="six.numr" horiz-adv-x="260" 
d="M135 535q45 0 72.5 -27.5t27.5 -72.5t-27.5 -72.5t-72.5 -27.5t-72.5 27.5t-27.5 72.5q0 19 6 37t14 32q9 17 20 31l65 95h60zM135 485q-18 0 -31.5 -13.5t-13.5 -36.5t13 -36.5t32 -13.5q18 0 31.5 13.5t13.5 36.5t-13.5 36.5t-31.5 13.5z" />
    <glyph glyph-name="seven.numr" horiz-adv-x="230" 
d="M40 630h190v-35l-120 -255h-55l115 240h-130v50z" />
    <glyph glyph-name="eight.numr" horiz-adv-x="260" 
d="M130 335q-45 0 -72.5 26t-27.5 64q0 19 6 32.5t14 21.5q9 10 20 16q-9 4 -15 12q-6 7 -10.5 17.5t-4.5 25.5q0 34 26 59.5t64 25.5t64 -25.5t26 -59.5q0 -15 -5 -25.5t-10 -17.5q-7 -8 -15 -12q11 -6 20 -16q8 -8 14 -21.5t6 -32.5q0 -38 -27.5 -64t-72.5 -26zM130 585
q-19 0 -29.5 -10t-10.5 -25t10.5 -25t29.5 -10t29.5 10t10.5 25t-10.5 25t-29.5 10zM130 470q-19 0 -32 -13t-13 -30t13 -29.5t32 -12.5t32 12.5t13 29.5t-13 30t-32 13z" />
    <glyph glyph-name="nine.numr" horiz-adv-x="260" 
d="M125 435q-45 0 -72.5 27.5t-27.5 72.5t27.5 72.5t72.5 27.5t72.5 -27.5t27.5 -72.5q0 -19 -6 -37t-14 -32q-9 -17 -20 -31l-65 -95h-60zM125 485q18 0 31.5 13.5t13.5 36.5t-13 36.5t-32 13.5q-18 0 -31.5 -13.5t-13.5 -36.5t13.5 -36.5t31.5 -13.5z" />
    <glyph glyph-name="zero.osf" horiz-adv-x="560" 
d="M135 225q0 -36 11.5 -65.5t31 -50.5t46 -32.5t56.5 -11.5t56.5 11.5t46 32.5t31 50.5t11.5 65.5t-11.5 65.5t-31 50.5t-46 32.5t-56.5 11.5t-56.5 -11.5t-46 -32.5t-31 -50.5t-11.5 -65.5zM505 225q0 -49 -17.5 -91t-48 -73t-71.5 -48.5t-88 -17.5t-88 17.5t-71.5 48.5
t-48 73t-17.5 91t17.5 91t48 73t71.5 48.5t88 17.5t88 -17.5t71.5 -48.5t48 -73t17.5 -91z" />
    <glyph glyph-name="one.osf" horiz-adv-x="310" 
d="M230 450v-450h-80v340l-90 -60l-35 60l155 110h50z" />
    <glyph glyph-name="two.osf" horiz-adv-x="460" 
d="M410 70v-70h-360v50l205 145q34 24 52 48t18 62q0 34 -24 57t-66 23q-49 0 -75.5 -24t-34.5 -66h-80q11 72 59 116t131 44q36 0 67 -13t54 -34t36 -48t13 -55t-7 -50.5t-20.5 -41t-32 -35t-40.5 -33.5l-100 -75h205z" />
    <glyph glyph-name="three.osf" horiz-adv-x="485" 
d="M65 450h355v-50l-155 -195q39 -6 72 -21.5t57 -40.5t37.5 -58.5t13.5 -74.5t-15 -77t-43 -62t-66.5 -41t-85.5 -15t-84 13t-64 36t-42.5 54t-19.5 67h80q8 -42 40.5 -71t89.5 -29q60 0 95 34t35 91q0 56 -35 90.5t-95 34.5q-14 0 -24 -1.5t-17 -3.5q-8 -3 -14 -5l-40 40
l170 215h-245v70z" />
    <glyph glyph-name="four.osf" horiz-adv-x="485" 
d="M460 0h-70v-180h-80v180h-285v60l275 390h90v-380h70v-70zM310 70v280l-195 -280h195z" />
    <glyph glyph-name="five.osf" horiz-adv-x="500" 
d="M260 235q41 0 77.5 -16t63.5 -44t43 -66.5t16 -83.5t-16 -83.5t-44 -66.5t-66.5 -44t-83.5 -16q-43 0 -78.5 13t-61.5 35.5t-42.5 52.5t-22.5 64h80q8 -38 40 -66.5t85 -28.5q28 0 51.5 10t41 28t27.5 44t10 58q0 64 -36.5 102t-93.5 38q-34 0 -57 -12t-37 -26
q-17 -17 -26 -37h-70l40 360h320v-75h-250l-20 -180q12 11 29 20q14 8 34.5 14t46.5 6z" />
    <glyph glyph-name="six.osf" 
d="M245 -5q-45 0 -84 16.5t-68.5 46t-46 68.5t-16.5 84q0 30 8 57t19 48q12 24 28 45l180 270h85l-140 -210l10 2t11 2t14 1q45 0 84 -16.5t68.5 -46t46 -68.5t16.5 -84t-16.5 -84t-46 -68.5t-68.5 -46t-84 -16.5zM110 210q0 -32 10.5 -58.5t29 -45.5t43 -30t52.5 -11
t52.5 10.5t43 30t29 46t10.5 58.5q0 30 -10.5 55.5t-29 44.5t-43 29.5t-52.5 10.5t-52.5 -10.5t-43 -29.5t-29 -44.5t-10.5 -55.5z" />
    <glyph glyph-name="seven.osf" horiz-adv-x="440" 
d="M410 445v-55l-265 -575h-85l260 560h-290v70h380z" />
    <glyph glyph-name="eight.osf" 
d="M245 -5q-47 0 -85.5 15t-66.5 40t-43 58.5t-15 71.5q0 45 17 75.5t38 49.5q24 22 55 35q-25 9 -43 27q-16 15 -29 40t-13 63q0 32 14 61.5t39 52.5t59 37t73 14t73 -14t59 -37t39 -52.5t14 -61.5q0 -38 -13.5 -63t-29.5 -40q-18 -18 -42 -27q30 -13 55 -35
q20 -19 37.5 -49.5t17.5 -75.5q0 -38 -15 -71.5t-43 -58.5t-66.5 -40t-85.5 -15zM245 300q-60 0 -95 -33t-35 -82q0 -53 35 -86.5t95 -33.5t95 33.5t35 86.5q0 49 -35 82t-95 33zM245 370q22 0 41.5 8t33.5 21t22 30t8 36q0 21 -8 39t-22 31.5t-33.5 21.5t-41.5 8
q-23 0 -42 -8t-33 -21.5t-22 -31.5t-8 -39q0 -19 8 -36t22 -30t33 -21t42 -8z" />
    <glyph glyph-name="nine.osf" 
d="M245 452q45 0 84 -16.5t68.5 -46t46 -68.5t16.5 -84q0 -30 -8.5 -57.5t-19.5 -47.5q-12 -25 -27 -45l-180 -270h-85l140 210q-5 -2 -10 -3t-11 -1.5t-14 -0.5q-45 0 -84 16.5t-68.5 46t-46 68.5t-16.5 84t16.5 84t46 68.5t68.5 46t84 16.5zM380 237q0 31 -10.5 58t-29 46
t-43 30t-52.5 11t-52.5 -10.5t-43 -30t-29 -46t-10.5 -58.5q0 -30 10.5 -55.5t29 -44.5t43 -29.5t52.5 -10.5t52.5 10.5t43 29.5t29 44.5t10.5 55.5z" />
    <glyph glyph-name="zero.osftab" 
d="M100 225q0 -36 11.5 -65.5t31 -50.5t46 -32.5t56.5 -11.5t56.5 11.5t46 32.5t31 50.5t11.5 65.5t-11.5 65.5t-31 50.5t-46 32.5t-56.5 11.5t-56.5 -11.5t-46 -32.5t-31 -50.5t-11.5 -65.5zM470 225q0 -49 -17.5 -91t-48 -73t-71.5 -48.5t-88 -17.5t-88 17.5t-71.5 48.5
t-48 73t-17.5 91t17.5 91t48 73t71.5 48.5t88 17.5t88 -17.5t71.5 -48.5t48 -73t17.5 -91z" />
    <glyph glyph-name="one.osftab" 
d="M310 450v-380h130v-70h-340v70h130v270l-90 -60l-35 60l155 110h50z" />
    <glyph glyph-name="two.osftab" 
d="M430 70v-70h-360v50l205 145q34 24 52 48t18 62q0 34 -24 57t-66 23q-49 0 -75.5 -24t-34.5 -66h-80q11 72 59 116t131 44q36 0 67 -13t54 -34t36 -48t13 -55t-7 -50.5t-20.5 -41t-32 -35t-40.5 -33.5l-100 -75h205z" />
    <glyph glyph-name="three.osftab" 
d="M70 450h355v-50l-155 -195q39 -6 72 -21.5t57 -40.5t37.5 -58.5t13.5 -74.5t-15 -77t-43 -62t-66.5 -41t-85.5 -15t-84 13t-64 36t-42.5 54t-19.5 67h80q8 -42 40.5 -71t89.5 -29q60 0 95 34t35 91q0 56 -35 90.5t-95 34.5q-14 0 -24 -1.5t-17 -3.5q-8 -3 -14 -5l-40 40
l170 215h-245v70z" />
    <glyph glyph-name="four.osftab" 
d="M465 0h-70v-180h-80v180h-285v60l275 390h90v-380h70v-70zM315 70v280l-195 -280h195z" />
    <glyph glyph-name="five.osftab" 
d="M255 230q41 0 77.5 -16t63.5 -44t43 -66.5t16 -83.5t-16 -83.5t-44 -66.5t-66.5 -44t-83.5 -16q-43 0 -78.5 13t-61.5 35.5t-42.5 52.5t-22.5 64h80q8 -38 40 -66.5t85 -28.5q28 0 51.5 10t41 28t27.5 44t10 58q0 64 -36.5 102t-93.5 38q-34 0 -57 -12t-37 -26
q-17 -17 -26 -37h-70l40 360h320v-75h-250l-20 -180q12 11 29 20q14 8 34.5 14t46.5 6z" />
    <glyph glyph-name="six.osftab" 
d="M245 -5q-45 0 -84 16.5t-68.5 46t-46 68.5t-16.5 84q0 30 8 57t19 48q12 24 28 45l180 270h85l-140 -210l10 2t11 2t14 1q45 0 84 -16.5t68.5 -46t46 -68.5t16.5 -84t-16.5 -84t-46 -68.5t-68.5 -46t-84 -16.5zM110 210q0 -32 10.5 -58.5t29 -45.5t43 -30t52.5 -11
t52.5 10.5t43 30t29 46t10.5 58.5q0 30 -10.5 55.5t-29 44.5t-43 29.5t-52.5 10.5t-52.5 -10.5t-43 -29.5t-29 -44.5t-10.5 -55.5z" />
    <glyph glyph-name="seven.osftab" 
d="M435 444v-55l-265 -575h-85l260 560h-290v70h380z" />
    <glyph glyph-name="eight.osftab" 
d="M245 -5q-47 0 -85.5 15t-66.5 40t-43 58.5t-15 71.5q0 45 17 75.5t38 49.5q24 22 55 35q-25 9 -43 27q-16 15 -29 40t-13 63q0 32 14 61.5t39 52.5t59 37t73 14t73 -14t59 -37t39 -52.5t14 -61.5q0 -38 -13.5 -63t-29.5 -40q-18 -18 -42 -27q30 -13 55 -35
q20 -19 37.5 -49.5t17.5 -75.5q0 -38 -15 -71.5t-43 -58.5t-66.5 -40t-85.5 -15zM245 300q-60 0 -95 -33t-35 -82q0 -53 35 -86.5t95 -33.5t95 33.5t35 86.5q0 49 -35 82t-95 33zM245 370q22 0 41.5 8t33.5 21t22 30t8 36q0 21 -8 39t-22 31.5t-33.5 21.5t-41.5 8
q-23 0 -42 -8t-33 -21.5t-22 -31.5t-8 -39q0 -19 8 -36t22 -30t33 -21t42 -8z" />
    <glyph glyph-name="nine.osftab" 
d="M245 452q45 0 84 -16.5t68.5 -46t46 -68.5t16.5 -84q0 -30 -8.5 -57.5t-19.5 -47.5q-12 -25 -27 -45l-180 -270h-85l140 210q-5 -2 -10 -3t-11 -1.5t-14 -0.5q-45 0 -84 16.5t-68.5 46t-46 68.5t-16.5 84t16.5 84t46 68.5t68.5 46t84 16.5zM380 237q0 31 -10.5 58t-29 46
t-43 30t-52.5 11t-52.5 -10.5t-43 -30t-29 -46t-10.5 -58.5q0 -30 10.5 -55.5t29 -44.5t43 -29.5t52.5 -10.5t52.5 10.5t43 29.5t29 44.5t10.5 55.5z" />
    <glyph glyph-name="plus.lf" horiz-adv-x="440" 
d="M185 110v165h-155v65h155v165h70v-165h155v-65h-155v-165h-70z" />
    <glyph glyph-name="less.lf" horiz-adv-x="440" 
d="M395 130v-75l-350 190v50l350 190v-75l-265 -140z" />
    <glyph glyph-name="equal.lf" horiz-adv-x="435" 
d="M405 435v-70h-375v70h375zM30 250h375v-70h-375v70z" />
    <glyph glyph-name="greater.lf" horiz-adv-x="440" 
d="M310 270l-265 140v75l350 -190v-50l-350 -190v75z" />
    <glyph glyph-name="asciitilde.lf" horiz-adv-x="440" 
d="M115 320q-23 0 -39 -17.5t-16 -47.5h-60q0 64 31 97t84 33q26 0 55 -11t57 -24t52 -24t41 -11q26 0 43 17.5t17 47.5h60q0 -64 -31.5 -97t-88.5 -33q-24 0 -52 11t-56 24t-53 24t-44 11z" />
    <glyph glyph-name="logicalnot.lf" horiz-adv-x="440" 
d="M425 430v-200h-70v135h-340v65h410z" />
    <glyph glyph-name="plusminus.lf" horiz-adv-x="440" 
d="M30 80v65h155v170h-155v65h155v165h70v-165h155v-65h-155v-170h155v-65h-380z" />
    <glyph glyph-name="minus.lf" horiz-adv-x="430" 
d="M400 275h-370v65h370v-65z" />
    <glyph glyph-name="multiply.lf" horiz-adv-x="440" 
d="M380 189l-45 -45l-115 115l-115 -115l-45 45l115 115l-115 115l45 45l115 -115l115 115l45 -45l-115 -115z" />
    <glyph glyph-name="divide.lf" horiz-adv-x="440" 
d="M405 275h-370v65h370v-65zM220 420q-23 0 -36.5 13.5t-13.5 36.5t13.5 36.5t36.5 13.5t36.5 -13.5t13.5 -36.5t-13.5 -36.5t-36.5 -13.5zM220 195q23 0 36.5 -13.5t13.5 -36.5t-13.5 -36.5t-36.5 -13.5t-36.5 13.5t-13.5 36.5t13.5 36.5t36.5 13.5z" />
    <glyph glyph-name="notequal.lf" horiz-adv-x="440" 
d="M235 435l50 120h75l-50 -120h105v-70h-135l-45 -115h180v-70h-210l-50 -125h-75l50 125h-105v70h135l45 115h-180v70h210z" />
    <glyph glyph-name="approxequal.lf" horiz-adv-x="440" 
d="M115 415q-23 0 -39 -17.5t-16 -47.5h-60q0 64 31 97t84 33q26 0 55 -11t57 -24t52 -24t41 -11q26 0 43 17.5t17 47.5h60q0 -64 -31.5 -97t-88.5 -33q-24 0 -52 11t-56 24t-53 24t-44 11zM115 220q-23 0 -39 -17.5t-16 -47.5h-60q0 64 31 97t84 33q26 0 55 -11t57 -24
t52 -24t41 -11q26 0 43 17.5t17 47.5h60q0 -64 -31.5 -97t-88.5 -33q-24 0 -52 11t-56 24t-53 24t-44 11z" />
    <glyph glyph-name="lessequal.lf" horiz-adv-x="435" 
d="M40 120h355v-70h-355v70zM395 255v-75l-350 165v50l350 165v-75l-245 -115z" />
    <glyph glyph-name="greaterequal.lf" horiz-adv-x="435" 
d="M395 50h-355v70h355v-70zM285 370l-245 115v75l350 -165v-50l-350 -165v75z" />
    <glyph glyph-name="colon.lf" horiz-adv-x="170" 
d="M35 175q0 23 13.5 36.5t36.5 13.5t36.5 -13.5t13.5 -36.5t-13.5 -36.5t-36.5 -13.5t-36.5 13.5t-13.5 36.5zM35 435q0 23 13.5 36.5t36.5 13.5t36.5 -13.5t13.5 -36.5t-13.5 -36.5t-36.5 -13.5t-36.5 13.5t-13.5 36.5z" />
    <glyph glyph-name="a.smcp" horiz-adv-x="510" 
d="M130 130l-45 -130h-85l210 550h90l210 -550h-85l-45 130h-250zM255 470l-100 -275h200z" />
    <glyph glyph-name="agrave.smcp" horiz-adv-x="510" 
d="M130 130l-45 -130h-85l210 550h90l210 -550h-85l-45 130h-250zM255 470l-100 -275h200zM280 620h-50l-85 120h75z" />
    <glyph glyph-name="aacute.smcp" horiz-adv-x="510" 
d="M130 130l-45 -130h-85l210 550h90l210 -550h-85l-45 130h-250zM255 470l-100 -275h200zM290 740h75l-85 -120h-50z" />
    <glyph glyph-name="abreve.smcp" horiz-adv-x="510" 
d="M130 130l-45 -130h-85l210 550h90l210 -550h-85l-45 130h-250zM255 470l-100 -275h200zM255 625q-49 0 -80.5 32.5t-39.5 77.5h60q4 -26 20.5 -43t39.5 -17t39.5 17t20.5 43h60q-8 -45 -39.5 -77.5t-80.5 -32.5z" />
    <glyph glyph-name="acircumflex.smcp" horiz-adv-x="510" 
d="M130 130l-45 -130h-85l210 550h90l210 -550h-85l-45 130h-250zM255 470l-100 -275h200zM380 615h-75l-50 70l-50 -70h-75l90 120h70z" />
    <glyph glyph-name="adieresis.smcp" horiz-adv-x="510" 
d="M130 130l-45 -130h-85l210 550h90l210 -550h-85l-45 130h-250zM255 470l-100 -275h200zM180 645q-19 0 -32 13t-13 32t13 32t32 13t32 -13t13 -32t-13 -32t-32 -13zM330 645q-19 0 -32 13t-13 32t13 32t32 13t32 -13t13 -32t-13 -32t-32 -13z" />
    <glyph glyph-name="amacron.smcp" horiz-adv-x="510" 
d="M130 130l-45 -130h-85l210 550h90l210 -550h-85l-45 130h-250zM255 470l-100 -275h200zM375 645h-240v60h240v-60z" />
    <glyph glyph-name="aogonek.smcp" horiz-adv-x="510" 
d="M380 130h-250l-45 -130h-85l210 550h90l210 -550h-35q-10 -12 -18 -26q-7 -12 -12 -27t-5 -32q0 -19 13 -32t32 -13q8 0 14.5 0.5t12.5 1.5t13 3v-40q-7 -2 -13 -3t-12.5 -1.5t-14.5 -0.5q-45 0 -70 23.5t-25 61.5q0 17 5 32t12 27q8 14 18 26zM255 470l-100 -275h200z
" />
    <glyph glyph-name="aring.smcp" horiz-adv-x="510" 
d="M130 130l-45 -130h-85l210 550h90l210 -550h-85l-45 130h-250zM255 470l-100 -275h200zM220 690q0 -15 10 -25t25 -10t25 10t10 25t-10 25t-25 10t-25 -10t-10 -25zM335 690q0 -34 -23 -57t-57 -23t-57 23t-23 57t23 57t57 23t57 -23t23 -57z" />
    <glyph glyph-name="atilde.smcp" horiz-adv-x="510" 
d="M130 130l-45 -130h-85l210 550h90l210 -550h-85l-45 130h-250zM255 470l-100 -275h200zM310 675q15 0 27.5 15t12.5 45h45q0 -57 -25.5 -86t-59.5 -29q-23 0 -38 10t-26.5 22.5t-22 22.5t-23.5 10q-15 0 -27.5 -15t-12.5 -45h-45q0 57 25.5 86t59.5 29q22 0 37.5 -10
t27 -22.5t22 -22.5t23.5 -10z" />
    <glyph glyph-name="ae.smcp" horiz-adv-x="740" 
d="M295 550h395v-70h-260v-160h240v-70h-240v-181h270v-69h-350v130h-200l-70 -130h-90zM190 200h160v280h-10z" />
    <glyph glyph-name="b.smcp" horiz-adv-x="515" 
d="M380 290q28 -8 50 -26q19 -15 34.5 -41t15.5 -68q0 -32 -12.5 -60t-35.5 -49t-55.5 -33.5t-71.5 -12.5h-235v550h225q75 0 117.5 -40t42.5 -100q0 -34 -12 -57t-26 -37q-17 -17 -37 -26zM150 250v-180h155q42 0 68.5 26t26.5 64t-26.5 64t-68.5 26h-155zM150 320h145
q34 0 57 23t23 57t-23 57t-57 23h-145v-160z" />
    <glyph glyph-name="c.smcp" horiz-adv-x="585" 
d="M305 485q-38 0 -72 -16t-60.5 -44t-42 -66.5t-15.5 -83.5t15.5 -83.5t42 -66.5t60.5 -44t72 -16q68 0 107.5 34t62.5 91h80q-9 -39 -31 -74.5t-54.5 -62.5t-74 -42.5t-90.5 -15.5q-54 0 -103 22t-86 60t-59 89t-22 109t22 109t59 89t86 60t103 22q51 0 92 -15t72 -41.5
t51.5 -62t29.5 -76.5h-80q-19 53 -60 89t-105 36z" />
    <glyph glyph-name="cacute.smcp" horiz-adv-x="585" 
d="M305 485q-38 0 -72 -16t-60.5 -44t-42 -66.5t-15.5 -83.5t15.5 -83.5t42 -66.5t60.5 -44t72 -16q68 0 107.5 34t62.5 91h80q-9 -39 -31 -74.5t-54.5 -62.5t-74 -42.5t-90.5 -15.5q-54 0 -103 22t-86 60t-59 89t-22 109t22 109t59 89t86 60t103 22q51 0 92 -15t72 -41.5
t51.5 -62t29.5 -76.5h-80q-19 53 -60 89t-105 36zM345 740h75l-85 -120h-50z" />
    <glyph glyph-name="ccaron.smcp" horiz-adv-x="585" 
d="M305 485q-38 0 -72 -16t-60.5 -44t-42 -66.5t-15.5 -83.5t15.5 -83.5t42 -66.5t60.5 -44t72 -16q68 0 107.5 34t62.5 91h80q-9 -39 -31 -74.5t-54.5 -62.5t-74 -42.5t-90.5 -15.5q-54 0 -103 22t-86 60t-59 89t-22 109t22 109t59 89t86 60t103 22q51 0 92 -15t72 -41.5
t51.5 -62t29.5 -76.5h-80q-19 53 -60 89t-105 36zM335 615h-70l-90 120h75l50 -70l50 70h75z" />
    <glyph glyph-name="ccedilla.smcp" horiz-adv-x="585" 
d="M305 485q-38 0 -72 -16t-60.5 -44t-42 -66.5t-15.5 -83.5t15.5 -83.5t42 -66.5t60.5 -44t72 -16q68 0 107.5 34t62.5 91h80q-9 -37 -28.5 -70t-48 -59t-65.5 -43t-80 -21l-18 -37q30 -4 47.5 -21.5t17.5 -43.5t-22.5 -45.5t-67.5 -19.5q-10 0 -18 0.5t-14 1.5q-7 1 -13 3
v40q5 -2 12 -3q5 -1 12.5 -1.5t15.5 -0.5q23 0 34 9.5t11 20.5t-11 20.5t-34 9.5q-6 0 -10.5 -1t-7.5 -2q-4 -1 -7 -2l29 71q-52 3 -98 26t-80.5 60.5t-55 87t-20.5 105.5q0 58 22 109t59 89t86 60t103 22q51 0 92 -15t72 -41.5t51.5 -62t29.5 -76.5h-80q-19 53 -60 89
t-105 36z" />
    <glyph glyph-name="ccircumflex.smcp" horiz-adv-x="585" 
d="M305 485q-38 0 -72 -16t-60.5 -44t-42 -66.5t-15.5 -83.5t15.5 -83.5t42 -66.5t60.5 -44t72 -16q68 0 107.5 34t62.5 91h80q-9 -39 -31 -74.5t-54.5 -62.5t-74 -42.5t-90.5 -15.5q-54 0 -103 22t-86 60t-59 89t-22 109t22 109t59 89t86 60t103 22q51 0 92 -15t72 -41.5
t51.5 -62t29.5 -76.5h-80q-19 53 -60 89t-105 36zM425 615h-75l-50 70l-50 -70h-75l90 120h70z" />
    <glyph glyph-name="d.smcp" horiz-adv-x="545" 
d="M225 70q43 0 80.5 16t65 43.5t43.5 65t16 80.5t-16 80.5t-43.5 65t-65 43.5t-80.5 16h-75v-410h75zM510 275q0 -56 -22 -106t-60.5 -87.5t-90.5 -59.5t-112 -22h-155v550h155q60 0 112 -22t90.5 -59.5t60.5 -87.5t22 -106z" />
    <glyph glyph-name="dcaron.smcp" horiz-adv-x="545" 
d="M225 70q43 0 80.5 16t65 43.5t43.5 65t16 80.5t-16 80.5t-43.5 65t-65 43.5t-80.5 16h-75v-410h75zM510 275q0 -56 -22 -106t-60.5 -87.5t-90.5 -59.5t-112 -22h-155v550h155q60 0 112 -22t90.5 -59.5t60.5 -87.5t22 -106zM295 615h-70l-90 120h75l50 -70l50 70h75z" />
    <glyph glyph-name="dcroat.smcp" horiz-adv-x="560" 
d="M525 275q0 -56 -22 -106t-60.5 -87.5t-90.5 -59.5t-112 -22h-155v235h-70v70h70v245h155q60 0 112 -22t90.5 -59.5t60.5 -87.5t22 -106zM240 70q43 0 80.5 16t65 43.5t43.5 65t16 80.5t-16 80.5t-43.5 65t-65 43.5t-80.5 16h-75v-175h115v-70h-115v-165h75z" />
    <glyph glyph-name="eth.smcp" horiz-adv-x="560" 
d="M525 275q0 -56 -22 -106t-60.5 -87.5t-90.5 -59.5t-112 -22h-155v235h-70v70h70v245h155q60 0 112 -22t90.5 -59.5t60.5 -87.5t22 -106zM240 70q43 0 80.5 16t65 43.5t43.5 65t16 80.5t-16 80.5t-43.5 65t-65 43.5t-80.5 16h-75v-175h115v-70h-115v-165h75z" />
    <glyph glyph-name="e.smcp" horiz-adv-x="485" 
d="M445 70v-70h-375v550h365v-70h-285v-160h265v-70h-265v-180h295z" />
    <glyph glyph-name="eacute.smcp" horiz-adv-x="485" 
d="M445 70v-70h-375v550h365v-70h-285v-160h265v-70h-265v-180h295zM285 740h75l-85 -120h-50z" />
    <glyph glyph-name="ecaron.smcp" horiz-adv-x="485" 
d="M445 70v-70h-375v550h365v-70h-285v-160h265v-70h-265v-180h295zM285 615h-70l-90 120h75l50 -70l50 70h75z" />
    <glyph glyph-name="ecircumflex.smcp" horiz-adv-x="485" 
d="M445 70v-70h-375v550h365v-70h-285v-160h265v-70h-265v-180h295zM375 615h-75l-50 70l-50 -70h-75l90 120h70z" />
    <glyph glyph-name="edieresis.smcp" horiz-adv-x="485" 
d="M445 70v-70h-375v550h365v-70h-285v-160h265v-70h-265v-180h295zM175 645q-19 0 -32 13t-13 32t13 32t32 13t32 -13t13 -32t-13 -32t-32 -13zM325 645q-19 0 -32 13t-13 32t13 32t32 13t32 -13t13 -32t-13 -32t-32 -13z" />
    <glyph glyph-name="edotaccent.smcp" horiz-adv-x="485" 
d="M445 70v-70h-375v550h365v-70h-285v-160h265v-70h-265v-180h295zM200 687q0 21 13.5 34.5t33.5 13.5q21 0 34.5 -13.5t13.5 -34.5q0 -20 -13.5 -33.5t-34.5 -13.5q-20 0 -33.5 13.5t-13.5 33.5z" />
    <glyph glyph-name="egrave.smcp" horiz-adv-x="485" 
d="M445 70v-70h-375v550h365v-70h-285v-160h265v-70h-265v-180h295zM290 620h-50l-85 120h75z" />
    <glyph glyph-name="emacron.smcp" horiz-adv-x="485" 
d="M445 70v-70h-375v550h365v-70h-285v-160h265v-70h-265v-180h295zM375 645h-240v60h240v-60z" />
    <glyph glyph-name="eogonek.smcp" horiz-adv-x="485" 
d="M70 0v550h365v-70h-285v-160h265v-70h-265v-180h295v-70q-10 -12 -18 -26q-7 -12 -12 -27t-5 -32q0 -19 13 -32t32 -13q8 0 14.5 0.5t12.5 1.5t13 3v-40q-7 -2 -13 -3t-12.5 -1.5t-14.5 -0.5q-45 0 -70 23.5t-25 61.5q0 17 5 32t12 27q8 14 18 26h-325z" />
    <glyph glyph-name="f.smcp" horiz-adv-x="450" 
d="M70 0v550h360v-70h-280v-175h230v-70h-230v-235h-80z" />
    <glyph glyph-name="g.smcp" horiz-adv-x="615" 
d="M315 280h240v-280h-50l-15 80q-17 -25 -44 -43q-23 -16 -59 -29t-87 -13q-53 0 -100.5 22t-84.5 60t-58.5 89t-21.5 109t22 109t59 89t86 60t103 22q51 0 91 -14t70 -38t50 -55.5t29 -67.5h-80q-15 45 -55.5 75t-104.5 30q-38 0 -72 -16t-60.5 -44t-42 -66.5t-15.5 -83.5
t15.5 -83.5t42 -66.5t60.5 -44t72 -16q36 0 66 12t52.5 32.5t36 46.5t15.5 54h-160v70z" />
    <glyph glyph-name="gbreve.smcp" horiz-adv-x="615" 
d="M315 280h240v-280h-50l-15 80q-17 -25 -44 -43q-23 -16 -59 -29t-87 -13q-53 0 -100.5 22t-84.5 60t-58.5 89t-21.5 109t22 109t59 89t86 60t103 22q51 0 91 -14t70 -38t50 -55.5t29 -67.5h-80q-15 45 -55.5 75t-104.5 30q-38 0 -72 -16t-60.5 -44t-42 -66.5t-15.5 -83.5
t15.5 -83.5t42 -66.5t60.5 -44t72 -16q36 0 66 12t52.5 32.5t36 46.5t15.5 54h-160v70zM295 625q-49 0 -80.5 32.5t-39.5 77.5h60q4 -26 20.5 -43t39.5 -17t39.5 17t20.5 43h60q-8 -45 -39.5 -77.5t-80.5 -32.5z" />
    <glyph glyph-name="gcommaaccent.smcp" horiz-adv-x="615" 
d="M315 280h240v-280h-50l-15 80q-17 -25 -44 -43q-23 -16 -59 -29t-87 -13q-53 0 -100.5 22t-84.5 60t-58.5 89t-21.5 109t22 109t59 89t86 60t103 22q51 0 91 -14t70 -38t50 -55.5t29 -67.5h-80q-15 45 -55.5 75t-104.5 30q-38 0 -72 -16t-60.5 -44t-42 -66.5t-15.5 -83.5
t15.5 -83.5t42 -66.5t60.5 -44t72 -16q36 0 66 12t52.5 32.5t36 46.5t15.5 54h-160v70zM263 -115q0 21 14.5 35.5t35.5 14.5t35.5 -14.5t14.5 -35.5q0 -36 -12 -62.5t-26 -43.5q-17 -20 -37 -34l-15 20q10 9 18 20q7 9 13.5 22t8.5 28q-21 0 -35.5 14.5t-14.5 35.5z" />
    <glyph glyph-name="h.smcp" horiz-adv-x="565" 
d="M150 550v-230h265v230h80v-550h-80v250h-265v-250h-80v550h80z" />
    <glyph glyph-name="i.smcp" horiz-adv-x="220" 
d="M150 0h-80v550h80v-550z" />
    <glyph glyph-name="iacute.smcp" horiz-adv-x="220" 
d="M150 0h-80v550h80v-550zM145 740h75l-85 -120h-50z" />
    <glyph glyph-name="icircumflex.smcp" horiz-adv-x="220" 
d="M150 0h-80v550h80v-550zM235 615h-75l-50 70l-50 -70h-75l90 120h70z" />
    <glyph glyph-name="idieresis.smcp" horiz-adv-x="220" 
d="M150 0h-80v550h80v-550zM35 645q-19 0 -32 13t-13 32t13 32t32 13t32 -13t13 -32t-13 -32t-32 -13zM185 645q-19 0 -32 13t-13 32t13 32t32 13t32 -13t13 -32t-13 -32t-32 -13z" />
    <glyph glyph-name="igrave.smcp" horiz-adv-x="220" 
d="M150 0h-80v550h80v-550zM135 620h-50l-85 120h75z" />
    <glyph glyph-name="dotlessi.smcp" horiz-adv-x="220" 
d="M150 0h-80v550h80v-550zM63 687q0 21 13.5 34.5t33.5 13.5q21 0 34.5 -13.5t13.5 -34.5q0 -20 -13.5 -33.5t-34.5 -13.5q-20 0 -33.5 13.5t-13.5 33.5z" />
    <glyph glyph-name="imacron.smcp" horiz-adv-x="220" 
d="M150 0h-80v550h80v-550zM230 645h-240v60h240v-60z" />
    <glyph glyph-name="iogonek.smcp" horiz-adv-x="220" 
d="M70 550h80v-550h-30q-10 -12 -18 -26q-7 -12 -12 -27t-5 -32q0 -19 13 -32t32 -13q8 0 14.5 0.5t12.5 1.5t13 3v-40q-7 -2 -13 -3t-12.5 -1.5t-14.5 -0.5q-45 0 -70 23.5t-25 61.5q0 17 5 32t12 27q8 14 18 26v550z" />
    <glyph glyph-name="j.smcp" horiz-adv-x="445" 
d="M380 550v-365q0 -43 -13.5 -78t-38 -60t-58.5 -38.5t-75 -13.5t-75 13t-58.5 35.5t-38 52.5t-13.5 64h80q0 -42 28 -68.5t77 -26.5t77 30t28 90v365h80z" />
    <glyph glyph-name="k.smcp" horiz-adv-x="470" 
d="M150 280v-280h-80v550h80v-270l220 270h95l-225 -270l240 -280h-100z" />
    <glyph glyph-name="kcommaaccent.smcp" horiz-adv-x="470" 
d="M150 280v-280h-80v550h80v-270l220 270h95l-225 -270l240 -280h-100zM195 -115q0 21 14.5 35.5t35.5 14.5t35.5 -14.5t14.5 -35.5q0 -36 -12 -62.5t-26 -43.5q-17 -20 -37 -34l-15 20q10 9 18 20q7 9 13.5 22t8.5 28q-21 0 -35.5 14.5t-14.5 35.5z" />
    <glyph glyph-name="l.smcp" horiz-adv-x="440" 
d="M425 70v-70h-355v550h80v-480h275z" />
    <glyph glyph-name="lacute.smcp" horiz-adv-x="440" 
d="M425 70v-70h-355v550h80v-480h275zM145 740h75l-85 -120h-50z" />
    <glyph glyph-name="lcaron.smcp" horiz-adv-x="440" 
d="M250 550h80l-80 -130h-50zM425 70v-70h-355v550h80v-480h275z" />
    <glyph glyph-name="lcommaaccent.smcp" horiz-adv-x="440" 
d="M425 70v-70h-355v550h80v-480h275zM200 -115q0 21 14.5 35.5t35.5 14.5t35.5 -14.5t14.5 -35.5q0 -36 -12 -62.5t-26 -43.5q-17 -20 -37 -34l-15 20q10 9 18 20q7 9 13.5 22t8.5 28q-21 0 -35.5 14.5t-14.5 35.5z" />
    <glyph glyph-name="lslash.smcp" horiz-adv-x="450" 
d="M15 205l65 40v305h80v-260l135 80v-75l-135 -80v-145h275v-70h-355v170l-65 -40v75z" />
    <glyph glyph-name="m.smcp" horiz-adv-x="700" 
d="M375 0h-50l-175 390v-390h-80v550h90l190 -425l190 425h90v-550h-80v390z" />
    <glyph glyph-name="n.smcp" horiz-adv-x="575" 
d="M505 550v-550h-75l-280 410v-410h-80v550h75l280 -410v410h80z" />
    <glyph glyph-name="nacute.smcp" horiz-adv-x="575" 
d="M505 550v-550h-75l-280 410v-410h-80v550h75l280 -410v410h80zM310 740h75l-85 -120h-50z" />
    <glyph glyph-name="ncaron.smcp" horiz-adv-x="575" 
d="M505 550v-550h-75l-280 410v-410h-80v550h75l280 -410v410h80zM320 615h-70l-90 120h75l50 -70l50 70h75z" />
    <glyph glyph-name="ncommaaccent.smcp" horiz-adv-x="575" 
d="M505 550v-550h-75l-280 410v-410h-80v550h75l280 -410v410h80zM240 -115q0 21 14.5 35.5t35.5 14.5t35.5 -14.5t14.5 -35.5q0 -36 -12 -62.5t-26 -43.5q-17 -20 -37 -34l-15 20q10 9 18 20q7 9 13.5 22t8.5 28q-21 0 -35.5 14.5t-14.5 35.5z" />
    </font>
</defs>
</svg>
